<svg width="17" height="19" viewBox="0 0 17 19" fill="none" xmlns="http://www.w3.org/2000/svg">
<path d="M11.7673 18.5193H2.12203C0.951446 18.5193 0 17.5679 0 16.3973V5.98029C0 4.8097 0.951446 3.8584 2.12203 3.8584H2.50775C2.82721 3.8584 3.08648 4.11767 3.08648 4.43712C3.08648 4.75658 2.82721 5.01585 2.50775 5.01585H2.12203C1.59036 5.01585 1.15745 5.44862 1.15745 5.98029V16.3973C1.15745 16.929 1.59036 17.3619 2.12203 17.3619H11.7673C12.299 17.3619 12.7319 16.929 12.7319 16.3973V16.0116C12.7319 15.6921 12.9912 15.4329 13.3106 15.4329C13.6301 15.4329 13.8894 15.6921 13.8894 16.0116V16.3973C13.8894 17.5679 12.9379 18.5193 11.7673 18.5193Z" fill="#FF0097"/>
<path fill-rule="evenodd" clip-rule="evenodd" d="M6.75179 13.8894H14.8539C16.0245 13.8894 16.9758 12.9379 16.9758 11.7673V2.12203C16.9758 0.951446 16.0245 0 14.8539 0H6.75179C5.58121 0 4.62976 0.951446 4.62976 2.12203V11.7673C4.62976 12.9379 5.58121 13.8894 6.75179 13.8894ZM5.78721 2.12203C5.78721 1.59036 6.22012 1.15745 6.75179 1.15745H14.8539C15.3856 1.15745 15.8184 1.59036 15.8184 2.12203V11.7673C15.8184 12.299 15.3856 12.7319 14.8539 12.7319H6.75179C6.22012 12.7319 5.78721 12.299 5.78721 11.7673V2.12203Z" fill="#FF0097"/>
</svg>
