<?xml version="1.0" encoding="UTF-8"?>
<svg width="77px" height="77px" viewBox="0 0 77 77" version="1.1" xmlns="http://www.w3.org/2000/svg" xmlns:xlink="http://www.w3.org/1999/xlink">
    <title>Group 5</title>
    <g id="ONE-PAGER" stroke="none" stroke-width="1" fill="none" fill-rule="evenodd">
        <g id="Gravity-Mainnet-Launch_1" transform="translate(-125.000000, -478.000000)" fill="#22213D">
            <g id="Group-5" transform="translate(125.000000, 478.000000)">
                <path d="M38.5328862,76.0128759 C38.385096,76.0128759 38.2313581,75.9974155 38.0814991,75.9682986 C37.933709,75.9411142 37.7859188,75.8965369 37.6457574,75.8403645 L12.2458164,65.6815171 C11.9520722,65.5632457 11.6874722,65.3908631 11.4656965,65.1737744 C11.2458732,64.9586183 11.06687,64.6987561 10.9443193,64.4081021 L0.192632752,39.3278559 C0.130382457,39.1844614 0.0836031912,39.0352693 0.0505327219,38.8820833 C0.0194075743,38.7328912 0.00189973047,38.5777727 0.00189973047,38.4208505 L-1.31564416e-12,38.3917335 C0.00194532172,38.2386764 0.0155586948,38.0874229 0.0447385207,37.941967 C0.0739183465,37.7947075 0.116700167,37.647448 0.17505956,37.5058572 L10.3705108,12.2009596 C10.4872301,11.90827 10.6623284,11.6446587 10.8801993,11.4217466 C11.0961306,11.2027126 11.3567481,11.024352 11.6485529,10.9022412 L36.8170723,0.191043054 C36.962923,0.129016251 37.1127819,0.0825003996 37.2645804,0.0495486604 C37.4162495,0.0185353876 37.5738665,0.00109031055 37.7313541,0.00109031055 C37.7352331,-0.000363436851 37.7704028,-0.000363436851 37.7742818,0.00109031055 C37.9240115,0.00109031055 38.0738704,0.0165931849 38.215842,0.045668249 C38.3616927,0.0728049754 38.5037936,0.115429335 38.6457653,0.171641641 L64.0438185,10.33048 C64.3375885,10.4487256 64.6021368,10.6211597 64.8238866,10.8382613 C65.0456365,11.0534174 65.2226485,11.3131894 65.3471646,11.6039336 L76.0970551,36.6801473 C76.2215712,36.9709301 76.2857041,37.2810384 76.28963,37.5911466 C76.2915227,37.8993223 76.2332083,38.2095594 76.1145107,38.5022748 L65.9190595,63.8091435 C65.8023014,64.1018589 65.6273582,64.3653285 65.4094873,64.5864111 C65.193556,64.8073649 64.9327574,64.9856739 64.6428663,65.1078104 L39.4744503,75.8191065 C39.3245914,75.8830092 39.1709827,75.9314515 39.0153053,75.9623721 C38.8518698,75.9953542 38.6905031,76.0128759 38.5328862,76.0128759 L38.5328862,76.0128759 Z M16.3641058,60.1922017 L38.4842693,69.0387256 L60.4060862,59.7115146 L69.2864249,37.6706384 L59.9254773,15.8294581 L37.8053139,6.97909489 L15.8796179,16.3101452 L6.99925334,38.3510213 L16.3641058,60.1922017 L16.3641058,60.1922017 Z" id="Shape" fill-rule="nonzero"></path>
                <polygon id="Path" points="35.7220288 47.7534725 50.4869496 47.7534725 50.4869496 54.590026 25.8028922 54.590026 25.8028922 48.3756216 35.515795 37.6625218 25.8495695 27.625811 25.8495695 21.3941425 50.4869496 21.3941425 50.4869496 28.2286346 36.0372627 28.2286346 44.9953109 37.5772323"></polygon>
            </g>
        </g>
    </g>
</svg>