<svg width="32" height="32" viewBox="0 0 32 32" fill="none" xmlns="http://www.w3.org/2000/svg">
<g clip-path="url(#clip0)">
<g filter="url(#filter0_d)">
<circle cx="16" cy="16" r="15" fill="white"/>
<circle cx="16" cy="16" r="14.5" stroke="#EAF1F3"/>
</g>
<path d="M20.8289 13.4576C20.666 13.3665 20.4824 13.3187 20.2957 13.3187C20.109 13.3187 19.9255 13.3665 19.7625 13.4576L17.3158 14.8767L15.6535 15.8022L13.2069 17.2213C13.044 17.3123 12.8604 17.36 12.6737 17.36C12.4871 17.36 12.3035 17.3123 12.1405 17.2213L10.1957 16.1107C10.0375 16.0199 9.90533 15.8899 9.81199 15.7332C9.71865 15.5765 9.66729 15.3984 9.66287 15.216V13.0257C9.66068 12.842 9.70928 12.6612 9.8033 12.5033C9.89733 12.3455 10.0331 12.2166 10.1957 12.1311L12.1091 11.0513C12.2721 10.9603 12.4557 10.9125 12.6423 10.9125C12.829 10.9125 13.0125 10.9603 13.1755 11.0513L15.0889 12.1311C15.2471 12.2218 15.3793 12.3518 15.4726 12.5085C15.566 12.6652 15.6173 12.8433 15.6218 13.0257V14.4448L17.2841 13.4884V12.0694C17.2863 11.8856 17.2377 11.7049 17.1437 11.547C17.0497 11.3891 16.9139 11.2603 16.7513 11.1747L13.2069 9.13877C13.044 9.04777 12.8604 9 12.6737 9C12.4871 9 12.3035 9.04777 12.1405 9.13877L8.53293 11.1749C8.37035 11.2604 8.23457 11.3892 8.14054 11.5471C8.04652 11.7049 7.99791 11.8856 8.00007 12.0694V16.1724C7.99788 16.3561 8.04648 16.5369 8.14051 16.6947C8.23453 16.8526 8.37033 16.9814 8.53293 17.067L12.1401 19.1031C12.3031 19.1941 12.4866 19.2419 12.6733 19.2419C12.86 19.2419 13.0435 19.1941 13.2065 19.1031L15.653 17.7148L17.3154 16.7585L19.7621 15.3703C19.925 15.2792 20.1086 15.2314 20.2953 15.2314C20.482 15.2314 20.6655 15.2792 20.8285 15.3703L22.7419 16.45C22.9001 16.5408 23.0323 16.6708 23.1256 16.8275C23.2189 16.9842 23.2703 17.1623 23.2747 17.3447V19.535C23.2769 19.7187 23.2283 19.8995 23.1343 20.0573C23.0403 20.2152 22.9045 20.344 22.7419 20.4296L20.8285 21.5402C20.6655 21.6312 20.4819 21.679 20.2953 21.679C20.1086 21.679 19.9251 21.6312 19.7621 21.5402L17.8487 20.4605C17.6905 20.3697 17.5583 20.2397 17.465 20.083C17.3716 19.9263 17.3203 19.7482 17.3158 19.5658V18.1466L15.6535 19.1029V20.522C15.6513 20.7058 15.6999 20.8865 15.7939 21.0444C15.8879 21.2023 16.0237 21.3311 16.1863 21.4167L19.7935 23.4528C19.9565 23.5438 20.14 23.5915 20.3267 23.5915C20.5134 23.5915 20.6969 23.5438 20.8599 23.4528L24.4671 21.4167C24.6253 21.3259 24.7575 21.1959 24.8508 21.0392C24.9441 20.8825 24.9955 20.7044 24.9999 20.522V16.4192C25.0021 16.2354 24.9535 16.0547 24.8595 15.8968C24.7655 15.7389 24.6297 15.6101 24.4671 15.5245L20.8289 13.4576Z" fill="#8247E5"/>
</g>
<defs>
<filter id="filter0_d" x="-24" y="-23" width="80" height="80" filterUnits="userSpaceOnUse" color-interpolation-filters="sRGB">
<feFlood flood-opacity="0" result="BackgroundImageFix"/>
<feColorMatrix in="SourceAlpha" type="matrix" values="0 0 0 0 0 0 0 0 0 0 0 0 0 0 0 0 0 0 127 0"/>
<feOffset dy="1"/>
<feGaussianBlur stdDeviation="12.5"/>
<feColorMatrix type="matrix" values="0 0 0 0 0.88667 0 0 0 0 0.944027 0 0 0 0 0.963145 0 0 0 1 0"/>
<feBlend mode="normal" in2="BackgroundImageFix" result="effect1_dropShadow"/>
<feBlend mode="normal" in="SourceGraphic" in2="effect1_dropShadow" result="shape"/>
</filter>
<clipPath id="clip0">
<rect width="32" height="32" fill="white"/>
</clipPath>
</defs>
</svg>
