<?xml version="1.0" encoding="UTF-8"?>
<svg width="103px" height="48px" viewBox="0 0 103 48" version="1.1" xmlns="http://www.w3.org/2000/svg" xmlns:xlink="http://www.w3.org/1999/xlink">
    <title>sign</title>
    <g id="ONE-PAGER" stroke="none" stroke-width="1" fill="none" fill-rule="evenodd">
        <g id="Gravity-Mainnet-Launch_1" transform="translate(-291.000000, -514.000000)">
            <g id="sign" transform="translate(291.000000, 514.000000)">
                <path d="M31.8735705,21.9099338 L0.459250244,21.9099338 L0.459250244,0.0832975709 L36.9854578,0.0832975709 L36.9854578,16.7980465 C34.4796058,17.4472396 32.5227636,19.4040818 31.8735705,21.9099338 Z" id="Rectangle_3_copie_3" fill="#000000" fill-rule="nonzero"></path>
                <path d="M45.2653254,21.9099338 C44.7074454,19.5059374 42.9096902,17.582027 40.5489902,16.8626355 L40.5489902,0.0832975709 L59.0633231,0.0832975709 C59.2575356,0.0832975709 65.4937173,-1.15636628 65.4937173,6.25221767 L65.4937173,21.9099338 L45.2653254,21.9099338 Z" id="Rectangle_3_copie_3-2" fill="#F919A5"></path>
                <path d="M32.0000759,25.4734662 C32.7609001,27.7750723 34.6386459,29.5326906 36.9854578,30.139912 L36.9854578,47.3001025 L6.52705511,47.3001025 C-0.226729752,47.3001025 0.459250244,41.0639207 0.459250244,40.8803988 L0.459250244,25.4734662 L32.0000759,25.4734662 Z" id="Rectangle_3_copie_3-3" fill="#000000" fill-rule="nonzero"></path>
                <path d="M56.5198518,40.2055548 C56.2103417,39.5871462 55.7595665,39.0503056 55.2040174,38.6384914 C54.328087,38.0257335 53.3798424,37.523484 52.3808088,37.1431441 C51.561454,36.8300959 50.7693005,36.4500351 50.0123961,36.0068227 C49.6321605,35.7772798 49.3089701,35.4644462 49.0671691,35.0918857 C48.8673579,34.736273 48.7680425,34.3330062 48.7798593,33.9252743 C48.758745,33.3104468 49.0239735,32.7205931 49.4979111,32.3283663 C50.1065079,31.8852048 50.8520912,31.6712795 51.6030679,31.7243476 C53.0417813,31.7735099 54.4565908,32.1065487 55.7661647,32.704319 L56.6739745,30.3733233 C55.103099,29.6588094 53.3991523,29.2837469 51.6734476,29.2726373 C49.9273167,29.2726373 48.5357573,29.6913523 47.4987694,30.5287824 C46.4619888,31.3646323 45.884653,32.6438337 45.9437329,33.9742729 C45.915515,35.0542469 46.2617491,36.1107332 46.9237043,36.964522 C47.5770186,37.7945281 48.7014616,38.5323278 50.2970332,39.1779211 C51.8439033,39.7997575 52.8647068,40.3379994 53.3594439,40.7926468 C53.8380188,41.2117354 54.1090477,41.8193935 54.1011041,42.4554801 C54.1252403,43.129634 53.824974,43.7745525 53.2935186,44.1900295 C52.7554252,44.620623 51.9200738,44.8359198 50.7874644,44.8359198 C49.9423296,44.8270552 49.1011815,44.7186598 48.2814102,44.5129746 C47.4060287,44.3055346 46.5542031,44.0089554 45.7392752,43.6278823 L45.7392752,46.3312671 C47.267927,46.9992815 48.9274912,47.314142 50.5945882,47.2524402 C52.5723487,47.2524402 54.1235247,46.8098198 55.2481161,45.9245789 C56.3690294,45.0487412 56.9974282,43.6850811 56.9350033,42.2639402 C56.9529982,41.5553376 56.8111005,40.8517868 56.5198518,40.2055548 Z" id="SIGNATURE_CHAIN-path" fill="#000000" fill-rule="nonzero"></path>
                <polygon id="SIGNATURE_CHAIN-path" fill="#000000" fill-rule="nonzero" points="63.6727523 47.0123472 63.6727523 29.5229754 60.8139084 29.5229754 60.8139084 47.0123472"></polygon>
                <path d="M75.9339765,39.9783796 L79.5585345,39.9783796 L79.5585345,44.4880299 C78.5850741,44.710416 77.5903987,44.8267602 76.5918937,44.8350289 C74.7575654,44.8350289 73.3520488,44.2788209 72.3753439,43.1664048 C71.3986391,42.0539888 70.9101382,40.429018 70.9098412,38.2914924 C70.9098412,36.2579033 71.4520921,34.6543137 72.5365938,33.4807236 C73.6210955,32.3071336 75.0965464,31.721081 76.9629465,31.7225658 C78.4369087,31.7346931 79.8903684,32.0691713 81.2213678,32.7025372 L82.2262839,30.3220976 C80.5862013,29.6189917 78.819083,29.2605647 77.0346626,29.2689257 C74.1954181,29.2689257 71.9664286,30.0646323 70.347694,31.6557496 C68.7289594,33.2468668 67.9194436,35.4500208 67.9191466,38.2652114 C67.9191466,41.1198978 68.6369014,43.3309212 70.0724111,44.8982816 C71.5079207,46.4656419 73.5495279,47.2491337 76.1972325,47.2488767 C77.2478717,47.2540144 78.2974736,47.1821056 79.3375954,47.0337284 C80.3669023,46.8756072 81.3811551,46.6315428 82.3697161,46.3040951 L82.3697161,37.5262238 L75.9339765,37.5262238 L75.9339765,39.9761524 L75.9339765,39.9783796 Z" id="SIGNATURE_CHAIN-path" fill="#000000" fill-rule="nonzero"></path>
                <path d="M101.629273,29.5229754 L99.0091854,29.5229754 L99.0091854,38.6865991 C99.0091854,39.3324894 99.0330908,40.2315389 99.0809015,41.3837477 C99.1287122,42.5359565 99.1606356,43.2041189 99.1766714,43.3882347 L99.1049554,43.3882347 L90.5275328,29.5229754 L87.0584339,29.5229754 L87.0584339,47.0123472 L89.6540219,47.0123472 L89.6540219,37.9208851 C89.6540219,36.6926542 89.5981932,35.3368786 89.4865358,33.8535582 L89.4268467,33.0758173 L89.5226166,33.0758173 L98.1236476,47.0123472 L101.628827,47.0123472 L101.628827,29.5229754 L101.629273,29.5229754 Z" id="SIGNATURE_CHAIN-path" fill="#000000" fill-rule="nonzero"></path>
            </g>
        </g>
    </g>
</svg>