<svg width="30" height="30" viewBox="0 0 30 30" fill="none" xmlns="http://www.w3.org/2000/svg">
<path fill-rule="evenodd" clip-rule="evenodd" d="M17.7066 15.5702C17.5394 15.5827 16.6755 15.6343 14.7485 15.6343C13.2158 15.6343 12.1276 15.5883 11.7459 15.5702C5.82277 15.3096 1.4017 14.2786 1.4017 13.0441C1.4017 11.8096 5.82277 10.7799 11.7459 10.5151V14.5433C12.1332 14.5712 13.2423 14.6366 14.775 14.6366C16.6142 14.6366 17.5352 14.56 17.701 14.5447V10.5179C23.6116 10.7813 28.0229 11.8123 28.0229 13.0441C28.0229 14.2758 23.613 15.3068 17.701 15.5688L17.7066 15.5702ZM17.7066 10.1013V6.49673H25.9552V1H3.49729V6.49673H11.7445V10.0999C5.04111 10.4078 0 11.7357 0 13.3269C0 14.9181 5.04111 16.2445 11.7445 16.5539V28.1047H17.7052V16.5497C24.3932 16.2418 29.426 14.9153 29.426 13.3255C29.426 11.7357 24.3974 10.4092 17.7052 10.0999L17.7066 10.1013Z" fill="#50AF95"/>
</svg>
