<svg width="30" height="30" viewBox="0 0 30 30" fill="none" xmlns="http://www.w3.org/2000/svg">
<path d="M23.3598 0.006242L19.2823 0C14.7013 0 11.7409 2.89785 11.7409 7.38304V10.7871H7.64115C7.28688 10.7871 7 11.0611 7 11.3991V16.3313C7 16.6693 7.28721 16.943 7.64115 16.943H11.7409V29.3883C11.7409 29.7263 12.0278 30 12.3821 30H17.7311C18.0854 30 18.3723 29.726 18.3723 29.3883V16.943H23.1658C23.5201 16.943 23.807 16.6693 23.807 16.3313L23.809 11.3991C23.809 11.2369 23.7413 11.0814 23.6212 10.9666C23.5011 10.8517 23.3376 10.7871 23.1675 10.7871H18.3723V7.90144C18.3723 6.51447 18.7187 5.81037 20.6124 5.81037L23.3592 5.80943C23.7131 5.80943 24 5.53541 24 5.19772V0.617958C24 0.280578 23.7134 0.0068662 23.3598 0.006242Z" fill="currentColor"/>
</svg>
