<svg width="88" height="68" viewBox="0 0 88 68" fill="none" xmlns="http://www.w3.org/2000/svg">
<g id="Logo">
<path id="SuSy" fill-rule="evenodd" clip-rule="evenodd" d="M39.2343 62.9681C38.7155 63.143 38.1121 63.2305 37.4242 63.2305C36.8646 63.2305 36.3662 63.1693 35.9289 63.0468C35.4917 62.9244 35.1055 62.7466 34.7703 62.5134C34.4351 62.2802 34.148 61.9961 33.909 61.6609C33.67 61.3257 33.4747 60.9424 33.3231 60.511L34.3637 60.0825C34.4861 60.4614 34.6508 60.7995 34.8578 61.0968C35.0647 61.3942 35.3052 61.6463 35.5792 61.8532C35.8532 62.0602 36.1577 62.219 36.4929 62.3298C36.8281 62.4406 37.1852 62.4959 37.5641 62.4959C37.8498 62.4959 38.1325 62.4566 38.4123 62.3779C38.6922 62.2992 38.9428 62.1826 39.1643 62.0281C39.3859 61.8736 39.5637 61.6842 39.6978 61.4597C39.8318 61.2353 39.8989 60.9744 39.8989 60.6771C39.8989 60.3215 39.8071 60.0053 39.6234 59.7284C39.4398 59.4515 39.1993 59.1979 38.902 58.9676C38.6047 58.7373 38.2651 58.5202 37.8833 58.3161C37.5015 58.1121 37.1123 57.9081 36.7159 57.704C36.3195 57.5 35.9304 57.2858 35.5486 57.0613C35.1667 56.8369 34.8271 56.5862 34.5298 56.3093C34.2325 56.0324 33.9921 55.7234 33.8084 55.3824C33.6248 55.0414 33.533 54.6493 33.533 54.2063C33.533 53.7632 33.6161 53.3523 33.7822 52.9733C33.9483 52.5944 34.1917 52.2665 34.5124 51.9896C34.833 51.7127 35.2279 51.4955 35.6972 51.3381C36.1665 51.1807 36.7043 51.1021 37.3105 51.1021C37.8585 51.1021 38.3482 51.1603 38.7796 51.2769C39.211 51.3935 39.5899 51.5655 39.9164 51.7929C40.2428 52.0202 40.5197 52.3 40.7471 52.6323C40.9744 52.9646 41.1581 53.3493 41.298 53.7866L40.3011 54.2413C40.1845 53.8857 40.0359 53.5607 39.8552 53.2663C39.6744 52.9719 39.4587 52.7198 39.2081 52.5099C38.9574 52.3 38.6674 52.1383 38.338 52.0246C38.0086 51.9109 37.637 51.8541 37.2231 51.8541C36.8558 51.8541 36.5352 51.9051 36.2612 52.0071C35.9872 52.1091 35.7584 52.2432 35.5748 52.4093C35.3912 52.5755 35.2542 52.762 35.1638 52.969C35.0734 53.1759 35.0283 53.3872 35.0283 53.6029C35.0283 53.9061 35.1215 54.1844 35.3081 54.438C35.4946 54.6916 35.7424 54.9306 36.0514 55.1551C36.3603 55.3795 36.7116 55.5966 37.1051 55.8065C37.4985 56.0164 37.8993 56.2292 38.3074 56.4449C38.7155 56.6605 39.1163 56.885 39.5098 57.1182C39.9032 57.3513 40.2545 57.6064 40.5634 57.8833C40.8724 58.1602 41.1202 58.4633 41.3067 58.7927C41.4933 59.1221 41.5865 59.4908 41.5865 59.8989C41.5865 60.3594 41.4991 60.7923 41.3242 61.1974C41.1493 61.6026 40.887 61.9553 40.5372 62.2555C40.1874 62.5557 39.7531 62.7933 39.2343 62.9681ZM47.9612 63.0031C47.6697 63.1022 47.3928 63.1518 47.1305 63.1518C46.7399 63.1518 46.3726 63.0789 46.0287 62.9332C45.6847 62.7874 45.3845 62.5892 45.128 62.3385C44.8715 62.0879 44.6689 61.7935 44.5203 61.4554C44.3716 61.1173 44.2973 60.7587 44.2973 60.3798V54.0052H46.0811V60.3798C46.0811 60.6013 46.1321 60.8112 46.2342 61.0094C46.3362 61.2076 46.4775 61.3796 46.6583 61.5253C46.839 61.6711 47.0474 61.7862 47.2835 61.8707C47.5196 61.9553 47.7746 61.9975 48.0486 61.9975C48.2235 61.9975 48.4115 61.9596 48.6126 61.8838C48.8137 61.8081 49.0105 61.7046 49.2029 61.5734C49.3952 61.4422 49.5745 61.2878 49.7406 61.11C49.9068 60.9322 50.0482 60.7442 50.1647 60.546V54.0052H51.9311V62.9594H50.1647V61.2805C50.0073 61.537 49.8106 61.7789 49.5745 62.0063C49.3384 62.2336 49.0834 62.4318 48.8094 62.6009C48.5354 62.7699 48.2526 62.904 47.9612 63.0031ZM58.7342 63.2305C59.4221 63.2305 60.0255 63.143 60.5443 62.9681C61.0631 62.7933 61.4974 62.5557 61.8472 62.2555C62.197 61.9553 62.4593 61.6026 62.6342 61.1974C62.8091 60.7923 62.8965 60.3594 62.8965 59.8989C62.8965 59.4908 62.8033 59.1221 62.6167 58.7927C62.4302 58.4633 62.1824 58.1602 61.8734 57.8833C61.5645 57.6064 61.2132 57.3513 60.8197 57.1182C60.4262 56.885 60.0255 56.6605 59.6174 56.4449C59.2093 56.2292 58.8085 56.0164 58.415 55.8065C58.0215 55.5966 57.6703 55.3795 57.3614 55.1551C57.0524 54.9306 56.8046 54.6916 56.6181 54.438C56.4315 54.1844 56.3383 53.9061 56.3383 53.6029C56.3383 53.3872 56.3834 53.1759 56.4738 52.969C56.5642 52.762 56.7012 52.5755 56.8848 52.4093C57.0684 52.2432 57.2972 52.1091 57.5712 52.0071C57.8452 51.9051 58.1658 51.8541 58.5331 51.8541C58.947 51.8541 59.3186 51.9109 59.648 52.0246C59.9774 52.1383 60.2674 52.3 60.5181 52.5099C60.7687 52.7198 60.9844 52.9719 61.1651 53.2663C61.3459 53.5607 61.4945 53.8857 61.6111 54.2413L62.608 53.7866C62.4681 53.3493 62.2844 52.9646 62.0571 52.6323C61.8297 52.3 61.5528 52.0202 61.2264 51.7929C60.8999 51.5655 60.521 51.3935 60.0896 51.2769C59.6582 51.1603 59.1685 51.1021 58.6205 51.1021C58.0143 51.1021 57.4765 51.1807 57.0072 51.3381C56.5379 51.4955 56.143 51.7127 55.8223 51.9896C55.5017 52.2665 55.2583 52.5944 55.0922 52.9733C54.926 53.3523 54.843 53.7632 54.843 54.2063C54.843 54.6493 54.9348 55.0414 55.1184 55.3824C55.3021 55.7234 55.5425 56.0324 55.8398 56.3093C56.1371 56.5862 56.4767 56.8369 56.8586 57.0613C57.2404 57.2858 57.6295 57.5 58.0259 57.704C58.4223 57.9081 58.8115 58.1121 59.1933 58.3161C59.5751 58.5202 59.9147 58.7373 60.212 58.9676C60.5093 59.1979 60.7498 59.4515 60.9334 59.7284C61.1171 60.0053 61.2089 60.3215 61.2089 60.6771C61.2089 60.9744 61.1418 61.2353 61.0077 61.4597C60.8737 61.6842 60.6959 61.8736 60.4743 62.0281C60.2528 62.1826 60.0021 62.2992 59.7223 62.3779C59.4425 62.4566 59.1598 62.4959 58.8741 62.4959C58.4952 62.4959 58.1381 62.4406 57.8029 62.3298C57.4677 62.219 57.1631 62.0602 56.8892 61.8532C56.6152 61.6463 56.3747 61.3942 56.1677 61.0968C55.9608 60.7995 55.7961 60.4614 55.6737 60.0825L54.6331 60.511C54.7847 60.9424 54.98 61.3257 55.219 61.6609C55.458 61.9961 55.7451 62.2802 56.0803 62.5134C56.4155 62.7466 56.8017 62.9244 57.2389 63.0468C57.6761 63.1693 58.1746 63.2305 58.7342 63.2305ZM66.5254 66.9337C66.2281 67.0357 65.9396 67.0867 65.6597 67.0867C65.4499 67.0867 65.2458 67.0547 65.0476 66.9905C64.8494 66.9264 64.6833 66.8419 64.5492 66.737L65.2925 65.0755C65.3624 65.1047 65.4397 65.1426 65.5242 65.1892C65.6087 65.2358 65.702 65.281 65.804 65.3247C65.906 65.3685 66.0183 65.4049 66.1407 65.434C66.2631 65.4632 66.4001 65.4778 66.5517 65.4778C66.7382 65.4778 66.9131 65.4253 67.0763 65.3204C67.2396 65.2154 67.3882 65.0843 67.5223 64.9269C67.6564 64.7695 67.7759 64.5975 67.8808 64.411C67.9857 64.2244 68.0732 64.0495 68.1431 63.8863L68.7465 62.5397L64.1732 54.0052H66.1931L69.6384 60.476L72.4628 54.0052H73.416L68.8427 64.5334C68.6503 64.9706 68.4302 65.3495 68.1825 65.6701C67.9347 65.9908 67.6709 66.256 67.3911 66.4659C67.1113 66.6757 66.8227 66.8317 66.5254 66.9337Z" fill="#FF0097"/>
<g id="Group 43 Copy 4">
<path id="Path 24 Copy 13" fill-rule="evenodd" clip-rule="evenodd" d="M67.1635 35.9904C69.415 38.9344 79.5622 38.9858 77.3411 44.6018C75.7393 48.6518 65.1649 42.9232 62.2085 43.7153C59.2521 44.5075 54.592 46.6437 48.8404 46.6612C43.0888 46.6787 38.6019 43.0185 36.8481 43.4885C35.0943 43.9584 34.5087 46.0734 30.2277 48.0119C25.9466 49.9503 19.9997 48.003 18.6826 48.3559C17.3655 48.7088 18.5209 49.1796 18.5756 53.2375C18.6304 57.2953 14.3714 60.9163 11.2122 58.3041C8.05297 55.6918 12.583 44.2035 12.9985 43.4947C13.414 42.7859 14.6984 40.7933 16.2863 41.3756C17.8742 41.9579 19.0254 42.2524 20.3285 41.1668C21.6316 40.0812 41.6034 30.8546 47.9049 29.7373C54.2065 28.62 64.9119 33.0463 67.1635 35.9904Z" fill="#FFB9E3"/>
<path id="Path 24 Copy 13_2" fill-rule="evenodd" clip-rule="evenodd" d="M63.5526 20.7087C63.5526 20.7087 54.9811 22.6205 48.614 18.621C42.2469 14.6216 40.6548 10.8041 40.5292 10.3356C40.2688 9.36368 46.0961 12.1656 49.1969 12.6874C52.2977 13.2091 64.1426 13.1571 72.9242 13.3079C78.9974 13.4122 80.3731 16.9307 80.8584 18.7418C81.5101 21.1737 79.7446 23.4278 77.764 24.3035C75.7834 25.1793 72.4597 28.3822 74.6912 31.2594C76.9226 34.1367 87.0416 34.1393 84.8002 39.6586C83.1837 43.6388 72.6654 38.0693 69.7134 38.8603C66.7614 39.6513 62.1041 41.7688 56.3682 41.813C50.6323 41.8573 46.175 38.2881 44.4238 38.7573C42.6726 39.2266 42.0787 41.304 37.8003 43.2257C33.5219 45.1473 27.6005 43.2651 26.2854 43.6175C24.9702 43.9699 26.1202 44.4263 26.1557 48.4065C26.1912 52.3866 21.9269 55.9586 18.7886 53.4111C15.6504 50.8636 20.2221 39.5731 20.6398 38.8759C21.0575 38.1787 22.3478 36.218 23.9286 36.7817C25.5094 37.3454 26.6561 37.6289 27.9607 36.5579C29.2653 35.4868 27.0455 27.2025 35.2558 25.3965C43.466 23.5906 49.2256 26.3421 55.5151 25.2165C61.8045 24.0908 63.5526 20.7087 63.5526 20.7087Z" fill="url(#paint0_linear)"/>
<path id="Path 25 Copy 3" fill-rule="evenodd" clip-rule="evenodd" d="M76.9781 18.4585C76.9781 18.4585 76.4669 18.4077 75.7775 18.0783C75.0882 17.7489 74.7307 16.7861 73.8917 16.8605C73.0528 16.935 71.9117 17.5331 71.6101 17.6139C71.3086 17.6947 72.938 17.8258 73.2287 18.2784C73.5194 18.731 73.9584 19.3946 75.1469 19.3612C76.3354 19.3279 76.9781 18.4585 76.9781 18.4585Z" fill="white"/>
</g>
</g>
<defs>
<linearGradient id="paint0_linear" x1="76.0156" y1="0.667969" x2="86.5703" y2="40.0589" gradientUnits="userSpaceOnUse">
<stop stop-color="#FFA9DC"/>
<stop offset="1" stop-color="#FF0097"/>
</linearGradient>
</defs>
</svg>
