<svg width="9" height="9" viewBox="0 0 9 9" fill="none" xmlns="http://www.w3.org/2000/svg">
<path d="M4.1113 8.18701H1.02782C0.461146 8.18701 0 7.72785 0 7.16363V1.02338C0 0.459166 0.461146 0 1.02782 0H4.1113C4.30042 0 4.4539 0.152831 4.4539 0.341117C4.4539 0.529404 4.30041 0.682235 4.1113 0.682235H1.02782C0.839035 0.682235 0.685217 0.835402 0.685217 1.02335V7.1636C0.685217 7.3519 0.839051 7.50471 1.02782 7.50471H4.1113C4.30042 7.50471 4.4539 7.65719 4.4539 7.84583C4.4539 8.03452 4.30041 8.18701 4.1113 8.18701Z" fill="white"/>
<path d="M7.19476 4.43419H3.08346C2.89434 4.43419 2.74086 4.28171 2.74086 4.09307C2.74086 3.90477 2.89436 3.75195 3.08346 3.75195H7.19476C7.38422 3.75195 7.53736 3.90478 7.53736 4.09307C7.53736 4.28171 7.38422 4.43419 7.19476 4.43419Z" fill="white"/>
<path d="M5.82395 6.48108C5.73555 6.48108 5.64717 6.44697 5.58001 6.37942C5.44708 6.24536 5.44845 6.02943 5.58345 5.89708L7.41914 4.09321L5.58345 2.28934C5.44846 2.15698 5.44743 1.94105 5.58001 1.80665C5.71261 1.67225 5.93015 1.67123 6.06446 1.80359L8.14752 3.85034C8.21262 3.91446 8.24961 4.00181 8.24961 4.09322C8.24961 4.18464 8.21296 4.27163 8.14752 4.3361L6.06446 6.38284C5.99799 6.44833 5.91096 6.48108 5.82395 6.48108Z" fill="white"/>
</svg>
