<svg width="30" height="30" viewBox="0 0 30 30" fill="none" xmlns="http://www.w3.org/2000/svg">
<path fill-rule="evenodd" clip-rule="evenodd" d="M7.07452 14.6661C4.16027 7.3206 1.88476 1.17273 2.00452 1.01304C2.1642 0.893279 6.91483 1.61186 12.5437 2.60989L22.8434 4.48619L25.5181 7.16091L28.1529 9.87556L20.7276 18.9377C16.6157 23.9278 13.0627 27.9998 12.8232 27.9998C12.5836 28.0397 10.0287 22.0116 7.07452 14.6661ZM13.3022 17.3409C13.6615 14.4266 13.901 11.9914 13.8212 11.9116C13.7733 11.8877 13.1805 11.4048 12.3091 10.6951C11.7267 10.2207 11.0199 9.64501 10.2682 9.03726C9.8348 8.68206 9.43917 8.35719 9.07837 8.06093L9.07786 8.0605L9.07721 8.05997C6.58766 6.01569 5.75752 5.33402 5.62316 5.45107C5.55594 5.50962 5.66285 5.76806 5.82324 6.1558C5.86484 6.25635 5.91003 6.36559 5.95671 6.4823C6.27608 7.2408 7.87293 11.2329 9.5097 15.3448C11.1465 19.4168 12.5038 22.7302 12.5437 22.6903C12.5836 22.6504 12.9429 20.2551 13.3022 17.3409ZM24.081 11.3526C24.1209 11.4324 22.1248 13.9874 19.5699 17.0613C17.0548 20.1352 14.8991 22.7301 14.8192 22.81C14.7394 22.8898 14.6595 22.5305 14.6595 22.0115C14.6995 20.7341 15.7374 12.8297 15.937 12.7099C16.1765 12.5502 23.9612 11.2328 24.081 11.3526ZM21.9651 9.6759L24.7197 9.15692L23.5221 7.95929C22.1647 6.60197 22.045 6.64189 19.0509 9.27669C18.0129 10.1949 17.8533 10.4743 18.4521 10.3146C18.5567 10.2956 18.7272 10.263 18.9462 10.221L18.9466 10.221C19.6462 10.087 20.8404 9.85829 21.9651 9.6759ZM19.6098 5.80376C19.8094 5.8836 18.8513 6.84171 17.4939 7.99943C16.0967 9.15715 14.8591 10.0753 14.7394 10.0354C14.2204 9.99549 7.15435 3.88754 7.47372 3.76778C7.71325 3.68794 18.2924 5.48439 19.6098 5.80376Z" fill="#D61719"/>
</svg>
