<?xml version="1.0" standalone="no"?>
<!DOCTYPE svg PUBLIC "-//W3C//DTD SVG 20010904//EN"
 "http://www.w3.org/TR/2001/REC-SVG-20010904/DTD/svg10.dtd">
<svg version="1.0" xmlns="http://www.w3.org/2000/svg"
 width="700.000000pt" height="700.000000pt" viewBox="0 0 700.000000 700.000000"
 preserveAspectRatio="xMidYMid meet">
<metadata>
Created by potrace 1.11, written by Peter Selinger 2001-2013
</metadata>
<g transform="translate(0.000000,700.000000) scale(0.100000,-0.100000)"
fill="#000000" stroke="none">
<path d="M2515 5631 c-3 -5 13 -44 35 -87 166 -321 651 -720 1030 -848 187
-63 425 -99 655 -99 84 0 277 13 335 23 130 22 128 23 74 -42 -60 -71 -125
-126 -207 -176 -168 -104 -378 -174 -597 -201 -89 -11 -407 -11 -500 0 -36 4
-101 10 -146 13 -44 3 -99 8 -122 11 -23 3 -61 7 -84 10 -182 22 -556 25 -708
6 -354 -44 -536 -115 -676 -263 -94 -100 -147 -206 -184 -371 -20 -86 -24
-110 -35 -212 -24 -222 -36 -249 -119 -290 -77 -38 -163 -38 -266 -1 -77 28
-132 31 -181 8 -54 -25 -72 -41 -131 -114 -54 -66 -72 -104 -140 -288 -160
-438 -223 -804 -173 -1005 20 -81 57 -136 117 -177 119 -79 264 -76 398 9 164
105 262 285 263 483 1 115 -8 206 -28 302 -22 107 -20 125 14 142 22 12 51 14
117 11 49 -2 98 -6 109 -9 11 -2 54 -7 95 -11 41 -4 84 -10 95 -12 38 -9 401
-12 440 -3 22 5 56 12 75 15 157 27 422 168 560 296 84 79 169 148 200 164 76
40 135 28 391 -75 231 -93 396 -148 494 -164 139 -23 187 -27 310 -27 77 1
156 3 175 6 19 2 58 7 85 11 28 3 64 7 80 10 26 3 202 38 245 49 98 24 211 58
395 116 121 39 234 75 252 80 69 22 235 -1 453 -61 415 -114 592 -149 728
-144 134 5 204 37 246 114 78 145 45 290 -87 389 -91 68 -169 105 -427 200
-360 133 -434 184 -485 336 -59 172 92 413 340 542 261 136 365 354 280 587
-76 207 -199 331 -406 405 -31 11 -76 23 -100 26 -24 4 -46 8 -49 10 -14 9
-208 15 -640 20 -927 11 -1341 19 -1510 30 -160 10 -228 16 -251 20 -71 14
-90 18 -159 37 -41 11 -84 24 -95 29 -11 4 -85 30 -165 58 -80 27 -165 57
-190 66 -58 21 -180 54 -202 55 -9 0 -19 -4 -23 -9z m3223 -652 c9 -7 31 -28
49 -46 41 -42 124 -81 156 -75 17 4 5 -18 -20 -38 -99 -77 -240 -64 -306 29
-22 32 -39 43 -85 57 -31 9 -63 17 -69 17 -20 1 -16 5 21 22 122 58 207 69
254 34z"/>
</g>
</svg>
