<svg width="157" height="44" viewBox="0 0 157 44" fill="none" xmlns="http://www.w3.org/2000/svg">
  <g clip-path="url(#clip0)">
    <g opacity="0.822986">
      <path fill-rule="evenodd" clip-rule="evenodd" d="M0 12.653L45 6L32.422 44L0 12.653Z" stroke="white"/>
      <path fill-rule="evenodd" clip-rule="evenodd" d="M11 35L43 18.6529L16.9104 0L11 35Z" stroke="white"/>
      <path fill-rule="evenodd" clip-rule="evenodd" d="M31 31L27.4907 9L12 20.7247L31 31Z" stroke="white"/>
      <path fill-rule="evenodd" clip-rule="evenodd" d="M32 21.1009L18 19L21.9132 31L32 21.1009Z" stroke="white"/>
      <path fill-rule="evenodd" clip-rule="evenodd" d="M118.51 18.2863V16H116.175V18.2863H118.51ZM61.7391 32.3004C62.5178 32.3004 63.1847 32.0323 63.7398 31.496C64.2949 30.9597 64.5725 30.3105 64.5725 29.5484V23.9385H58.5381V26.246H62.215V29.2309C62.215 29.5414 62.1645 29.7495 62.0636 29.8554C61.9627 29.9612 61.7464 30.0142 61.4147 30.0142H52.1361C51.8189 30.0142 51.6062 29.9612 51.498 29.8554C51.3899 29.7495 51.3359 29.5414 51.3359 29.2309V20.128C51.3359 19.8175 51.3899 19.6094 51.498 19.5035C51.6062 19.3977 51.8189 19.3448 52.1361 19.3448H61.4147C61.7464 19.3448 61.9627 19.3977 62.0636 19.5035C62.1645 19.6094 62.215 19.8175 62.215 20.128V20.7208H64.5725V19.8105C64.5725 19.0484 64.2949 18.3992 63.7398 17.8629C63.1847 17.3267 62.5178 17.0585 61.7391 17.0585H51.8117C51.0331 17.0585 50.3698 17.3267 49.8218 17.8629C49.2739 18.3992 49 19.0484 49 19.8105V29.5484C49 30.3105 49.2739 30.9597 49.8218 31.496C50.3698 32.0323 51.0331 32.3004 51.8117 32.3004H61.7391ZM70.7946 32.3004V23.0917C70.7946 22.7812 70.8487 22.5731 70.9569 22.4673C71.065 22.3615 71.2777 22.3085 71.5949 22.3085H78.2781V20.0222H71.2704C70.4918 20.0222 69.8285 20.2904 69.2806 20.8266C68.7327 21.3629 68.4587 22.0122 68.4587 22.7742V32.3004H70.7946ZM94.1486 22.7742V32.3004H84.2001C83.4211 32.3004 82.7576 32.0323 82.2104 31.496C81.6623 30.9597 81.3883 30.3105 81.3883 29.5484V25.0182H91.791V23.0917C91.791 22.7812 91.741 22.5731 91.6402 22.4673C91.5394 22.3615 91.33 22.3085 91.0128 22.3085H81.3883V20.0222H91.3369C92.1158 20.0222 92.7794 20.2904 93.3266 20.8266C93.8746 21.3629 94.1486 22.0122 94.1486 22.7742ZM91.791 30.0142H84.5241C84.207 30.0142 83.9941 29.9612 83.8864 29.8554C83.7779 29.7495 83.7236 29.5414 83.7236 29.2309V27.1562H91.791V30.0142ZM112.915 20.0222L105.995 32.3004H103.659L96.7373 20.0222H99.4413L104.826 29.7178L110.212 20.0222H112.915ZM118.51 20.0222V32.3004H116.175V20.0222H118.51ZM130.089 32.3004V30.0142H125.742C125.425 30.0142 125.212 29.9612 125.104 29.8554C124.996 29.7495 124.941 29.5414 124.941 29.2309V22.3085H130.089V20.0222H124.941V16.1482H122.606V29.5484C122.606 30.3105 122.88 30.9597 123.427 31.496C123.975 32.0323 124.639 32.3004 125.418 32.3004H130.089ZM145.178 36.1956C144.63 36.7319 143.967 37 143.188 37H135.446V34.6926H142.864C143.181 34.6926 143.394 34.6397 143.502 34.5338C143.61 34.428 143.664 34.2198 143.664 33.9093V32.3004H136.051C135.272 32.3004 134.609 32.0323 134.061 31.496C133.513 30.9597 133.24 30.3105 133.24 29.5484V20.0645H135.575V29.2309C135.575 29.5414 135.629 29.7495 135.737 29.8554C135.845 29.9612 136.058 30.0142 136.375 30.0142H142.864C143.181 30.0142 143.394 29.9612 143.502 29.8554C143.61 29.7495 143.664 29.5414 143.664 29.2309V20.0645H146V34.2481C146 35.0101 145.726 35.6593 145.178 36.1956Z" fill="white"/>
    </g>
    <path d="M96.71 11C96.3767 11 96.0933 10.8833 95.86 10.65C95.6267 10.4167 95.51 10.1333 95.51 9.8V9.52H96.32V9.8C96.32 9.90667 96.3567 10 96.43 10.08C96.51 10.1533 96.6033 10.19 96.71 10.19H101.51C101.617 10.19 101.707 10.1533 101.78 10.08C101.86 10 101.9 9.90667 101.9 9.8V8.19C101.9 8.08333 101.86 7.99333 101.78 7.92C101.707 7.84667 101.617 7.81 101.51 7.81H96.71C96.3767 7.81 96.0933 7.69333 95.86 7.46C95.6267 7.22 95.51 6.93667 95.51 6.61V5C95.51 4.66667 95.6267 4.38333 95.86 4.15C96.0933 3.91667 96.3767 3.8 96.71 3.8H101.51C101.843 3.8 102.127 3.91667 102.36 4.15C102.593 4.38333 102.71 4.66667 102.71 5V5.28H101.9V5C101.9 4.89333 101.86 4.80333 101.78 4.73C101.707 4.65 101.617 4.61 101.51 4.61H96.71C96.6033 4.61 96.51 4.65 96.43 4.73C96.3567 4.80333 96.32 4.89333 96.32 5V6.61C96.32 6.71667 96.3567 6.80667 96.43 6.88C96.51 6.95333 96.6033 6.99 96.71 6.99H101.51C101.843 6.99 102.127 7.11 102.36 7.35C102.593 7.58333 102.71 7.86333 102.71 8.19V9.8C102.71 10.1333 102.593 10.4167 102.36 10.65C102.127 10.8833 101.843 11 101.51 11H96.71ZM112.063 11C111.729 11 111.446 10.8833 111.213 10.65C110.979 10.4167 110.863 10.1333 110.863 9.8V3.8H111.673V9.8C111.673 9.90667 111.709 10 111.783 10.08C111.863 10.1533 111.956 10.19 112.063 10.19H116.863C116.969 10.19 117.059 10.1533 117.133 10.08C117.213 10 117.253 9.90667 117.253 9.8V3.8H118.063V9.8C118.063 10.1333 117.946 10.4167 117.713 10.65C117.479 10.8833 117.196 11 116.863 11H112.063ZM127.414 11C127.081 11 126.797 10.8833 126.564 10.65C126.331 10.4167 126.214 10.1333 126.214 9.8V9.52H127.024V9.8C127.024 9.90667 127.061 10 127.134 10.08C127.214 10.1533 127.307 10.19 127.414 10.19H132.214C132.321 10.19 132.411 10.1533 132.484 10.08C132.564 10 132.604 9.90667 132.604 9.8V8.19C132.604 8.08333 132.564 7.99333 132.484 7.92C132.411 7.84667 132.321 7.81 132.214 7.81H127.414C127.081 7.81 126.797 7.69333 126.564 7.46C126.331 7.22 126.214 6.93667 126.214 6.61V5C126.214 4.66667 126.331 4.38333 126.564 4.15C126.797 3.91667 127.081 3.8 127.414 3.8H132.214C132.547 3.8 132.831 3.91667 133.064 4.15C133.297 4.38333 133.414 4.66667 133.414 5V5.28H132.604V5C132.604 4.89333 132.564 4.80333 132.484 4.73C132.411 4.65 132.321 4.61 132.214 4.61H127.414C127.307 4.61 127.214 4.65 127.134 4.73C127.061 4.80333 127.024 4.89333 127.024 5V6.61C127.024 6.71667 127.061 6.80667 127.134 6.88C127.214 6.95333 127.307 6.99 127.414 6.99H132.214C132.547 6.99 132.831 7.11 133.064 7.35C133.297 7.58333 133.414 7.86333 133.414 8.19V9.8C133.414 10.1333 133.297 10.4167 133.064 10.65C132.831 10.8833 132.547 11 132.214 11H127.414ZM144.409 11V8.29L141.099 3.8H142.029L144.819 7.32L147.579 3.8H148.529L145.219 8.29V11H144.409Z" fill="#FF8E1E"/>
  </g>
  <defs>
    <clipPath id="clip0">
      <rect width="157" height="44" fill="white"/>
    </clipPath>
  </defs>
</svg>
