<svg width="30" height="30" viewBox="0 0 30 30" fill="none" xmlns="http://www.w3.org/2000/svg">
<path d="M26.5721 6.58558L28.7895 4.46432V4H21.108L15.6335 17.6261L9.40516 4H1.35084V4.46432L3.94105 7.58253C4.19347 7.81295 4.32547 8.14989 4.29189 8.48916V20.7432C4.37179 21.1843 4.22821 21.6382 3.91789 21.9589L1 25.4952V25.9537H9.27316V25.4894L6.35526 21.9589C6.03916 21.6371 5.88979 21.1913 5.95347 20.7432V10.1438L13.2158 25.9595H14.0599L20.3044 10.1438V22.7428C20.3044 23.0752 20.3044 23.1435 20.0867 23.3612L17.8404 25.5345V26H28.7385V25.5357L26.5733 23.4156C26.3834 23.272 26.2849 23.0312 26.3255 22.7973V7.20389C26.2849 6.96884 26.3822 6.728 26.5721 6.58558Z" fill="#73979C"/>
</svg>
