<svg width="66" height="68" viewBox="0 0 66 68" fill="none" xmlns="http://www.w3.org/2000/svg">
<path fill-rule="evenodd" clip-rule="evenodd" d="M49.5053 28.9032C43.9549 28.6634 39.562 26.7663 36.3264 23.2121C31.473 17.8806 30.9512 13.9148 30.9512 13.4456C30.9512 12.4721 35.604 16.5495 38.3178 17.8134C41.0317 19.0773 51.9006 21.9944 59.9121 24.3341C65.4528 25.9522 65.8496 29.5845 65.8496 31.3984C65.8496 33.834 63.678 35.4983 61.6476 35.8207C59.6173 36.1431 55.7844 38.3038 57.123 41.5512C58.4616 44.7985 67.7353 47.3345 64.3255 51.9308C61.8665 55.2454 53.5939 47.4074 50.6941 47.4074C47.7943 47.4074 43.0057 48.2199 37.7377 46.8251C32.4698 45.4303 29.2611 40.9791 27.5408 40.9791C25.8206 40.9791 24.7661 42.7716 20.3729 43.4961C15.9797 44.2205 11.0148 40.9791 9.72288 40.9791C8.43097 40.9791 9.37289 41.6935 8.42795 45.4216C7.48302 49.1497 2.69743 51.4198 0.4468 48.2535C-1.80383 45.0873 5.15899 35.6817 5.71304 35.1348C6.26709 34.5879 7.93116 33.0788 9.24158 34.0013C10.552 34.9239 11.5333 35.4759 12.9921 34.8017C14.4508 34.1275 14.4508 25.8305 22.4192 26.1987C30.3877 26.5669 34.9908 30.5801 41.0317 31.103C45.0589 31.4516 47.8835 30.7183 49.5053 28.9032Z" fill="url(#paint0_linear)"/>
<path fill-rule="evenodd" clip-rule="evenodd" d="M64.3258 51.9305C61.8668 55.2451 53.5942 47.4071 50.6944 47.4071C47.7946 47.4071 43.006 48.2197 37.738 46.8249C32.4701 45.4301 29.2614 40.9788 27.5411 40.9788C25.8209 40.9788 24.7664 42.7714 20.3732 43.4958C15.98 44.2202 11.5336 35.4757 12.9923 34.8015C14.4511 34.1273 14.4511 25.8302 22.4195 26.1984C30.388 26.5666 34.991 30.5799 41.032 31.1027C47.0729 31.6256 67.7356 47.3343 64.3258 51.9305Z" fill="url(#paint1_linear)"/>
<path fill-rule="evenodd" clip-rule="evenodd" d="M61.9531 29.9272C61.6539 29.8291 61.3237 29.6459 60.9623 29.3774C60.4202 28.9747 60.3305 28.1456 59.5559 28.0278C58.7814 27.9101 57.6078 28.139 57.3163 28.139C57.0248 28.139 58.4626 28.5837 58.6154 28.9992C58.7682 29.4147 59.0037 30.0267 60.0835 30.25C60.8035 30.3989 61.4267 30.2913 61.9531 29.9272Z" fill="white"/>
<path fill-rule="evenodd" clip-rule="evenodd" d="M11.3773 1.41166C13.4853 0.519226 23.429 14.45 33.5874 32.5276C43.7459 50.6051 50.2722 65.9837 48.1647 66.8772C46.0567 67.7697 36.113 53.8389 25.9546 35.7613C15.7961 17.6838 9.26978 2.3052 11.3773 1.41166ZM13.3009 5.15976C11.9837 5.71811 18.5784 19.8066 27.574 35.8149C36.5697 51.8231 45.3002 65.0067 46.6177 64.4489C47.9349 63.8905 41.3402 49.802 32.3446 33.7938C23.3489 17.7855 14.6184 4.60187 13.3009 5.15976Z" fill="#72ACAC"/>
<path fill-rule="evenodd" clip-rule="evenodd" d="M10.9626 2.0503C11.2612 1.92483 12.2292 3.09118 13.6668 5.19155C13.5217 5.11659 13.4057 5.09583 13.3204 5.13165C11.9913 5.69046 18.6428 19.7841 27.7163 35.7981C36.0885 50.5743 44.2334 62.9446 46.4867 64.3299C47.0584 65.752 47.2743 66.5919 47.0447 66.6884C44.9178 67.5818 36.3288 53.8287 26.0824 35.7447C15.836 17.6608 8.83592 2.94399 10.9626 2.0503Z" fill="#BFD7D7"/>
<path fill-rule="evenodd" clip-rule="evenodd" d="M26.7206 41.2222C25.0018 41.1903 23.9189 42.9642 19.5176 43.6074C15.1163 44.2507 10.8164 35.4188 12.2849 34.7713C13.7534 34.1238 13.603 26.1872 21.5797 26.1872C22.6855 26.1872 23.5306 26.2283 24.2288 26.3106C24.6462 26.3598 26.367 26.6145 27.2089 27.8405C29.5383 31.2327 32.9118 40.7912 33.354 43.6074C33.7963 46.4236 29.3725 41.8528 29.1847 41.7738C28.0824 41.3104 27.0415 41.2282 26.7206 41.2222Z" fill="url(#paint2_linear)"/>
<path fill-rule="evenodd" clip-rule="evenodd" d="M4.75778 62.3905C4.34019 62.5307 3.85455 62.6007 3.30089 62.6007C2.85045 62.6007 2.44927 62.5517 2.09737 62.4536C1.74546 62.3555 1.43461 62.213 1.16481 62.0262C0.895017 61.8394 0.663931 61.6117 0.471555 61.3431C0.279179 61.0745 0.121994 60.7674 0 60.4217L0.837538 60.0784C0.936072 60.382 1.06862 60.6529 1.23519 60.8912C1.40176 61.1294 1.59531 61.3314 1.81584 61.4972C2.03637 61.663 2.28153 61.7903 2.55133 61.8791C2.82112 61.9678 3.10851 62.0122 3.4135 62.0122C3.64341 62.0122 3.87098 61.9807 4.0962 61.9176C4.32142 61.8546 4.52318 61.7611 4.70148 61.6374C4.87978 61.5136 5.02289 61.3618 5.1308 61.1819C5.23872 61.0021 5.29268 60.7931 5.29268 60.5549C5.29268 60.2699 5.21878 60.0165 5.07098 59.7947C4.92318 59.5728 4.72963 59.3696 4.49033 59.1851C4.25104 59.0006 3.97772 58.8266 3.67039 58.6631C3.36306 58.4996 3.04986 58.3362 2.7308 58.1727C2.41174 58.0092 2.09854 57.8375 1.79121 57.6577C1.48387 57.4779 1.21056 57.277 0.971263 57.0551C0.731966 56.8333 0.538418 56.5857 0.390617 56.3125C0.242816 56.0392 0.168915 55.7251 0.168915 55.3701C0.168915 55.0151 0.235778 54.6858 0.369502 54.3822C0.503227 54.0786 0.699122 53.8158 0.957187 53.594C1.21525 53.3721 1.53314 53.1981 1.91085 53.072C2.28857 52.9459 2.72141 52.8828 3.20939 52.8828C3.65045 52.8828 4.04458 52.9295 4.3918 53.0229C4.73901 53.1164 5.044 53.2542 5.30676 53.4363C5.56951 53.6185 5.79239 53.8427 5.97538 54.1089C6.15837 54.3752 6.30617 54.6835 6.41878 55.0338L5.61643 55.3981C5.52259 55.1132 5.40294 54.8528 5.25749 54.6169C5.11203 54.381 4.93843 54.179 4.73667 54.0108C4.53491 53.8427 4.30148 53.7131 4.03637 53.622C3.77127 53.5309 3.47215 53.4854 3.13901 53.4854C2.84341 53.4854 2.58534 53.5262 2.36481 53.608C2.14429 53.6897 1.96012 53.7972 1.81232 53.9303C1.66452 54.0634 1.55426 54.2129 1.48153 54.3787C1.4088 54.5445 1.37244 54.7138 1.37244 54.8867C1.37244 55.1295 1.44751 55.3526 1.59766 55.5558C1.7478 55.759 1.94722 55.9505 2.1959 56.1303C2.44458 56.3101 2.72728 56.4841 3.04399 56.6523C3.36071 56.8204 3.68329 56.9909 4.01174 57.1637C4.34019 57.3366 4.66277 57.5164 4.97948 57.7032C5.2962 57.8901 5.5789 58.0944 5.82758 58.3163C6.07626 58.5382 6.27567 58.7811 6.42582 59.045C6.57597 59.3089 6.65104 59.6043 6.65104 59.9313C6.65104 60.3003 6.58066 60.6471 6.4399 60.9717C6.29913 61.2964 6.08799 61.579 5.80646 61.8195C5.52494 62.0601 5.17538 62.2504 4.75778 62.3905ZM11.7819 62.4185C11.5472 62.4979 11.3244 62.5376 11.1132 62.5376C10.7989 62.5376 10.5033 62.4793 10.2264 62.3625C9.94959 62.2457 9.70795 62.0869 9.50149 61.886C9.29504 61.6852 9.13199 61.4493 9.01234 61.1784C8.8927 60.9075 8.83287 60.6202 8.83287 60.3166V55.2089H10.2687V60.3166C10.2687 60.4941 10.3097 60.6623 10.3918 60.8211C10.4739 60.9799 10.5877 61.1177 10.7332 61.2345C10.8786 61.3512 11.0464 61.4435 11.2364 61.5112C11.4264 61.5789 11.6317 61.6128 11.8522 61.6128C11.993 61.6128 12.1443 61.5824 12.3062 61.5217C12.4681 61.461 12.6264 61.3781 12.7813 61.273C12.9361 61.1679 13.0804 61.0441 13.2141 60.9016C13.3478 60.7592 13.4616 60.6085 13.5555 60.4497V55.2089H14.9772V62.3835H13.5555V61.0383C13.4288 61.2438 13.2704 61.4376 13.0804 61.6198C12.8904 61.802 12.6851 61.9608 12.4646 62.0962C12.244 62.2317 12.0165 62.3391 11.7819 62.4185ZM20.4528 62.6007C21.0065 62.6007 21.4921 62.5307 21.9097 62.3905C22.3273 62.2504 22.6769 62.0601 22.9584 61.8195C23.2399 61.579 23.4511 61.2964 23.5918 60.9717C23.7326 60.6471 23.803 60.3003 23.803 59.9313C23.803 59.6043 23.7279 59.3089 23.5778 59.045C23.4276 58.7811 23.2282 58.5382 22.9795 58.3163C22.7308 58.0944 22.4481 57.8901 22.1314 57.7032C21.8147 57.5164 21.4921 57.3366 21.1637 57.1637C20.8352 56.9909 20.5126 56.8204 20.1959 56.6523C19.8792 56.4841 19.5965 56.3101 19.3478 56.1303C19.0991 55.9505 18.8997 55.759 18.7496 55.5558C18.5994 55.3526 18.5244 55.1295 18.5244 54.8867C18.5244 54.7138 18.5607 54.5445 18.6335 54.3787C18.7062 54.2129 18.8165 54.0634 18.9643 53.9303C19.1121 53.7972 19.2962 53.6897 19.5167 53.608C19.7373 53.5262 19.9953 53.4854 20.2909 53.4854C20.6241 53.4854 20.9232 53.5309 21.1883 53.622C21.4534 53.7131 21.6868 53.8427 21.8886 54.0108C22.0904 54.179 22.264 54.381 22.4094 54.6169C22.5549 54.8528 22.6745 55.1132 22.7684 55.3981L23.5707 55.0338C23.4581 54.6835 23.3103 54.3752 23.1273 54.1089C22.9443 53.8427 22.7214 53.6185 22.4587 53.4363C22.1959 53.2542 21.8909 53.1164 21.5437 53.0229C21.1965 52.9295 20.8024 52.8828 20.3613 52.8828C19.8733 52.8828 19.4405 52.9459 19.0628 53.072C18.6851 53.1981 18.3672 53.3721 18.1091 53.594C17.8511 53.8158 17.6552 54.0786 17.5214 54.3822C17.3877 54.6858 17.3208 55.0151 17.3208 55.3701C17.3208 55.7251 17.3947 56.0392 17.5425 56.3125C17.6903 56.5857 17.8839 56.8333 18.1232 57.0551C18.3625 57.277 18.6358 57.4779 18.9431 57.6577C19.2505 57.8375 19.5637 58.0092 19.8827 58.1727C20.2018 58.3362 20.515 58.4996 20.8223 58.6631C21.1297 58.8266 21.403 59.0006 21.6423 59.1851C21.8816 59.3696 22.0751 59.5728 22.2229 59.7947C22.3707 60.0165 22.4446 60.2699 22.4446 60.5549C22.4446 60.7931 22.3907 61.0021 22.2827 61.1819C22.1748 61.3618 22.0317 61.5136 21.8534 61.6374C21.6751 61.7611 21.4733 61.8546 21.2481 61.9176C21.0229 61.9807 20.7953 62.0122 20.5654 62.0122C20.2604 62.0122 19.9731 61.9678 19.7033 61.8791C19.4335 61.7903 19.1883 61.663 18.9678 61.4972C18.7472 61.3314 18.5537 61.1294 18.3871 60.8912C18.2206 60.6529 18.088 60.382 17.9895 60.0784L17.1519 60.4217C17.2739 60.7674 17.4311 61.0745 17.6235 61.3431C17.8159 61.6117 18.0469 61.8394 18.3167 62.0262C18.5865 62.213 18.8974 62.3555 19.2493 62.4536C19.6012 62.5517 20.0024 62.6007 20.4528 62.6007ZM26.7238 65.5679C26.4845 65.6497 26.2523 65.6905 26.027 65.6905C25.8581 65.6905 25.6939 65.6649 25.5344 65.6135C25.3748 65.5621 25.2411 65.4944 25.1332 65.4103L25.7314 64.0791C25.7877 64.1024 25.8499 64.1328 25.9179 64.1701C25.986 64.2075 26.0611 64.2437 26.1432 64.2787C26.2253 64.3138 26.3156 64.343 26.4141 64.3663C26.5127 64.3897 26.6229 64.4014 26.7449 64.4014C26.8951 64.4014 27.0358 64.3593 27.1672 64.2752C27.2986 64.1912 27.4182 64.0861 27.5262 63.96C27.6341 63.8338 27.7303 63.696 27.8147 63.5466C27.8992 63.3971 27.9696 63.257 28.0259 63.1262L28.5115 62.0472L24.8305 55.2089H26.4564L29.2294 60.3937L31.5027 55.2089H32.2699L28.5889 63.6447C28.4341 63.995 28.2569 64.2986 28.0575 64.5555C27.8581 64.8124 27.6458 65.0249 27.4206 65.1931C27.1954 65.3612 26.9631 65.4862 26.7238 65.5679Z" fill="#FF0097"/>
<defs>
<linearGradient id="paint0_linear" x1="65.8496" y1="13.2969" x2="65.8496" y2="52.7481" gradientUnits="userSpaceOnUse">
<stop stop-color="#FFA9DC"/>
<stop offset="1" stop-color="#FF0097"/>
</linearGradient>
<linearGradient id="paint1_linear" x1="64.7031" y1="26.1865" x2="64.7031" y2="52.7478" gradientUnits="userSpaceOnUse">
<stop stop-color="#FFA9DC"/>
<stop offset="1" stop-color="#FF0097"/>
</linearGradient>
<linearGradient id="paint2_linear" x1="33.6934" y1="26.3916" x2="33.3782" y2="44.5302" gradientUnits="userSpaceOnUse">
<stop stop-color="#FFA9DC"/>
<stop offset="1" stop-color="#FF0097"/>
</linearGradient>
</defs>
</svg>
