<svg width="68" height="92" viewBox="0 0 68 92" fill="none" xmlns="http://www.w3.org/2000/svg">
<path fill-rule="evenodd" clip-rule="evenodd" d="M50.505 28.9033C44.9546 28.6635 40.5617 26.7664 37.3261 23.2121C32.4727 17.8807 31.9509 13.9149 31.9509 13.4456C31.9509 12.4722 36.6037 16.5495 39.3175 17.8134C42.0314 19.0773 52.9003 21.9945 60.9118 24.3342C66.4524 25.9523 66.8493 29.5845 66.8493 31.3984C66.8493 33.8341 64.6777 35.4983 62.6473 35.8207C60.617 36.1432 56.7841 38.3039 58.1227 41.5512C59.4613 44.7986 68.735 47.3346 65.3252 51.9308C62.8662 55.2454 54.5936 47.4074 51.6938 47.4074C48.794 47.4074 44.0054 48.22 38.7374 46.8252C33.4695 45.4304 30.2608 40.9792 28.5405 40.9792C26.8203 40.9792 25.7658 42.7717 21.3726 43.4961C16.9794 44.2205 12.0145 40.9792 10.7226 40.9792C9.43065 40.9792 10.3726 41.6936 9.42764 45.4217C8.4827 49.1498 3.69711 51.4199 1.44649 48.2536C-0.804138 45.0873 6.15868 35.6818 6.71273 35.1348C7.26677 34.5879 8.93085 33.0788 10.2413 34.0014C11.5517 34.9239 12.533 35.476 13.9917 34.8018C15.4505 34.1276 15.4505 25.8306 23.4189 26.1987C31.3874 26.5669 35.9904 30.5802 42.0314 31.1031C46.0586 31.4517 48.8832 30.7184 50.505 28.9033Z" fill="url(#paint0_linear)"/>
<path fill-rule="evenodd" clip-rule="evenodd" d="M65.3252 51.9309C62.8662 55.2455 54.5936 47.4075 51.6938 47.4075C48.794 47.4075 44.0054 48.22 38.7374 46.8253C33.4695 45.4305 30.2608 40.9792 28.5405 40.9792C26.8203 40.9792 25.7658 42.7718 21.3726 43.4962C16.9794 44.2206 12.533 35.476 13.9917 34.8018C15.4505 34.1276 15.4505 25.8306 23.4189 26.1988C31.3874 26.567 35.9904 30.5802 42.0314 31.1031C48.0723 31.626 68.735 47.3346 65.3252 51.9309Z" fill="url(#paint1_linear)"/>
<path fill-rule="evenodd" clip-rule="evenodd" d="M62.9529 29.9276C62.6537 29.8295 62.3234 29.6462 61.962 29.3778C61.4199 28.9751 61.3302 28.1459 60.5556 28.0282C59.7811 27.9104 58.6075 28.1394 58.316 28.1394C58.0246 28.1394 59.4623 28.5841 59.6151 28.9996C59.7679 29.4151 60.0034 30.027 61.0833 30.2504C61.8032 30.3992 62.4264 30.2916 62.9529 29.9276Z" fill="white"/>
<path fill-rule="evenodd" clip-rule="evenodd" d="M12.3766 1.41112C14.4846 0.518691 24.4283 14.4495 34.5868 32.527C44.7452 50.6045 51.2715 65.9832 49.164 66.8767C47.056 67.7691 37.1123 53.8383 26.9539 35.7608C16.7954 17.6833 10.2691 2.30466 12.3766 1.41112ZM14.3002 5.15922C12.983 5.71757 19.5777 19.8061 28.5733 35.8143C37.569 51.8226 46.2995 65.0062 47.617 64.4483C48.9342 63.89 42.3395 49.8015 33.3439 33.7932C24.3482 17.7849 15.6177 4.60134 14.3002 5.15922Z" fill="#72ACAC"/>
<path fill-rule="evenodd" clip-rule="evenodd" d="M11.9622 2.05049C12.2608 1.92501 13.2288 3.09136 14.6663 5.19173C14.5213 5.11677 14.4052 5.09601 14.32 5.13183C12.9909 5.69064 19.6423 19.7843 28.7159 35.7983C37.0881 50.5745 45.233 62.9448 47.4863 64.3301C48.058 65.7522 48.2739 66.5921 48.0442 66.6886C45.9174 67.582 37.3284 53.8289 27.082 35.7449C16.8356 17.661 9.83549 2.94417 11.9622 2.05049Z" fill="#BFD7D7"/>
<path fill-rule="evenodd" clip-rule="evenodd" d="M27.7202 41.2218C26.0014 41.1898 24.9185 42.9637 20.5172 43.607C16.1159 44.2502 11.816 35.4184 13.2845 34.7709C14.753 34.1234 14.6026 26.1868 22.5793 26.1868C23.6851 26.1868 24.5302 26.2279 25.2285 26.3101C25.6458 26.3593 27.3666 26.6141 28.2085 27.8401C30.5379 31.2322 33.9114 40.7908 34.3536 43.607C34.7959 46.4232 30.3721 41.8523 30.1843 41.7734C29.082 41.3099 28.0411 41.2277 27.7202 41.2218Z" fill="url(#paint2_linear)"/>
<path fill-rule="evenodd" clip-rule="evenodd" d="M5.75778 62.3904C5.34019 62.5305 4.85455 62.6006 4.30089 62.6006C3.85045 62.6006 3.44927 62.5516 3.09737 62.4535C2.74546 62.3554 2.43461 62.2129 2.16481 62.0261C1.89502 61.8392 1.66393 61.6115 1.47156 61.3429C1.27918 61.0744 1.12199 60.7672 1 60.4216L1.83754 60.0783C1.93607 60.3819 2.06862 60.6528 2.23519 60.891C2.40176 61.1292 2.59531 61.3313 2.81584 61.4971C3.03637 61.6629 3.28153 61.7902 3.55133 61.8789C3.82112 61.9677 4.10851 62.0121 4.4135 62.0121C4.64341 62.0121 4.87098 61.9805 5.0962 61.9175C5.32142 61.8544 5.52318 61.761 5.70148 61.6372C5.87978 61.5134 6.02289 61.3616 6.1308 61.1818C6.23872 61.002 6.29268 60.7929 6.29268 60.5547C6.29268 60.2698 6.21878 60.0164 6.07098 59.7945C5.92318 59.5726 5.72963 59.3695 5.49033 59.185C5.25104 59.0005 4.97772 58.8265 4.67039 58.663C4.36306 58.4995 4.04986 58.336 3.7308 58.1725C3.41174 58.009 3.09854 57.8374 2.79121 57.6576C2.48387 57.4777 2.21056 57.2769 1.97126 57.055C1.73197 56.8331 1.53842 56.5856 1.39062 56.3123C1.24282 56.0391 1.16892 55.7249 1.16892 55.37C1.16892 55.015 1.23578 54.6857 1.3695 54.382C1.50323 54.0784 1.69912 53.8157 1.95719 53.5938C2.21525 53.372 2.53314 53.198 2.91085 53.0718C3.28857 52.9457 3.72141 52.8827 4.20939 52.8827C4.65045 52.8827 5.04458 52.9294 5.3918 53.0228C5.73901 53.1162 6.044 53.254 6.30676 53.4362C6.56951 53.6183 6.79239 53.8426 6.97538 54.1088C7.15837 54.375 7.30617 54.6833 7.41878 55.0336L6.61643 55.398C6.52259 55.1131 6.40294 54.8526 6.25749 54.6168C6.11203 54.3809 5.93843 54.1789 5.73667 54.0107C5.53491 53.8426 5.30148 53.7129 5.03637 53.6219C4.77127 53.5308 4.47215 53.4852 4.13901 53.4852C3.84341 53.4852 3.58534 53.5261 3.36481 53.6078C3.14429 53.6896 2.96012 53.797 2.81232 53.9301C2.66452 54.0633 2.55426 54.2127 2.48153 54.3785C2.4088 54.5444 2.37244 54.7137 2.37244 54.8865C2.37244 55.1294 2.44751 55.3524 2.59766 55.5556C2.7478 55.7588 2.94722 55.9503 3.1959 56.1302C3.44458 56.31 3.72728 56.484 4.04399 56.6521C4.36071 56.8203 4.68329 56.9908 5.01174 57.1636C5.34019 57.3364 5.66277 57.5163 5.97948 57.7031C6.2962 57.8899 6.5789 58.0943 6.82758 58.3162C7.07626 58.538 7.27567 58.7809 7.42582 59.0448C7.57597 59.3087 7.65104 59.6042 7.65104 59.9311C7.65104 60.3002 7.58066 60.647 7.4399 60.9716C7.29913 61.2962 7.08799 61.5788 6.80646 61.8194C6.52494 62.0599 6.17538 62.2503 5.75778 62.3904ZM12.7819 62.4184C12.5472 62.4978 12.3244 62.5375 12.1132 62.5375C11.7989 62.5375 11.5033 62.4791 11.2264 62.3623C10.9496 62.2456 10.7079 62.0868 10.5015 61.8859C10.295 61.6851 10.132 61.4492 10.0123 61.1783C9.8927 60.9073 9.83287 60.6201 9.83287 60.3165V55.2088H11.2687V60.3165C11.2687 60.494 11.3097 60.6621 11.3918 60.8209C11.4739 60.9797 11.5877 61.1175 11.7332 61.2343C11.8786 61.3511 12.0464 61.4433 12.2364 61.5111C12.4264 61.5788 12.6317 61.6127 12.8522 61.6127C12.993 61.6127 13.1443 61.5823 13.3062 61.5216C13.4681 61.4609 13.6264 61.3779 13.7813 61.2728C13.9361 61.1677 14.0804 61.044 14.2141 60.9015C14.3478 60.759 14.4616 60.6084 14.5555 60.4496V55.2088H15.9772V62.3834H14.5555V61.0381C14.4288 61.2437 14.2704 61.4375 14.0804 61.6197C13.8904 61.8018 13.6851 61.9606 13.4646 62.0961C13.244 62.2316 13.0165 62.339 12.7819 62.4184ZM21.4528 62.6006C22.0065 62.6006 22.4921 62.5305 22.9097 62.3904C23.3273 62.2503 23.6769 62.0599 23.9584 61.8194C24.2399 61.5788 24.4511 61.2962 24.5918 60.9716C24.7326 60.647 24.803 60.3002 24.803 59.9311C24.803 59.6042 24.7279 59.3087 24.5778 59.0448C24.4276 58.7809 24.2282 58.538 23.9795 58.3162C23.7308 58.0943 23.4481 57.8899 23.1314 57.7031C22.8147 57.5163 22.4921 57.3364 22.1637 57.1636C21.8352 56.9908 21.5126 56.8203 21.1959 56.6521C20.8792 56.484 20.5965 56.31 20.3478 56.1302C20.0991 55.9503 19.8997 55.7588 19.7496 55.5556C19.5994 55.3524 19.5244 55.1294 19.5244 54.8865C19.5244 54.7137 19.5607 54.5444 19.6335 54.3785C19.7062 54.2127 19.8165 54.0633 19.9643 53.9301C20.1121 53.797 20.2962 53.6896 20.5167 53.6078C20.7373 53.5261 20.9953 53.4852 21.2909 53.4852C21.6241 53.4852 21.9232 53.5308 22.1883 53.6219C22.4534 53.7129 22.6868 53.8426 22.8886 54.0107C23.0904 54.1789 23.264 54.3809 23.4094 54.6168C23.5549 54.8526 23.6745 55.1131 23.7684 55.398L24.5707 55.0336C24.4581 54.6833 24.3103 54.375 24.1273 54.1088C23.9443 53.8426 23.7214 53.6183 23.4587 53.4362C23.1959 53.254 22.8909 53.1162 22.5437 53.0228C22.1965 52.9294 21.8024 52.8827 21.3613 52.8827C20.8733 52.8827 20.4405 52.9457 20.0628 53.0718C19.6851 53.198 19.3672 53.372 19.1091 53.5938C18.8511 53.8157 18.6552 54.0784 18.5214 54.382C18.3877 54.6857 18.3208 55.015 18.3208 55.37C18.3208 55.7249 18.3947 56.0391 18.5425 56.3123C18.6903 56.5856 18.8839 56.8331 19.1232 57.055C19.3625 57.2769 19.6358 57.4777 19.9431 57.6576C20.2505 57.8374 20.5637 58.009 20.8827 58.1725C21.2018 58.336 21.515 58.4995 21.8223 58.663C22.1297 58.8265 22.403 59.0005 22.6423 59.185C22.8816 59.3695 23.0751 59.5726 23.2229 59.7945C23.3707 60.0164 23.4446 60.2698 23.4446 60.5547C23.4446 60.7929 23.3907 61.002 23.2827 61.1818C23.1748 61.3616 23.0317 61.5134 22.8534 61.6372C22.6751 61.761 22.4733 61.8544 22.2481 61.9175C22.0229 61.9805 21.7953 62.0121 21.5654 62.0121C21.2604 62.0121 20.9731 61.9677 20.7033 61.8789C20.4335 61.7902 20.1883 61.6629 19.9678 61.4971C19.7472 61.3313 19.5537 61.1292 19.3871 60.891C19.2206 60.6528 19.088 60.3819 18.9895 60.0783L18.1519 60.4216C18.2739 60.7672 18.4311 61.0744 18.6235 61.3429C18.8159 61.6115 19.0469 61.8392 19.3167 62.0261C19.5865 62.2129 19.8974 62.3554 20.2493 62.4535C20.6012 62.5516 21.0024 62.6006 21.4528 62.6006ZM27.7238 65.5678C27.4845 65.6495 27.2523 65.6904 27.027 65.6904C26.8581 65.6904 26.6939 65.6647 26.5344 65.6133C26.3748 65.5619 26.2411 65.4942 26.1332 65.4101L26.7314 64.0789C26.7877 64.1023 26.8499 64.1326 26.9179 64.17C26.986 64.2074 27.0611 64.2436 27.1432 64.2786C27.2253 64.3136 27.3156 64.3428 27.4141 64.3662C27.5127 64.3895 27.6229 64.4012 27.7449 64.4012C27.8951 64.4012 28.0358 64.3592 28.1672 64.2751C28.2986 64.191 28.4182 64.0859 28.5262 63.9598C28.6341 63.8337 28.7303 63.6959 28.8147 63.5464C28.8992 63.397 28.9696 63.2568 29.0259 63.126L29.5115 62.0471L25.8305 55.2088H27.4564L30.2294 60.3935L32.5027 55.2088H33.2699L29.5889 63.6445C29.4341 63.9948 29.2569 64.2985 29.0575 64.5554C28.8581 64.8123 28.6458 65.0248 28.4206 65.1929C28.1954 65.3611 27.9631 65.486 27.7238 65.5678Z" fill="#FF0097"/>
<path fill-rule="evenodd" clip-rule="evenodd" d="M1 81C1 76.5817 4.58172 73 9 73H59C63.4183 73 67 76.5817 67 81V83C67 87.4183 63.4183 91 59 91H9C4.58172 91 1 87.4183 1 83V81Z" stroke="#FF1EA3" stroke-width="0.5"/>
<path d="M19.55 82.39C20.01 82.49 20.3633 82.69 20.61 82.99C20.8633 83.2833 20.99 83.6633 20.99 84.13C20.99 84.73 20.7667 85.1933 20.32 85.52C19.88 85.84 19.2267 86 18.36 86H15.14V79H18.16C18.94 79 19.5433 79.1567 19.97 79.47C20.4033 79.7833 20.62 80.2267 20.62 80.8C20.62 81.1867 20.5233 81.5167 20.33 81.79C20.1433 82.0567 19.8833 82.2567 19.55 82.39ZM15.88 79.61V82.15H18.11C18.6767 82.15 19.1133 82.0433 19.42 81.83C19.7267 81.61 19.88 81.2933 19.88 80.88C19.88 80.4667 19.7267 80.1533 19.42 79.94C19.1133 79.72 18.6767 79.61 18.11 79.61H15.88ZM18.35 85.39C18.9767 85.39 19.45 85.2833 19.77 85.07C20.09 84.8567 20.25 84.5233 20.25 84.07C20.25 83.1967 19.6167 82.76 18.35 82.76H15.88V85.39H18.35ZM27.1091 83.59H22.7091C22.7491 84.1367 22.9591 84.58 23.3391 84.92C23.7191 85.2533 24.1991 85.42 24.7791 85.42C25.1057 85.42 25.4057 85.3633 25.6791 85.25C25.9524 85.13 26.1891 84.9567 26.3891 84.73L26.7891 85.19C26.5557 85.47 26.2624 85.6833 25.9091 85.83C25.5624 85.9767 25.1791 86.05 24.7591 86.05C24.2191 86.05 23.7391 85.9367 23.3191 85.71C22.9057 85.4767 22.5824 85.1567 22.3491 84.75C22.1157 84.3433 21.9991 83.8833 21.9991 83.37C21.9991 82.8567 22.1091 82.3967 22.3291 81.99C22.5557 81.5833 22.8624 81.2667 23.2491 81.04C23.6424 80.8133 24.0824 80.7 24.5691 80.7C25.0557 80.7 25.4924 80.8133 25.8791 81.04C26.2657 81.2667 26.5691 81.5833 26.7891 81.99C27.0091 82.39 27.1191 82.85 27.1191 83.37L27.1091 83.59ZM24.5691 81.31C24.0624 81.31 23.6357 81.4733 23.2891 81.8C22.9491 82.12 22.7557 82.54 22.7091 83.06H26.4391C26.3924 82.54 26.1957 82.12 25.8491 81.8C25.5091 81.4733 25.0824 81.31 24.5691 81.31ZM31.3342 85.68C31.2009 85.8 31.0342 85.8933 30.8342 85.96C30.6409 86.02 30.4376 86.05 30.2242 86.05C29.7309 86.05 29.3509 85.9167 29.0842 85.65C28.8176 85.3833 28.6842 85.0067 28.6842 84.52V81.34H27.7442V80.74H28.6842V79.59H29.3942V80.74H30.9942V81.34H29.3942V84.48C29.3942 84.7933 29.4709 85.0333 29.6242 85.2C29.7842 85.36 30.0109 85.44 30.3042 85.44C30.4509 85.44 30.5909 85.4167 30.7242 85.37C30.8642 85.3233 30.9842 85.2567 31.0842 85.17L31.3342 85.68ZM34.4667 80.7C35.1534 80.7 35.6801 80.8733 36.0467 81.22C36.4134 81.56 36.5967 82.0667 36.5967 82.74V86H35.9167V85.18C35.7567 85.4533 35.5201 85.6667 35.2067 85.82C34.9001 85.9733 34.5334 86.05 34.1067 86.05C33.5201 86.05 33.0534 85.91 32.7067 85.63C32.3601 85.35 32.1867 84.98 32.1867 84.52C32.1867 84.0733 32.3467 83.7133 32.6667 83.44C32.9934 83.1667 33.5101 83.03 34.2167 83.03H35.8867V82.71C35.8867 82.2567 35.7601 81.9133 35.5067 81.68C35.2534 81.44 34.8834 81.32 34.3967 81.32C34.0634 81.32 33.7434 81.3767 33.4367 81.49C33.1301 81.5967 32.8667 81.7467 32.6467 81.94L32.3267 81.41C32.5934 81.1833 32.9134 81.01 33.2867 80.89C33.6601 80.7633 34.0534 80.7 34.4667 80.7ZM34.2167 85.49C34.6167 85.49 34.9601 85.4 35.2467 85.22C35.5334 85.0333 35.7467 84.7667 35.8867 84.42V83.56H34.2367C33.3367 83.56 32.8867 83.8733 32.8867 84.5C32.8867 84.8067 33.0034 85.05 33.2367 85.23C33.4701 85.4033 33.7967 85.49 34.2167 85.49Z" fill="#5B8A8A"/>
<path d="M47.4923 79L44.4423 86H43.1623L40.1023 79H41.5123L43.8423 84.4L46.1923 79H47.4923ZM52.9475 84.9V86H47.7875V85.13L50.5675 82.49C50.8808 82.19 51.0908 81.93 51.1975 81.71C51.3108 81.4833 51.3675 81.26 51.3675 81.04C51.3675 80.7133 51.2575 80.4633 51.0375 80.29C50.8175 80.1167 50.4942 80.03 50.0675 80.03C49.3542 80.03 48.8075 80.2733 48.4275 80.76L47.5175 80.06C47.7908 79.6933 48.1575 79.41 48.6175 79.21C49.0842 79.0033 49.6042 78.9 50.1775 78.9C50.9375 78.9 51.5442 79.08 51.9975 79.44C52.4508 79.8 52.6775 80.29 52.6775 80.91C52.6775 81.29 52.5975 81.6467 52.4375 81.98C52.2775 82.3133 51.9708 82.6933 51.5175 83.12L49.6475 84.9H52.9475Z" fill="#FF0097"/>
<defs>
<linearGradient id="paint0_linear" x1="66.8493" y1="13.2969" x2="66.8493" y2="52.7481" gradientUnits="userSpaceOnUse">
<stop stop-color="#FFA9DC"/>
<stop offset="1" stop-color="#FF0097"/>
</linearGradient>
<linearGradient id="paint1_linear" x1="65.7025" y1="26.1869" x2="65.7025" y2="52.7482" gradientUnits="userSpaceOnUse">
<stop stop-color="#FFA9DC"/>
<stop offset="1" stop-color="#FF0097"/>
</linearGradient>
<linearGradient id="paint2_linear" x1="34.693" y1="26.3912" x2="34.3778" y2="44.5298" gradientUnits="userSpaceOnUse">
<stop stop-color="#FFA9DC"/>
<stop offset="1" stop-color="#FF0097"/>
</linearGradient>
</defs>
</svg>
