<svg width="34" height="34" viewBox="0 0 34 34" fill="none" xmlns="http://www.w3.org/2000/svg">
<path d="M17 33C25.8365 33 33 25.8365 33 17C33 8.16344 25.8365 1 17 1C8.16344 1 1 8.16344 1 17C1 25.8365 8.16344 33 17 33Z" fill="white" stroke="#FF32AB"/>
<path d="M19.5312 18.441C19.1175 19.1877 18.2624 19.6127 17.3809 19.4337C16.2775 19.2097 15.5505 18.1241 15.7572 17.0091C15.9639 15.894 17.0259 15.1716 18.1294 15.3957C18.9262 15.5574 19.5267 16.1685 19.7211 16.9154L23.6715 16.9161L23.6724 20.8644C24.4075 21.2958 24.8328 22.1632 24.6686 23.0492C24.4619 24.1643 23.3998 24.8866 22.2964 24.6626C21.8307 24.568 21.432 24.32 21.1423 23.9811L13.1852 23.9809C12.6026 23.9809 12.1075 23.764 11.6997 23.3302C11.2919 22.8964 11.088 22.3696 11.088 21.7499L11.0879 15.1833C9.83667 14.5939 9.08491 13.2016 9.34892 11.7771C9.65892 10.1045 11.252 9.02097 12.9072 9.35702C13.7012 9.51823 14.3653 9.97686 14.8071 10.5951L21.5743 10.595C22.1568 10.595 22.652 10.8119 23.0598 11.2457C23.4676 11.6795 23.6715 12.2063 23.6715 12.826V13.3651H22.2559V12.826C22.2559 12.6277 22.1889 12.4573 22.0549 12.3147C21.9209 12.1722 21.7607 12.1009 21.5743 12.1009L15.3787 12.1005C15.4091 12.392 15.3987 12.6923 15.3428 12.994C15.0782 14.4217 13.8788 15.4201 12.5039 15.473L12.5036 21.7499C12.5036 21.9482 12.5706 22.1186 12.7046 22.2611C12.8386 22.4037 12.9988 22.4749 13.1852 22.4749L20.6425 22.4751C20.648 22.3964 20.658 22.3172 20.6727 22.2379C20.8288 21.3952 21.4735 20.7768 22.2554 20.6217L22.2559 18.4406L19.5312 18.441Z" fill="#22213D"/>
<path fill-rule="evenodd" clip-rule="evenodd" d="M19.0985 5.6825C19.0985 5.6825 16.668 6.22457 14.8627 5.09054C13.0573 3.95651 12.6059 2.87409 12.5703 2.74123C12.4964 2.46565 14.1487 3.26013 15.028 3.40807C15.9072 3.556 19.2658 3.54126 21.7558 3.58402C23.4778 3.6136 23.8679 4.61125 24.0055 5.12479C24.1903 5.81435 23.6897 6.45349 23.1281 6.7018C22.5665 6.95012 21.6241 7.85829 22.2568 8.67412C22.8895 9.48996 25.7587 9.49069 25.1232 11.0557C24.6648 12.1843 21.6824 10.6051 20.8454 10.8293C20.0083 11.0536 18.6878 11.654 17.0614 11.6666C15.435 11.6791 14.1711 10.6671 13.6746 10.8001C13.178 10.9332 13.0096 11.5222 11.7965 12.0671C10.5834 12.612 8.90437 12.0783 8.53146 12.1782C8.15855 12.2782 8.48463 12.4076 8.49469 13.5361C8.50475 14.6647 7.29561 15.6775 6.40578 14.9552C5.51595 14.2328 6.81224 11.0315 6.93068 10.8338C7.04911 10.6361 7.41497 10.0801 7.8632 10.24C8.31144 10.3998 8.63657 10.4802 9.00648 10.1765C9.3764 9.87279 8.74699 7.52378 11.075 7.01172C13.403 6.49965 15.0361 7.27984 16.8195 6.96066C18.6028 6.64147 19.0985 5.6825 19.0985 5.6825Z" fill="url(#paint0_linear)"/>
<path fill-rule="evenodd" clip-rule="evenodd" d="M22.9052 5.04352C22.9052 5.04352 22.7602 5.02911 22.5647 4.93571C22.3693 4.84231 22.2679 4.56932 22.03 4.59043C21.7922 4.61154 21.4686 4.78112 21.3831 4.80403C21.2976 4.82695 21.7596 4.86413 21.842 4.99245C21.9245 5.12078 22.0489 5.30896 22.3859 5.2995C22.7229 5.29003 22.9052 5.04352 22.9052 5.04352Z" fill="white"/>
<defs>
<linearGradient id="paint0_linear" x1="22.6323" y1="0" x2="25.6251" y2="11.1692" gradientUnits="userSpaceOnUse">
<stop stop-color="#FFA9DC"/>
<stop offset="1" stop-color="#FF0097"/>
</linearGradient>
</defs>
</svg>
