<svg width="256" height="256" viewBox="0 0 256 256" fill="none" xmlns="http://www.w3.org/2000/svg">
<path d="M196.839 238.085C206.253 238.085 214.255 234.63 220.844 227.721C227.434 220.81 230.729 212.42 230.729 202.549V125.552H131.107V149.835H207.853V202.549C207.853 205.708 206.771 208.422 204.606 210.692C202.44 212.963 199.852 214.098 196.839 214.098H61.2787C58.2663 214.098 55.6775 212.963 53.5123 210.692C51.3471 208.422 50.2645 205.708 50.2645 202.549V60.4007C50.2645 57.2418 51.3471 54.5272 53.5123 52.2568C55.6775 49.9864 58.2663 48.8512 61.2787 48.8512H196.839C199.852 48.8512 202.44 49.9864 204.606 52.2568C206.771 54.5272 207.853 57.2418 207.853 60.4007V68.989H230.729V60.4007C230.729 50.5293 227.434 42.1387 220.844 35.2287C214.255 28.3187 206.253 24.8638 196.839 24.8638H61.2787C51.8648 24.8638 43.863 28.3187 37.2733 35.2287C30.6835 42.1387 27.3887 50.5293 27.3887 60.4007V202.549C27.3887 212.42 30.6835 220.81 37.2733 227.721C43.863 234.63 51.8648 238.085 61.2787 238.085H196.839Z" fill="#2F2F43"/>
<path fill-rule="evenodd" clip-rule="evenodd" d="M99.1211 58.7784C104.648 31.7515 87.1795 5.8077 60.1044 0.831354C33.0293 -4.14494 6.60033 13.7306 1.07369 40.7576C-4.45304 67.7842 13.0153 93.7281 40.0904 98.7044C67.1655 103.681 93.5945 85.8057 99.1211 58.7784Z" fill="url(#paint0_radial)"/>
<path fill-rule="evenodd" clip-rule="evenodd" d="M255.256 227.476C259.126 208.558 246.9 190.395 227.947 186.908C208.995 183.421 190.494 195.931 186.624 214.849C182.754 233.767 194.981 251.93 213.933 255.417C232.886 258.904 251.387 246.394 255.256 227.476Z" fill="url(#paint1_radial)"/>
<path fill-rule="evenodd" clip-rule="evenodd" d="M176.471 143.11C180.341 124.192 168.114 106.029 149.162 102.542C130.21 99.055 111.709 111.565 107.839 130.483C103.969 149.401 116.196 167.564 135.148 171.051C154.101 174.538 172.602 162.028 176.471 143.11Z" fill="url(#paint2_radial)"/>
<defs>
<radialGradient id="paint0_radial" cx="0" cy="0" r="1" gradientUnits="userSpaceOnUse" gradientTransform="translate(72.0427 72.0985) rotate(-131.506) scale(83.0695 76.3973)">
<stop stop-color="white"/>
<stop offset="0.501768" stop-color="#3C4149"/>
<stop offset="0.761481" stop-color="#454A52"/>
<stop offset="0.882295" stop-color="#CBD0DA"/>
</radialGradient>
<radialGradient id="paint1_radial" cx="0" cy="0" r="1" gradientUnits="userSpaceOnUse" gradientTransform="translate(208.406 207.721) rotate(42.7957) scale(49.4466 45.4245)">
<stop stop-color="white"/>
<stop offset="0.501768" stop-color="#3C4149"/>
<stop offset="0.761481" stop-color="#454A52"/>
<stop offset="1" stop-color="#CBD0DA"/>
</radialGradient>
<radialGradient id="paint2_radial" cx="0" cy="0" r="1" gradientUnits="userSpaceOnUse" gradientTransform="translate(129.621 123.355) rotate(42.7957) scale(49.4466 45.4245)">
<stop stop-color="white"/>
<stop offset="0.501768" stop-color="#3C4149"/>
<stop offset="0.761481" stop-color="#454A52"/>
<stop offset="1" stop-color="#CBD0DA"/>
</radialGradient>
</defs>
</svg>
