<svg width="14" height="14" viewBox="0 0 14 14" fill="none" xmlns="http://www.w3.org/2000/svg">
<path d="M9.30005 8.30975C8.92411 8.98825 8.14716 9.37436 7.34615 9.21175C6.34355 9.00821 5.68298 8.02176 5.87073 7.00855C6.05855 5.99534 7.02362 5.339 8.02621 5.54254C8.75028 5.68958 9.29592 6.24475 9.47253 6.92352L13.0622 6.92409L13.0629 10.5118C13.7309 10.9037 14.1173 11.6919 13.9681 12.497C13.7803 13.5102 12.8153 14.1665 11.8126 13.963C11.3895 13.877 11.0272 13.6517 10.764 13.3437L3.53373 13.3435C3.00434 13.3435 2.55438 13.1464 2.18385 12.7523C1.81332 12.3581 1.62805 11.8794 1.62805 11.3163L1.62798 5.34962C0.491034 4.81406 -0.192033 3.54889 0.047842 2.25455C0.329539 0.734733 1.77706 -0.249807 3.28107 0.0555301C4.00258 0.202004 4.60599 0.618773 5.00743 1.18053L11.1565 1.18046C11.6859 1.18046 12.1358 1.37755 12.5064 1.77173C12.8769 2.16585 13.0622 2.64449 13.0622 3.20766V3.69756H11.7758V3.20766C11.7758 3.02742 11.715 2.87259 11.5932 2.74303C11.4714 2.61355 11.3259 2.54877 11.1565 2.54877L5.5269 2.54842C5.55443 2.81326 5.54503 3.08611 5.49418 3.36029C5.25378 4.65753 4.16392 5.56484 2.9146 5.61283L2.91438 11.3163C2.91438 11.4966 2.97523 11.6514 3.09701 11.7809C3.21872 11.9104 3.36434 11.9751 3.53373 11.9751L10.3098 11.9754C10.3148 11.9038 10.3239 11.8319 10.3372 11.7598C10.4791 10.9941 11.0649 10.4322 11.7754 10.2912L11.7758 8.30933L9.30005 8.30975Z" fill="#22213D"/>
</svg>
