<svg width="32" height="32" viewBox="0 0 32 32" fill="none" xmlns="http://www.w3.org/2000/svg">
<g clip-path="url(#clip0)">
<g filter="url(#filter0_d)">
<circle cx="16" cy="16" r="15" fill="white"/>
<circle cx="16" cy="16" r="14.5" stroke="#EAF1F3"/>
</g>
<path d="M18.1563 17.2279C17.8039 17.864 17.0755 18.226 16.3245 18.0735C15.3846 17.8827 14.7653 16.9579 14.9413 16.008C15.1174 15.0581 16.0221 14.4428 16.9621 14.6336C17.6409 14.7715 18.1524 15.2919 18.318 15.9283L21.6833 15.9288L21.684 19.2923C22.3102 19.6598 22.6725 20.3987 22.5326 21.1534C22.3566 22.1033 21.4518 22.7186 20.5118 22.5278C20.1152 22.4472 19.7755 22.236 19.5287 21.9473L12.7504 21.9471C12.2541 21.9471 11.8322 21.7623 11.4849 21.3927C11.1375 21.0232 10.9638 20.5745 10.9638 20.0466L10.9637 14.4528C9.89784 13.9507 9.25747 12.7646 9.48235 11.5511C9.74644 10.1263 11.1035 9.20331 12.5135 9.48956C13.1899 9.62688 13.7556 10.0176 14.132 10.5442L19.8967 10.5442C20.393 10.5442 20.8148 10.729 21.1622 11.0985C21.5096 11.468 21.6833 11.9167 21.6833 12.4447V12.904H20.4773V12.4447C20.4773 12.2757 20.4203 12.1306 20.3061 12.0091C20.1919 11.8877 20.0555 11.827 19.8967 11.827L14.619 11.8266C14.6448 12.0749 14.636 12.3307 14.5883 12.5878C14.3629 13.8039 13.3412 14.6545 12.1699 14.6995L12.1697 20.0466C12.1697 20.2155 12.2268 20.3607 12.3409 20.4821C12.455 20.6035 12.5916 20.6642 12.7504 20.6642L19.1029 20.6644C19.1076 20.5973 19.1161 20.5299 19.1286 20.4623C19.2617 19.7444 19.8109 19.2177 20.4769 19.0855L20.4773 17.2275L18.1563 17.2279Z" fill="#22213D"/>
</g>
<defs>
<filter id="filter0_d" x="-24" y="-23" width="80" height="80" filterUnits="userSpaceOnUse" color-interpolation-filters="sRGB">
<feFlood flood-opacity="0" result="BackgroundImageFix"/>
<feColorMatrix in="SourceAlpha" type="matrix" values="0 0 0 0 0 0 0 0 0 0 0 0 0 0 0 0 0 0 127 0"/>
<feOffset dy="1"/>
<feGaussianBlur stdDeviation="12.5"/>
<feColorMatrix type="matrix" values="0 0 0 0 0.88667 0 0 0 0 0.944027 0 0 0 0 0.963145 0 0 0 1 0"/>
<feBlend mode="normal" in2="BackgroundImageFix" result="effect1_dropShadow"/>
<feBlend mode="normal" in="SourceGraphic" in2="effect1_dropShadow" result="shape"/>
</filter>
<clipPath id="clip0">
<rect width="32" height="32" fill="white"/>
</clipPath>
</defs>
</svg>
