<?xml version="1.0" encoding="UTF-8"?>
<svg width="90px" height="90px" viewBox="0 0 90 90" version="1.1" xmlns="http://www.w3.org/2000/svg" xmlns:xlink="http://www.w3.org/1999/xlink">
    <title>Group 33</title>
    <g id="ONE-PAGER" stroke="none" stroke-width="1" fill="none" fill-rule="evenodd">
        <g id="Gravity-Mainnet-Launch_2" transform="translate(-301.000000, -277.000000)">
            <g id="Group-33" transform="translate(301.000000, 277.000000)">
                <path d="M45,0 L90,45 L45,90 L0,45 L45,0 Z" id="Shape-Copy" fill="#9B8BFF"></path>
                <path d="M45,90 L0,44.9785831 C0,44.9785831 21.7139863,29.7108555 47.4995236,42.064596 C73.285061,54.4183366 90,45 90,45 L45,90 Z" id="Path-Copy-2" fill="#7549FF"></path>
                <polygon id="N-Copy-2" fill="#FFFFFF" fill-rule="nonzero" points="34.9833887 62.195122 34.9833887 36.2770035 55.9136213 62.195122 60 62.195122 60 27.4390244 55.0166113 27.4390244 55.0166113 53.3571429 34.0863787 27.4390244 30 27.4390244 30 62.195122"></polygon>
                <rect id="Rectangle-Copy-28" fill="#FFFFFF" x="20.4878049" y="41.7073171" width="9.51219512" height="4.02439024"></rect>
                <rect id="Rectangle-Copy-29" fill="#FFFFFF" x="60" y="41.7073171" width="9.51219512" height="4.02439024"></rect>
            </g>
        </g>
    </g>
</svg>