<svg width="32" height="32" viewBox="0 0 32 32" fill="none" xmlns="http://www.w3.org/2000/svg">
<circle cx="16" cy="16" r="15.5" fill="white" stroke="#EAF1F3"/>
<g clip-path="url(#clip0)">
<path d="M16.5001 22.8741C13.581 22.8741 11.2104 20.4989 11.2104 17.5739C11.2104 14.7304 15.9989 9.70845 16.2021 9.49807L16.4527 9.2334L16.7101 9.49128C16.92 9.70166 21.7897 14.7236 21.7897 17.5671C21.7897 20.4989 19.4192 22.8741 16.5001 22.8741ZM16.4595 10.2581C16.0395 10.7128 15.1591 11.6969 14.2854 12.8506C12.7344 14.9001 11.9148 16.5288 11.9148 17.5671C11.9148 20.0985 13.9738 22.1615 16.5001 22.1615C19.0264 22.1615 21.0854 20.0985 21.0854 17.5671C21.0854 16.5288 20.2523 14.9001 18.6742 12.8506C17.7869 11.7037 16.8861 10.7128 16.4595 10.2581Z" fill="url(#paint0_linear)"/>
<path d="M16.5 24.5697C12.6462 24.5697 9.51709 21.4276 9.51709 17.5729C9.51709 13.7997 14.7729 8.53342 14.9964 8.31625C15.1318 8.18052 15.3621 8.18052 15.4976 8.31625C15.633 8.45198 15.633 8.68272 15.4976 8.81845C15.4434 8.87274 10.2282 14.0983 10.2282 17.5729C10.2282 21.0408 13.0458 23.864 16.5067 23.864C19.9677 23.864 22.7852 21.0408 22.7852 17.5729C22.7852 16.1478 21.8641 14.1797 20.1167 11.8656C18.7757 10.0943 17.4278 8.75058 17.4143 8.73701C17.2721 8.60128 17.2721 8.37733 17.4143 8.23482C17.5498 8.0923 17.7733 8.0923 17.9155 8.23482C18.1458 8.45877 23.4964 13.7929 23.4964 17.5729C23.4828 21.4276 20.3537 24.5697 16.5 24.5697Z" fill="url(#paint1_linear)"/>
<path d="M16.5 26.2678C11.8131 26.2678 8 22.447 8 17.7508C8 15.8099 8.9753 13.4211 10.892 10.659C12.3076 8.62308 13.696 7.17078 13.757 7.1097C13.8924 6.96719 14.1159 6.96719 14.2582 7.10292C14.4004 7.23865 14.4004 7.4626 14.2649 7.60511C14.2514 7.61869 12.8494 9.08455 11.4677 11.073C9.65936 13.6722 8.70438 15.9796 8.70438 17.7508C8.70438 22.0534 12.1992 25.562 16.5 25.562C20.8008 25.562 24.2956 22.0602 24.2956 17.7508C24.2956 15.9796 23.3339 13.6722 21.512 11.073C20.1167 9.08455 18.7012 7.61869 18.6876 7.60511C18.5522 7.4626 18.5522 7.23865 18.6944 7.10292C18.8367 6.96719 19.0602 6.96719 19.1956 7.1097C19.4327 7.35401 25 13.1496 25 17.7508C25 22.447 21.1869 26.2678 16.5 26.2678Z" fill="url(#paint2_linear)"/>
</g>
<defs>
<linearGradient id="paint0_linear" x1="16.5001" y1="22.8733" x2="16.5001" y2="9.23256" gradientUnits="userSpaceOnUse">
<stop stop-color="#05AAC5"/>
<stop offset="1" stop-color="#71E0EC"/>
</linearGradient>
<linearGradient id="paint1_linear" x1="16.5067" y1="24.5689" x2="16.5067" y2="8.1271" gradientUnits="userSpaceOnUse">
<stop stop-color="#05AAC5"/>
<stop offset="1" stop-color="#71E0EC"/>
</linearGradient>
<linearGradient id="paint2_linear" x1="16.5" y1="26.267" x2="16.5" y2="7.00112" gradientUnits="userSpaceOnUse">
<stop stop-color="#05AAC5"/>
<stop offset="1" stop-color="#71E0EC"/>
</linearGradient>
<clipPath id="clip0">
<rect width="17" height="19.2667" fill="white" transform="translate(8 7)"/>
</clipPath>
</defs>
</svg>
