<svg width="32" height="32" viewBox="0 0 32 32" fill="none" xmlns="http://www.w3.org/2000/svg">
<path d="M16 31.0004C24.2843 31.0004 31 24.4822 31 16.4416C31 8.40102 24.2843 1.88281 16 1.88281C7.71573 1.88281 1 8.40102 1 16.4416C1 24.4822 7.71573 31.0004 16 31.0004Z" fill="white" stroke="#FF32AB"/>
<path d="M18.3731 17.7511C17.9853 18.4305 17.1836 18.8172 16.3572 18.6544C15.3227 18.4505 14.6412 17.4627 14.835 16.4481C15.0287 15.4335 16.0244 14.7762 17.0589 14.98C17.8059 15.1272 18.3688 15.6832 18.5511 16.3629L22.2547 16.3635L22.2554 19.9562C22.9447 20.3487 23.3433 21.138 23.1894 21.9442C22.9956 22.9588 21.9999 23.6161 20.9655 23.4122C20.5289 23.3262 20.1551 23.1005 19.8835 22.7921L12.4237 22.7919C11.8776 22.7919 11.4133 22.5945 11.031 22.1998C10.6487 21.8051 10.4575 21.3258 10.4575 20.7619L10.4575 14.7868C9.28446 14.2505 8.57969 12.9836 8.8272 11.6874C9.11783 10.1654 10.6113 9.17952 12.163 9.4853C12.9075 9.63199 13.53 10.0493 13.9443 10.6119L20.2885 10.6118C20.8346 10.6118 21.2989 10.8092 21.6812 11.2039C22.0635 11.5986 22.2547 12.0779 22.2547 12.6418V13.1324H20.9275V12.6418C20.9275 12.4614 20.8647 12.3063 20.7391 12.1766C20.6134 12.0469 20.4632 11.9821 20.2885 11.9821L14.4802 11.9817C14.5086 12.2469 14.4989 12.5202 14.4464 12.7947C14.1984 14.0938 13.074 15.0023 11.785 15.0504L11.7847 20.7619C11.7847 20.9423 11.8475 21.0974 11.9731 21.2271C12.0988 21.3568 12.249 21.4216 12.4237 21.4216L19.4149 21.4218C19.4201 21.3502 19.4294 21.2781 19.4432 21.2059C19.5896 20.4392 20.194 19.8765 20.927 19.7353L20.9275 17.7507L18.3731 17.7511Z" fill="#22213D"/>
<path fill-rule="evenodd" clip-rule="evenodd" d="M17.9673 6.01397C17.9673 6.01397 15.6888 6.49226 13.9962 5.49165C12.3037 4.49104 11.8805 3.53596 11.8471 3.41874C11.7779 3.17557 13.3269 3.87659 14.1512 4.00712C14.9755 4.13765 18.1241 4.12464 20.4585 4.16237C22.0729 4.18847 22.4386 5.06875 22.5676 5.52187C22.7409 6.13031 22.2716 6.69425 21.7451 6.91335C21.2186 7.13245 20.335 7.93378 20.9282 8.65363C21.5214 9.37349 24.2113 9.37414 23.6154 10.755C23.1858 11.7508 20.3897 10.3574 19.605 10.5553C18.8203 10.7532 17.5822 11.283 16.0575 11.294C14.5328 11.3051 13.3479 10.4121 12.8824 10.5295C12.4169 10.6469 12.259 11.1667 11.1217 11.6475C9.98437 12.1282 8.41031 11.6573 8.06071 11.7455C7.71111 11.8337 8.01681 11.9478 8.02624 12.9436C8.03567 13.9394 6.9021 14.8331 6.06789 14.1957C5.23367 13.5584 6.44895 10.7336 6.55998 10.5592C6.67101 10.3848 7.014 9.89422 7.43422 10.0352C7.85444 10.1763 8.15925 10.2472 8.50605 9.97925C8.85284 9.71128 8.26277 7.63863 10.4453 7.1868C12.6278 6.73498 14.1588 7.42339 15.8307 7.14175C17.5026 6.86012 17.9673 6.01397 17.9673 6.01397Z" fill="url(#paint0_linear)"/>
<path fill-rule="evenodd" clip-rule="evenodd" d="M21.5363 5.45206C21.5363 5.45206 21.4004 5.43934 21.2172 5.35693C21.0339 5.27452 20.9389 5.03364 20.7159 5.05227C20.4929 5.0709 20.1895 5.22053 20.1094 5.24075C20.0292 5.26097 20.4624 5.29377 20.5396 5.407C20.6169 5.52023 20.7336 5.68627 21.0495 5.67792C21.3655 5.66957 21.5363 5.45206 21.5363 5.45206Z" fill="white"/>
<defs>
<linearGradient id="paint0_linear" x1="21.2803" y1="1" x2="23.7848" y2="10.9311" gradientUnits="userSpaceOnUse">
<stop stop-color="#FFA9DC"/>
<stop offset="1" stop-color="#FF0097"/>
</linearGradient>
</defs>
</svg>
