<svg width="32" height="32" viewBox="0 0 32 32" fill="none" xmlns="http://www.w3.org/2000/svg">
<path d="M16 31C24.2843 31 31 24.2843 31 16C31 7.71575 24.2843 1 16 1C7.71573 1 1 7.71575 1 16C1 24.2843 7.71573 31 16 31Z" fill="white" stroke="#FF32AB"/>
<path d="M22.2692 15.6658V21.5215L16 25.2812L9.72727 21.5215V13.9984L16 10.2351L20.8182 13.1266L21.5455 12.6907L16 9.36328L9 13.5625V21.9574L16 26.1566L23 21.9574V15.2299L22.2692 15.6658Z" fill="url(#paint0_linear)"/>
<path d="M14.2448 21.5244H13.1958V17.87H16.6923C17.0231 17.8662 17.3392 17.7272 17.5721 17.4831C17.8051 17.2391 17.9362 16.9096 17.9371 16.5659C17.9389 16.3959 17.9074 16.2274 17.8443 16.0706C17.7811 15.9138 17.6878 15.7721 17.5699 15.6541C17.4559 15.5324 17.3194 15.4359 17.1686 15.3703C17.0178 15.3048 16.8558 15.2715 16.6923 15.2727H13.1958V14.1611H16.6958C17.3085 14.1649 17.8952 14.4195 18.3285 14.8697C18.7618 15.3198 19.0068 15.9293 19.0105 16.5659C19.0142 17.0532 18.8712 17.5295 18.6014 17.9281C18.3531 18.3095 18.0032 18.6074 17.5944 18.7854C17.1896 18.9187 16.7673 18.9849 16.3426 18.9816H14.2448V21.5244Z" fill="url(#paint1_linear)"/>
<path d="M18.9857 21.4346H17.7619L16.8179 19.7237C17.1914 19.6999 17.5598 19.6217 17.9123 19.4912L18.9857 21.4346Z" fill="url(#paint2_linear)"/>
<path d="M21.5386 14.4485L22.2623 14.8663L22.9861 14.4485V13.5658L22.2623 13.1299L21.5386 13.5658V14.4485Z" fill="url(#paint3_linear)"/>
<path fill-rule="evenodd" clip-rule="evenodd" d="M19.2419 6.19654C19.2419 6.19654 16.9537 6.67301 15.2539 5.67621C13.5542 4.67941 13.1292 3.72797 13.0957 3.6112C13.0262 3.36895 14.5818 4.0673 15.4096 4.19734C16.2374 4.32737 19.3994 4.31441 21.7437 4.35199C23.365 4.378 23.7322 5.25492 23.8618 5.70632C24.0358 6.31244 23.5645 6.87423 23.0358 7.0925C22.5071 7.31076 21.6197 8.10904 22.2154 8.82615C22.8111 9.54327 25.5125 9.54391 24.914 10.9195C24.4826 11.9115 21.6746 10.5234 20.8866 10.7206C20.0986 10.9177 18.8552 11.4455 17.324 11.4565C15.7928 11.4675 14.6029 10.5779 14.1354 10.6949C13.6679 10.8118 13.5094 11.3296 12.3672 11.8086C11.2251 12.2875 9.6443 11.8184 9.29322 11.9062C8.94213 11.9941 9.24913 12.1078 9.2586 13.0998C9.26807 14.0918 8.12968 14.9821 7.29192 14.3471C6.45416 13.7122 7.6746 10.8982 7.7861 10.7245C7.89761 10.5507 8.24206 10.062 8.66406 10.2025C9.08607 10.343 9.39217 10.4136 9.74045 10.1467C10.0887 9.87977 9.49614 7.81501 11.6879 7.3649C13.8797 6.91481 15.4172 7.60059 17.0962 7.32003C18.7753 7.03947 19.2419 6.19654 19.2419 6.19654Z" fill="url(#paint4_linear)"/>
<path fill-rule="evenodd" clip-rule="evenodd" d="M22.759 5.70691C22.759 5.70691 22.6231 5.6938 22.4399 5.60889C22.2566 5.52398 22.1616 5.27581 21.9386 5.295C21.7156 5.31419 21.4122 5.46836 21.3321 5.48919C21.2519 5.51002 21.6851 5.54382 21.7623 5.66048C21.8396 5.77714 21.9563 5.94821 22.2722 5.93961C22.5882 5.93101 22.759 5.70691 22.759 5.70691Z" fill="white"/>
<defs>
<linearGradient id="paint0_linear" x1="21.1552" y1="13.5671" x2="9.56562" y2="18.103" gradientUnits="userSpaceOnUse">
<stop stop-color="#C200FB"/>
<stop offset="0.489658" stop-color="#3772FF"/>
<stop offset="0.489758" stop-color="#3773FE"/>
<stop offset="1" stop-color="#5AC4BE"/>
</linearGradient>
<linearGradient id="paint1_linear" x1="20.6606" y1="13.5664" x2="10.0463" y2="17.7206" gradientUnits="userSpaceOnUse">
<stop stop-color="#C200FB"/>
<stop offset="0.489658" stop-color="#3772FF"/>
<stop offset="0.489758" stop-color="#3773FE"/>
<stop offset="1" stop-color="#5AC4BE"/>
</linearGradient>
<linearGradient id="paint2_linear" x1="22.9873" y1="15.2425" x2="8.53058" y2="20.9005" gradientUnits="userSpaceOnUse">
<stop stop-color="#C200FB"/>
<stop offset="0.489658" stop-color="#3772FF"/>
<stop offset="0.489758" stop-color="#3773FE"/>
<stop offset="1" stop-color="#5AC4BE"/>
</linearGradient>
<linearGradient id="paint3_linear" x1="22.7975" y1="13.5668" x2="11.2078" y2="18.1027" gradientUnits="userSpaceOnUse">
<stop stop-color="#C200FB"/>
<stop offset="0.489658" stop-color="#3772FF"/>
<stop offset="0.489758" stop-color="#3773FE"/>
<stop offset="1" stop-color="#5AC4BE"/>
</linearGradient>
<linearGradient id="paint4_linear" x1="22.569" y1="1.20167" x2="25.0463" y2="11.1044" gradientUnits="userSpaceOnUse">
<stop stop-color="#FFA9DC"/>
<stop offset="1" stop-color="#FF0097"/>
</linearGradient>
</defs>
</svg>
