<svg width="32" height="32" viewBox="0 0 32 32" fill="none" xmlns="http://www.w3.org/2000/svg">
<path d="M16 31C24.2843 31 31 24.2843 31 16C31 7.71575 24.2843 1 16 1C7.71573 1 1 7.71575 1 16C1 24.2843 7.71573 31 16 31Z" fill="white" stroke="#FF32AB"/>
<g clip-path="url(#clip0)">
<path d="M16.4999 23.0207C13.9242 23.0207 11.8325 20.9403 11.8325 18.3784C11.8325 15.8879 16.0576 11.4893 16.2369 11.3051L16.458 11.0732L16.6851 11.2991C16.8704 11.4834 21.1672 15.8819 21.1672 18.3725C21.1672 20.9403 19.0755 23.0207 16.4999 23.0207ZM16.464 11.9708C16.0935 12.369 15.3166 13.2309 14.5457 14.2414C13.1771 16.0365 12.454 17.463 12.454 18.3725C12.454 20.5896 14.2708 22.3966 16.4999 22.3966C18.7289 22.3966 20.5457 20.5896 20.5457 18.3725C20.5457 17.463 19.8106 16.0365 18.4182 14.2414C17.6353 13.2369 16.8405 12.369 16.464 11.9708Z" fill="url(#paint0_linear)"/>
<path d="M16.5002 24.5063C13.0998 24.5063 10.3389 21.7542 10.3389 18.378C10.3389 15.0732 14.9763 10.4606 15.1735 10.2704C15.2931 10.1515 15.4962 10.1515 15.6158 10.2704C15.7353 10.3893 15.7353 10.5914 15.6158 10.7103C15.568 10.7578 10.9664 15.3347 10.9664 18.378C10.9664 21.4154 13.4524 23.8881 16.5062 23.8881C19.56 23.8881 22.046 21.4154 22.046 18.378C22.046 17.1298 21.2333 15.406 19.6915 13.3791C18.5082 11.8277 17.3189 10.6508 17.307 10.6389C17.1815 10.5201 17.1815 10.3239 17.307 10.1991C17.4265 10.0743 17.6237 10.0743 17.7492 10.1991C17.9524 10.3952 22.6735 15.0672 22.6735 18.378C22.6616 21.7542 19.9006 24.5063 16.5002 24.5063Z" fill="url(#paint1_linear)"/>
<path d="M16.5 25.9934C12.3645 25.9934 9 22.6469 9 18.5337C9 16.8337 9.86056 14.7414 11.5518 12.3222C12.8008 10.539 14.0259 9.26701 14.0797 9.21352C14.1992 9.08869 14.3964 9.08869 14.5219 9.20757C14.6474 9.32645 14.6474 9.5226 14.5279 9.64743C14.5159 9.65931 13.2789 10.9432 12.0598 12.6848C10.4641 14.9614 9.62151 16.9823 9.62151 18.5337C9.62151 22.3022 12.7052 25.3752 16.5 25.3752C20.2948 25.3752 23.3785 22.3081 23.3785 18.5337C23.3785 16.9823 22.5299 14.9614 20.9223 12.6848C19.6912 10.9432 18.4422 9.65931 18.4303 9.64743C18.3108 9.5226 18.3108 9.32645 18.4363 9.20757C18.5618 9.08869 18.759 9.08869 18.8785 9.21352C19.0876 9.4275 24 14.5037 24 18.5337C24 22.6469 20.6355 25.9934 16.5 25.9934Z" fill="url(#paint2_linear)"/>
</g>
<path fill-rule="evenodd" clip-rule="evenodd" d="M19.2419 6.19654C19.2419 6.19654 16.9537 6.67301 15.2539 5.67621C13.5542 4.67941 13.1292 3.72797 13.0957 3.6112C13.0262 3.36895 14.5818 4.0673 15.4096 4.19734C16.2374 4.32737 19.3994 4.31441 21.7437 4.35199C23.365 4.378 23.7322 5.25492 23.8618 5.70632C24.0358 6.31244 23.5645 6.87423 23.0358 7.0925C22.5071 7.31076 21.6197 8.10904 22.2154 8.82615C22.8111 9.54327 25.5125 9.54391 24.914 10.9195C24.4826 11.9115 21.6746 10.5234 20.8866 10.7206C20.0986 10.9177 18.8552 11.4455 17.324 11.4565C15.7928 11.4675 14.6029 10.5779 14.1354 10.6949C13.6679 10.8118 13.5094 11.3296 12.3672 11.8086C11.2251 12.2875 9.6443 11.8184 9.29322 11.9062C8.94213 11.9941 9.24913 12.1078 9.2586 13.0998C9.26807 14.0918 8.12968 14.9821 7.29192 14.3471C6.45416 13.7122 7.6746 10.8982 7.7861 10.7245C7.89761 10.5507 8.24206 10.062 8.66406 10.2025C9.08607 10.343 9.39217 10.4136 9.74045 10.1467C10.0887 9.87977 9.49614 7.81501 11.6879 7.3649C13.8797 6.91481 15.4172 7.60059 17.0962 7.32003C18.7753 7.03947 19.2419 6.19654 19.2419 6.19654Z" fill="url(#paint3_linear)"/>
<path fill-rule="evenodd" clip-rule="evenodd" d="M22.759 5.70691C22.759 5.70691 22.6231 5.6938 22.4399 5.60889C22.2566 5.52398 22.1616 5.27581 21.9386 5.295C21.7156 5.31419 21.4122 5.46836 21.3321 5.48919C21.2519 5.51002 21.6851 5.54382 21.7623 5.66048C21.8396 5.77714 21.9563 5.94821 22.2722 5.93961C22.5882 5.93101 22.759 5.70691 22.759 5.70691Z" fill="white"/>
<defs>
<linearGradient id="paint0_linear" x1="16.4999" y1="23.0199" x2="16.4999" y2="11.0725" gradientUnits="userSpaceOnUse">
<stop stop-color="#05AAC5"/>
<stop offset="1" stop-color="#71E0EC"/>
</linearGradient>
<linearGradient id="paint1_linear" x1="16.5062" y1="24.5056" x2="16.5062" y2="10.1047" gradientUnits="userSpaceOnUse">
<stop stop-color="#05AAC5"/>
<stop offset="1" stop-color="#71E0EC"/>
</linearGradient>
<linearGradient id="paint2_linear" x1="16.5" y1="25.9927" x2="16.5" y2="9.11841" gradientUnits="userSpaceOnUse">
<stop stop-color="#05AAC5"/>
<stop offset="1" stop-color="#71E0EC"/>
</linearGradient>
<linearGradient id="paint3_linear" x1="22.569" y1="1.20167" x2="25.0463" y2="11.1044" gradientUnits="userSpaceOnUse">
<stop stop-color="#FFA9DC"/>
<stop offset="1" stop-color="#FF0097"/>
</linearGradient>
<clipPath id="clip0">
<rect width="15" height="16.875" fill="white" transform="translate(9 9.11719)"/>
</clipPath>
</defs>
</svg>
