<?xml version="1.0" encoding="UTF-8"?>
<svg width="90px" height="90px" viewBox="0 0 90 90" version="1.1" xmlns="http://www.w3.org/2000/svg" xmlns:xlink="http://www.w3.org/1999/xlink">
    <title>USDN_L</title>
    <g id="ONE-PAGER" stroke="none" stroke-width="1" fill="none" fill-rule="evenodd">
        <g id="Gravity-Mainnet-Launch_2" transform="translate(-129.000000, -288.000000)">
            <g id="USDN_L" transform="translate(129.000000, 288.000000)">
                <path d="M45,0 L90,45 L45,90 L0,45 L45,0 Z" id="Shape" fill="#0BFFB9"></path>
                <path d="M45,90 L0,44.7957845 C0,44.7957845 21.7139863,29.4660658 47.4995236,41.8699658 C73.285061,54.2738658 90,44.8172883 90,44.8172883 L45,90 Z" id="Path" fill="#00A484"></path>
                <path d="M45.253907,63.7974684 C47.1960726,63.7974684 48.986785,63.5585164 50.626044,63.0806125 C52.2653031,62.6027086 53.6818367,61.8948697 54.875645,60.957096 C56.0694532,60.0193223 57.0004455,58.8516136 57.6686217,57.4539701 C58.336798,56.0563265 58.6708861,54.4377651 58.6708861,52.5982859 C58.6708861,51.3719664 58.5060693,50.2854113 58.1764357,49.3386205 C57.846802,48.3918297 57.3879877,47.5532436 56.7999926,46.8228621 C56.2119975,46.0924806 55.5215487,45.4522697 54.7286462,44.9022294 C53.9357437,44.352189 53.0760236,43.8607595 52.1494859,43.4279408 C51.2229481,42.9951222 50.2563198,42.6073888 49.249601,42.2647407 C48.2428821,41.9220926 47.2406177,41.5974787 46.2428078,41.2908988 C44.9777275,40.8941484 43.7527377,40.4883809 42.5678384,40.0735963 C41.3829392,39.6588118 40.3272208,39.1628738 39.400683,38.5857823 C38.4741453,38.0086907 37.7346969,37.318886 37.1823379,36.5163681 C36.6299788,35.7138502 36.3537993,34.7354997 36.3537993,33.5813167 C36.3537993,32.4632018 36.5987973,31.516411 37.0887932,30.7409443 C37.5787891,29.9654776 38.2202383,29.3387922 39.0131408,28.8608883 C39.8060433,28.3829844 40.705854,28.0358278 41.7125728,27.8194184 C42.7192917,27.6030091 43.7482832,27.4948045 44.7995471,27.4948045 C45.9399013,27.4948045 47.0178923,27.6571115 48.0335202,27.9817254 C49.0491481,28.3063394 49.9445043,28.7932604 50.7195887,29.4424884 C51.4946732,30.0917163 52.1272133,30.8942342 52.6172093,31.8500421 C53.1072052,32.8058499 53.4056572,33.9149477 53.5125654,35.1773354 L53.5125654,35.1773354 L57.575077,35.1773354 C57.5216229,34.3658005 57.3968967,33.5181973 57.2008983,32.6345259 C57.0049,31.7508545 56.7019934,30.8942342 56.2921786,30.0646652 C55.8823639,29.2350961 55.3567319,28.4461038 54.7152827,27.6976882 C54.0738335,26.9492726 53.28984,26.2955361 52.3633023,25.7364787 C51.4367645,25.1774213 50.3498645,24.7355856 49.1026022,24.4109716 C47.8553398,24.0863576 46.4209882,23.9240506 44.7995471,23.9240506 C42.9821077,23.9240506 41.3116671,24.1359514 39.7882252,24.559753 C38.2647834,24.9835546 36.9551579,25.6012229 35.8593489,26.4127578 C34.7635398,27.2242928 33.9127288,28.2296945 33.3069156,29.4289628 C32.7011025,30.6282311 32.3981959,32.0123491 32.3981959,33.5813167 C32.3981959,34.8437044 32.5719217,35.9573107 32.9193734,36.9221356 C33.266825,37.8869605 33.7390029,38.7480892 34.335907,39.5055219 C34.9328112,40.2629545 35.6366235,40.9211995 36.447344,41.4802569 C37.2580645,42.0393144 38.1311481,42.5352524 39.0665949,42.968071 C40.0020416,43.4008897 40.9731245,43.7886231 41.9798433,44.1312711 C42.9865622,44.4739192 43.9888266,44.7895162 44.9866365,45.0780619 C46.1804447,45.4387441 47.3608894,45.8264775 48.5279706,46.241262 C49.6950518,46.6560466 50.7374067,47.1474761 51.6550355,47.7155506 C52.5726642,48.283625 53.3121126,48.9599042 53.8733806,49.744388 C54.4346487,50.5288718 54.7152827,51.4801711 54.7152827,52.5982859 C54.7152827,53.9688783 54.4569212,55.1365869 53.9401982,56.1014118 C53.4234753,57.0662367 52.728572,57.8507205 51.8554883,58.4548632 C50.9824047,59.0590059 49.9756858,59.5008416 48.8353317,59.7803703 C47.6949775,60.059899 46.5011693,60.1996634 45.253907,60.1996634 C43.8641004,60.1996634 42.5856565,59.9697285 41.4185753,59.5098586 C40.2514941,59.0499888 39.2403207,58.4052694 38.3850551,57.5757003 C37.5297895,56.7461313 36.8437952,55.7677808 36.3270723,54.6406489 C35.8103493,53.513517 35.5074427,52.2736719 35.4183526,50.9211136 L35.4183526,50.9211136 L31.3291139,50.9211136 C31.382568,52.9048658 31.8057463,54.6902427 32.5986488,56.2772444 C33.3915513,57.8642461 34.4339062,59.2122958 35.7257136,60.3213936 C37.0175211,61.4304914 38.4919633,62.2871116 40.1490404,62.8912543 C41.8061175,63.495397 43.5077397,63.7974684 45.253907,63.7974684 Z" id="S" fill="#FFFFFF" fill-rule="nonzero"></path>
                <polygon id="Rectangle" fill="#FFFFFF" transform="translate(44.715190, 21.930380) rotate(-270.000000) translate(-44.715190, -21.930380) " points="39.8734177 19.9367089 49.556962 19.9367089 49.556962 23.9240506 39.8734177 23.9240506"></polygon>
                <polygon id="Rectangle-Copy-12" fill="#FFFFFF" transform="translate(44.715190, 66.930380) rotate(-270.000000) translate(-44.715190, -66.930380) " points="39.8734177 64.9367089 49.556962 64.9367089 49.556962 68.9240506 39.8734177 68.9240506"></polygon>
            </g>
        </g>
    </g>
</svg>