<svg width="23" height="23" viewBox="0 0 23 23" fill="none" xmlns="http://www.w3.org/2000/svg">
<g id="square">
<path id="Path" d="M11.5 0C5.18356 0 0 5.18356 0 11.5C0 16.8901 3.78221 21.7864 8.80469 23V19.1953C8.30704 19.3043 7.84904 19.3075 7.34245 19.1581C6.66283 18.9576 6.1106 18.5048 5.70069 17.8145C5.43941 17.3737 4.97633 16.8957 4.49324 16.9308L4.37479 15.5884C5.4194 15.4989 6.3231 16.2249 6.85954 17.1261C7.09783 17.5269 7.3721 17.7619 7.72411 17.8657C8.06435 17.9659 8.4297 17.9179 8.8554 17.7675C8.96227 16.9152 9.3527 16.5962 9.64767 16.147V16.1463C6.6523 15.6995 5.45853 14.1104 4.98475 12.8561C4.3569 11.1906 4.69381 9.11002 5.80405 7.79517C5.82563 7.76955 5.86459 7.70252 5.84949 7.65567C5.34044 6.11797 5.96075 4.84595 5.98356 4.71101C6.57105 4.88473 6.66651 4.53623 8.53551 5.67174L8.85856 5.86581C8.99368 5.94636 8.95121 5.90038 9.08633 5.89021C9.86667 5.67823 10.6893 5.56119 11.4998 5.55066C12.3165 5.56119 13.1339 5.67823 13.9465 5.8988L14.0511 5.90933C14.0419 5.90793 14.0795 5.90266 14.1425 5.86511C16.4772 4.45095 16.3933 4.91315 17.0194 4.7096C17.0421 4.84472 17.6541 6.13745 17.1505 7.65567C17.0826 7.86484 19.1746 9.78051 18.0151 12.8556C17.5413 14.1104 16.3477 15.6995 13.3523 16.1463V16.147C13.7363 16.7322 14.1976 17.0435 14.1951 18.2507V23C19.2178 21.7864 22.9998 16.8901 22.9998 11.5C23 5.18356 17.8164 0 11.5 0Z" fill="#FF0097"/>
</g>
</svg>
