<svg width="41" height="23" viewBox="0 0 41 23" fill="none" xmlns="http://www.w3.org/2000/svg">
<path d="M23.1112 11.1771C23.1112 17.3591 17.924 22.3542 11.5556 22.3542C5.18719 22.3542 0 17.4086 0 11.1771C0 4.94561 5.18719 0 11.5556 0C17.924 0 23.1112 4.99507 23.1112 11.1771Z" fill="#FF0097"/>
<path d="M35.7967 11.1767C35.7967 17.0126 33.2288 21.7109 30.0446 21.7109C26.8604 21.7109 24.2925 17.0126 24.2925 11.1767C24.2925 5.34091 26.8604 0.642578 30.0446 0.642578C33.1775 0.642578 35.7967 5.39037 35.7967 11.1767Z" fill="#FF0097"/>
<path d="M40.9319 11.1785C40.9319 16.3714 40.0075 20.6247 38.8776 20.6247C37.7477 20.6247 36.8232 16.3714 36.8232 11.1785C36.8232 5.98565 37.7477 1.73242 38.8776 1.73242C40.0588 1.73242 40.9319 5.98565 40.9319 11.1785Z" fill="#FF0097"/>
</svg>
