<svg width="30" height="30" viewBox="0 0 30 30" fill="none" xmlns="http://www.w3.org/2000/svg">
<path d="M0.707107 28.1595C0.316583 27.769 0.316583 27.1358 0.707107 26.7453L26.7453 0.70712C27.1358 0.316596 27.769 0.316595 28.1595 0.70712L29.2409 1.78858C29.6315 2.1791 29.6315 2.81227 29.2409 3.20279L3.20278 29.241C2.81225 29.6315 2.17909 29.6315 1.78856 29.241L0.707107 28.1595Z" fill="#73979C"/>
<path d="M29.2929 28.1595C29.6834 27.769 29.6834 27.1358 29.2929 26.7453L3.25472 0.707112C2.8642 0.316588 2.23103 0.316585 1.8405 0.707109L0.759045 1.78857C0.368521 2.17909 0.368521 2.81226 0.759045 3.20278L26.7972 29.241C27.1877 29.6315 27.8209 29.6315 28.2114 29.241L29.2929 28.1595Z" fill="#73979C"/>
</svg>
