<svg width="30" height="30" viewBox="0 0 30 30" fill="none" xmlns="http://www.w3.org/2000/svg">
<path fill-rule="evenodd" clip-rule="evenodd" d="M9.34506 29L11.4449 26.9232L8.04375 23.5741L23.7039 23.5741C25.3372 23.5741 26.6614 22.2645 26.6614 20.6491V16.2615H23.7039V20.6491H8.04375L11.4301 17.2999L9.34506 15.2378L3.43001 21.0878C2.85662 21.6583 2.85662 22.5795 3.43001 23.15L9.34506 29Z" fill="white"/>
<path fill-rule="evenodd" clip-rule="evenodd" d="M5.95872 8.94893L21.6188 8.94893L18.2324 12.2981L20.3175 14.3602L26.2326 8.51018C26.8059 7.93971 26.8059 7.01851 26.2326 6.44804L20.3175 0.597988L18.2324 2.66013L21.6188 6.02391L5.95872 6.02391C4.32533 6.02391 3.00119 7.3335 3.00119 8.94893V13.3365L5.95872 13.3365V8.94893Z" fill="white"/>
</svg>
