<svg width="196" height="30" viewBox="0 0 196 30" fill="none" xmlns="http://www.w3.org/2000/svg">
  <path fill-rule="evenodd" clip-rule="evenodd" d="M3.54198 19.1821C4.06464 19.1821 4.56164 19.0608 5.03298 18.8181C5.50431 18.5754 5.88698 18.2138 6.18098 17.7331C6.47498 17.2524 6.62198 16.6761 6.62198 16.0041C6.62198 15.4441 6.51931 14.9704 6.31398 14.5831C6.10864 14.1958 5.83331 13.9041 5.48798 13.7081C5.14264 13.5121 4.76931 13.4141 4.36798 13.4141C3.91998 13.4141 3.51864 13.5238 3.16398 13.7431C2.80931 13.9624 2.45464 14.2588 2.09998 14.6321V8.9621C2.09998 8.9341 2.08364 8.90843 2.05098 8.8851C2.01831 8.86176 1.99264 8.8501 1.97398 8.8501L1.90398 8.8641L0.153977 9.7181C0.125977 9.72743 0.118977 9.75543 0.132977 9.8021C0.146977 9.84876 0.167977 9.8721 0.195977 9.8721H0.223977C0.51331 9.75076 0.72331 9.6901 0.853977 9.6901C1.02198 9.6901 1.14098 9.76476 1.21098 9.9141C1.28098 10.0634 1.31598 10.3061 1.31598 10.6421V17.5581C1.31598 17.9034 1.25531 18.1671 1.13398 18.3491C1.01264 18.5311 0.802643 18.7248 0.503977 18.9301C0.475977 18.9488 0.466643 18.9768 0.475977 19.0141C0.48531 19.0514 0.508643 19.0701 0.545977 19.0701H0.573977L1.63798 18.5661C2.18864 18.9768 2.82331 19.1821 3.54198 19.1821ZM3.97598 18.9161C3.70531 18.9161 3.42531 18.8554 3.13598 18.7341C2.84664 18.6128 2.60164 18.4214 2.40098 18.1601C2.20031 17.8988 2.09998 17.5628 2.09998 17.1521V14.8561C2.40798 14.5481 2.70664 14.3078 2.99598 14.1351C3.28531 13.9624 3.58864 13.8761 3.90598 13.8761C4.44731 13.8761 4.88131 14.1001 5.20798 14.5481C5.53464 14.9961 5.69798 15.6401 5.69798 16.4801C5.69798 17.2641 5.54631 17.8661 5.24298 18.2861C4.93964 18.7061 4.51731 18.9161 3.97598 18.9161ZM12.362 19.1261L12.306 19.1401C12.2126 19.1401 12.124 19.0328 12.04 18.8181C11.956 18.6034 11.914 18.3234 11.914 17.9781V17.9221C11.55 18.3328 11.186 18.6338 10.822 18.8251C10.458 19.0164 10.08 19.1121 9.68798 19.1121C9.22131 19.1121 8.85731 18.9651 8.59598 18.6711C8.33464 18.3771 8.20398 17.9501 8.20398 17.3901V15.2481C8.20398 14.8841 8.17131 14.6204 8.10598 14.4571C8.04064 14.2938 7.93331 14.2121 7.78398 14.2121C7.65331 14.2121 7.49464 14.2588 7.30798 14.3521H7.29398C7.25664 14.3521 7.22864 14.3264 7.20998 14.2751C7.19131 14.2238 7.20064 14.1934 7.23798 14.1841L8.79198 13.4841L8.84798 13.4701C8.87598 13.4701 8.90631 13.4818 8.93898 13.5051C8.97164 13.5284 8.98798 13.5541 8.98798 13.5821V16.9281C8.98798 18.0108 9.37998 18.5521 10.164 18.5521C10.4626 18.5521 10.766 18.4751 11.074 18.3211C11.382 18.1671 11.662 17.9548 11.914 17.6841V15.2481C11.914 14.8748 11.8836 14.6088 11.823 14.4501C11.7623 14.2914 11.6526 14.2121 11.494 14.2121C11.3633 14.2121 11.2046 14.2588 11.018 14.3521H11.004C10.9666 14.3521 10.941 14.3264 10.927 14.2751C10.913 14.2238 10.9246 14.1934 10.962 14.1841L12.516 13.4841L12.558 13.4701C12.586 13.4701 12.6163 13.4818 12.649 13.5051C12.6816 13.5284 12.698 13.5541 12.698 13.5821V17.5021C12.698 17.8194 12.7353 18.0481 12.81 18.1881C12.8846 18.3281 13.0106 18.3981 13.188 18.3981C13.3466 18.3981 13.594 18.3328 13.93 18.2021H13.958C13.9953 18.2021 14.021 18.2231 14.035 18.2651C14.049 18.3071 14.0373 18.3374 14 18.3561L12.362 19.1261ZM15.96 11.8321C16.1466 11.8321 16.2913 11.7808 16.394 11.6781C16.4966 11.5754 16.548 11.4308 16.548 11.2441C16.548 11.0574 16.4966 10.9128 16.394 10.8101C16.2913 10.7074 16.1466 10.6561 15.96 10.6561C15.764 10.6561 15.6123 10.7074 15.505 10.8101C15.3976 10.9128 15.344 11.0574 15.344 11.2441C15.344 11.4308 15.3976 11.5754 15.505 11.6781C15.6123 11.7808 15.764 11.8321 15.96 11.8321ZM15.316 18.9861C15.1853 18.9954 15.008 19.0001 14.784 19.0001C14.7653 19.0001 14.756 18.9721 14.756 18.9161C14.756 18.8601 14.7653 18.8321 14.784 18.8321C15.036 18.8321 15.225 18.8064 15.351 18.7551C15.477 18.7038 15.5633 18.6104 15.61 18.4751C15.6566 18.3398 15.68 18.1368 15.68 17.8661V15.2481C15.68 14.9121 15.645 14.6694 15.575 14.5201C15.505 14.3708 15.386 14.2961 15.218 14.2961C15.05 14.2961 14.84 14.3614 14.588 14.4921H14.574C14.5366 14.4921 14.5086 14.4688 14.49 14.4221C14.4713 14.3754 14.476 14.3428 14.504 14.3241L16.324 13.4841L16.38 13.4701C16.3986 13.4701 16.422 13.4818 16.45 13.5051C16.478 13.5284 16.492 13.5541 16.492 13.5821C16.492 13.6474 16.4873 13.8341 16.478 14.1421C16.4705 14.3885 16.466 14.6707 16.4645 14.9888L16.464 17.8661C16.464 18.1461 16.4873 18.3514 16.534 18.4821C16.5806 18.6128 16.6646 18.7038 16.786 18.7551C16.9073 18.8064 17.094 18.8321 17.346 18.8321C17.374 18.8321 17.388 18.8601 17.388 18.9161C17.388 18.9721 17.374 19.0001 17.346 19.0001C17.1313 19.0001 16.9586 18.9954 16.828 18.9861L16.072 18.9721L15.316 18.9861ZM18.424 19.0001C18.648 19.0001 18.8253 18.9954 18.956 18.9861L19.712 18.9721L20.496 18.9861C20.6266 18.9954 20.7946 19.0001 21 19.0001C21.028 19.0001 21.042 18.9721 21.042 18.9161C21.042 18.8601 21.028 18.8321 21 18.8321C20.748 18.8321 20.5613 18.8041 20.44 18.7481C20.3186 18.6921 20.237 18.5988 20.195 18.4681C20.153 18.3374 20.132 18.1368 20.132 17.8661V8.9621C20.132 8.9341 20.1156 8.90843 20.083 8.8851C20.0503 8.86176 20.0246 8.8501 20.006 8.8501C19.978 8.8501 19.9546 8.85476 19.936 8.8641L18.144 9.7181C18.116 9.72743 18.109 9.75543 18.123 9.8021C18.137 9.84876 18.158 9.8721 18.186 9.8721H18.214C18.5033 9.74143 18.718 9.6761 18.858 9.6761C19.026 9.6761 19.1426 9.75076 19.208 9.9001C19.2733 10.0494 19.306 10.2921 19.306 10.6281V17.8661C19.306 18.1368 19.2826 18.3398 19.236 18.4751C19.1893 18.6104 19.1053 18.7038 18.984 18.7551C18.8626 18.8064 18.676 18.8321 18.424 18.8321C18.396 18.8321 18.382 18.8601 18.382 18.9161C18.382 18.9721 18.396 19.0001 18.424 19.0001ZM24.969 19.0001C24.6936 19.1121 24.4066 19.1681 24.108 19.1681C23.716 19.1681 23.394 19.0794 23.142 18.9021C22.89 18.7248 22.764 18.4308 22.764 18.0201V14.7301C22.764 14.4874 22.7476 14.3148 22.715 14.2121C22.6823 14.1094 22.6193 14.0418 22.526 14.0091C22.4326 13.9764 22.274 13.9601 22.05 13.9601C22.0126 13.9601 21.994 13.9298 21.994 13.8691C21.994 13.8084 22.0126 13.7781 22.05 13.7781C22.4233 13.7688 22.7266 13.6684 22.96 13.4771C23.1933 13.2858 23.3286 13.0314 23.366 12.7141C23.366 12.6861 23.4033 12.6721 23.478 12.6721C23.5433 12.6721 23.576 12.6861 23.576 12.7141V13.7501C24.0426 13.7408 24.6913 13.6941 25.522 13.6101C25.5406 13.6101 25.5616 13.6451 25.585 13.7151C25.6083 13.7851 25.62 13.8621 25.62 13.9461C25.62 14.0208 25.6036 14.0978 25.571 14.1771C25.5383 14.2564 25.5033 14.2914 25.466 14.2821C24.9526 14.1514 24.3226 14.0768 23.576 14.0581V17.5441C23.576 17.9268 23.6716 18.2114 23.863 18.3981C24.0543 18.5848 24.3273 18.6781 24.682 18.6781C25.1113 18.6781 25.4846 18.5474 25.802 18.2861L25.83 18.2721C25.8673 18.2721 25.8953 18.2931 25.914 18.3351C25.9326 18.3771 25.928 18.4074 25.9 18.4261C25.5546 18.6968 25.2443 18.8881 24.969 19.0001ZM35.84 19.0421C35.9333 19.0421 35.9846 19.0234 35.994 18.9861L37.744 14.7861C37.9026 14.4034 38.0636 14.1374 38.227 13.9881C38.3903 13.8388 38.584 13.7641 38.808 13.7641C38.836 13.7641 38.85 13.7361 38.85 13.6801C38.85 13.6241 38.836 13.5961 38.808 13.5961C38.612 13.5961 38.4673 13.6008 38.374 13.6101L37.87 13.6241L37.03 13.6101C36.8993 13.6008 36.708 13.5961 36.456 13.5961C36.4373 13.5961 36.428 13.6241 36.428 13.6801C36.428 13.7361 36.4373 13.7641 36.456 13.7641C36.8386 13.7641 37.1186 13.8084 37.296 13.8971C37.4733 13.9858 37.562 14.1234 37.562 14.3101C37.562 14.4408 37.5293 14.5761 37.464 14.7161L36.148 17.9501L34.454 14.3101C34.4166 14.2354 34.398 14.1654 34.398 14.1001C34.398 13.8761 34.664 13.7641 35.196 13.7641C35.224 13.7641 35.238 13.7361 35.238 13.6801C35.238 13.6241 35.224 13.5961 35.196 13.5961C34.972 13.5961 34.7946 13.6008 34.664 13.6101L33.754 13.6241L33.236 13.6101C33.1426 13.6008 33.0026 13.5961 32.816 13.5961C32.7973 13.5961 32.788 13.6241 32.788 13.6801C32.788 13.7361 32.7973 13.7641 32.816 13.7641C32.9933 13.7641 33.1426 13.8294 33.264 13.9601C33.3853 14.0908 33.5393 14.3568 33.726 14.7581L33.95 15.2481L32.844 17.9221L31.136 14.3101C31.0986 14.2354 31.08 14.1654 31.08 14.1001C31.08 13.9788 31.15 13.8924 31.29 13.8411C31.43 13.7898 31.6306 13.7641 31.892 13.7641C31.92 13.7641 31.934 13.7361 31.934 13.6801C31.934 13.6241 31.92 13.5961 31.892 13.5961C31.6306 13.5961 31.43 13.6008 31.29 13.6101L30.45 13.6241L29.918 13.6101C29.8153 13.6008 29.6706 13.5961 29.484 13.5961C29.456 13.5961 29.442 13.6241 29.442 13.6801C29.442 13.7361 29.456 13.7641 29.484 13.7641C29.6706 13.7641 29.827 13.8294 29.953 13.9601C30.079 14.0908 30.2353 14.3568 30.422 14.7581L32.382 18.9861C32.3913 19.0234 32.4426 19.0421 32.536 19.0421C32.6293 19.0421 32.6806 19.0234 32.69 18.9861L34.104 15.5841L35.686 18.9861C35.6953 19.0234 35.7466 19.0421 35.84 19.0421ZM41.23 11.6781C41.1273 11.7808 40.9826 11.8321 40.796 11.8321C40.6 11.8321 40.4483 11.7808 40.341 11.6781C40.2336 11.5754 40.18 11.4308 40.18 11.2441C40.18 11.0574 40.2336 10.9128 40.341 10.8101C40.4483 10.7074 40.6 10.6561 40.796 10.6561C40.9826 10.6561 41.1273 10.7074 41.23 10.8101C41.3326 10.9128 41.384 11.0574 41.384 11.2441C41.384 11.4308 41.3326 11.5754 41.23 11.6781ZM39.62 19.0001C39.844 19.0001 40.0213 18.9954 40.152 18.9861L40.908 18.9721L41.664 18.9861C41.7946 18.9954 41.9673 19.0001 42.182 19.0001C42.21 19.0001 42.224 18.9721 42.224 18.9161C42.224 18.8601 42.21 18.8321 42.182 18.8321C41.93 18.8321 41.7433 18.8064 41.622 18.7551C41.5006 18.7038 41.4166 18.6128 41.37 18.4821C41.3233 18.3514 41.3 18.1461 41.3 17.8661L41.3005 14.9888C41.302 14.6707 41.3065 14.3885 41.314 14.1421C41.3233 13.8341 41.328 13.6474 41.328 13.5821C41.328 13.5541 41.314 13.5284 41.286 13.5051C41.258 13.4818 41.2346 13.4701 41.216 13.4701L41.16 13.4841L39.34 14.3241C39.312 14.3428 39.3073 14.3754 39.326 14.4221C39.3446 14.4688 39.3726 14.4921 39.41 14.4921H39.424C39.676 14.3614 39.886 14.2961 40.054 14.2961C40.222 14.2961 40.341 14.3708 40.411 14.5201C40.481 14.6694 40.516 14.9121 40.516 15.2481V17.8661C40.516 18.1368 40.4926 18.3398 40.446 18.4751C40.3993 18.6104 40.313 18.7038 40.187 18.7551C40.061 18.8064 39.872 18.8321 39.62 18.8321C39.6013 18.8321 39.592 18.8601 39.592 18.9161C39.592 18.9721 39.6013 19.0001 39.62 19.0001ZM46.193 19.0001C45.9176 19.1121 45.6306 19.1681 45.332 19.1681C44.94 19.1681 44.618 19.0794 44.366 18.9021C44.114 18.7248 43.988 18.4308 43.988 18.0201V14.7301C43.988 14.4874 43.9716 14.3148 43.939 14.2121C43.9063 14.1094 43.8433 14.0418 43.75 14.0091C43.6566 13.9764 43.498 13.9601 43.274 13.9601C43.2366 13.9601 43.218 13.9298 43.218 13.8691C43.218 13.8084 43.2366 13.7781 43.274 13.7781C43.6473 13.7688 43.9506 13.6684 44.184 13.4771C44.4173 13.2858 44.5526 13.0314 44.59 12.7141C44.59 12.6861 44.6273 12.6721 44.702 12.6721C44.7673 12.6721 44.8 12.6861 44.8 12.7141V13.7501C45.2666 13.7408 45.9153 13.6941 46.746 13.6101C46.7646 13.6101 46.7856 13.6451 46.809 13.7151C46.8323 13.7851 46.844 13.8621 46.844 13.9461C46.844 14.0208 46.8276 14.0978 46.795 14.1771C46.7623 14.2564 46.7273 14.2914 46.69 14.2821C46.1766 14.1514 45.5466 14.0768 44.8 14.0581V17.5441C44.8 17.9268 44.8956 18.2114 45.087 18.3981C45.2783 18.5848 45.5513 18.6781 45.906 18.6781C46.3353 18.6781 46.7086 18.5474 47.026 18.2861L47.054 18.2721C47.0913 18.2721 47.1193 18.2931 47.138 18.3351C47.1566 18.3771 47.152 18.4074 47.124 18.4261C46.7786 18.6968 46.4683 18.8881 46.193 19.0001ZM47.796 19.0001C48.0106 19.0001 48.1833 18.9954 48.314 18.9861L49.07 18.9721L49.826 18.9861C49.9566 18.9954 50.1293 19.0001 50.344 19.0001C50.372 19.0001 50.386 18.9721 50.386 18.9161C50.386 18.8601 50.372 18.8321 50.344 18.8321C50.092 18.8321 49.9053 18.8064 49.784 18.7551C49.6626 18.7038 49.5786 18.6104 49.532 18.4751C49.4853 18.3398 49.462 18.1368 49.462 17.8661V14.8841C49.7046 14.6134 49.9753 14.4011 50.274 14.2471C50.5726 14.0931 50.8666 14.0161 51.156 14.0161C51.5946 14.0161 51.919 14.1491 52.129 14.4151C52.339 14.6811 52.444 15.0894 52.444 15.6401V17.8661C52.444 18.1368 52.4206 18.3398 52.374 18.4751C52.3273 18.6104 52.2433 18.7038 52.122 18.7551C52.0006 18.8064 51.814 18.8321 51.562 18.8321C51.534 18.8321 51.52 18.8601 51.52 18.9161C51.52 18.9721 51.534 19.0001 51.562 19.0001C51.7766 19.0001 51.9493 18.9954 52.08 18.9861L52.836 18.9721L53.592 18.9861C53.7226 18.9954 53.8953 19.0001 54.11 19.0001C54.138 19.0001 54.152 18.9721 54.152 18.9161C54.152 18.8601 54.138 18.8321 54.11 18.8321C53.858 18.8321 53.6713 18.8064 53.55 18.7551C53.4286 18.7038 53.3446 18.6104 53.298 18.4751C53.2513 18.3398 53.228 18.1368 53.228 17.8661V15.1501C53.228 14.5994 53.088 14.1794 52.808 13.8901C52.528 13.6008 52.1313 13.4561 51.618 13.4561C51.2353 13.4561 50.869 13.5518 50.519 13.7431C50.169 13.9344 49.8166 14.2354 49.462 14.6461V8.9621C49.462 8.9341 49.4503 8.90843 49.427 8.8851C49.4036 8.86176 49.3733 8.8501 49.336 8.8501H49.294L47.516 9.7181C47.4786 9.72743 47.4693 9.75543 47.488 9.8021C47.5066 9.84876 47.53 9.8721 47.558 9.8721H47.586C47.8753 9.74143 48.09 9.6761 48.23 9.6761C48.398 9.6761 48.5146 9.75076 48.58 9.9001C48.6453 10.0494 48.678 10.2921 48.678 10.6281V17.8661C48.678 18.1368 48.6546 18.3398 48.608 18.4751C48.5613 18.6104 48.4773 18.7038 48.356 18.7551C48.2346 18.8064 48.048 18.8321 47.796 18.8321C47.768 18.8321 47.754 18.8601 47.754 18.9161C47.754 18.9721 47.768 19.0001 47.796 19.0001ZM85.337 18.8251C84.8843 19.0631 84.392 19.1821 83.86 19.1821C83.3186 19.1821 82.8403 19.0491 82.425 18.7831C82.0096 18.5171 81.69 18.1578 81.466 17.7051C81.242 17.2524 81.13 16.7601 81.13 16.2281C81.13 15.6214 81.277 15.1058 81.571 14.6811C81.865 14.2564 82.243 13.9391 82.705 13.7291C83.167 13.5191 83.636 13.4141 84.112 13.4141C84.6626 13.4141 85.1433 13.5494 85.554 13.8201C85.9646 14.0908 86.2796 14.4478 86.499 14.8911C86.7183 15.3344 86.828 15.8034 86.828 16.2981C86.828 16.8768 86.6926 17.3831 86.422 17.8171C86.1513 18.2511 85.7896 18.5871 85.337 18.8251ZM84.266 18.9161C83.846 18.9161 83.468 18.7761 83.132 18.4961C82.796 18.2161 82.5346 17.8381 82.348 17.3621C82.1613 16.8861 82.068 16.3634 82.068 15.7941C82.068 15.1128 82.2056 14.5901 82.481 14.2261C82.7563 13.8621 83.146 13.6801 83.65 13.6801C84.0793 13.6801 84.462 13.8084 84.798 14.0651C85.134 14.3218 85.3976 14.6788 85.589 15.1361C85.7803 15.5934 85.876 16.1114 85.876 16.6901C85.876 17.4461 85.736 18.0061 85.456 18.3701C85.176 18.7341 84.7793 18.9161 84.266 18.9161ZM88.466 18.9861C88.3446 18.9954 88.1766 19.0001 87.962 19.0001C87.934 19.0001 87.92 18.9721 87.92 18.9161C87.92 18.8601 87.934 18.8321 87.962 18.8321C88.214 18.8321 88.4006 18.8064 88.522 18.7551C88.6433 18.7038 88.725 18.6128 88.767 18.4821C88.809 18.3514 88.83 18.1461 88.83 17.8661V15.0941C88.83 14.7768 88.7926 14.5481 88.718 14.4081C88.6433 14.2681 88.5173 14.1981 88.34 14.1981C88.1906 14.1981 87.9386 14.2681 87.584 14.4081H87.556C87.5186 14.4081 87.493 14.3871 87.479 14.3451C87.465 14.3031 87.4766 14.2728 87.514 14.2541L89.138 13.4841C89.1566 13.4748 89.1846 13.4701 89.222 13.4701C89.306 13.4701 89.3946 13.5774 89.488 13.7921C89.5813 14.0068 89.628 14.2821 89.628 14.6181C89.9826 14.2074 90.335 13.9041 90.685 13.7081C91.035 13.5121 91.3966 13.4141 91.77 13.4141C92.2926 13.4141 92.694 13.5588 92.974 13.8481C93.254 14.1374 93.394 14.5621 93.394 15.1221V17.8661C93.394 18.1461 93.415 18.3514 93.457 18.4821C93.499 18.6128 93.5806 18.7038 93.702 18.7551C93.8233 18.8064 94.01 18.8321 94.262 18.8321C94.29 18.8321 94.304 18.8601 94.304 18.9161C94.304 18.9721 94.29 19.0001 94.262 19.0001C94.0473 19.0001 93.8793 18.9954 93.758 18.9861L93.002 18.9721L92.232 18.9861C92.1106 18.9954 91.9426 19.0001 91.728 19.0001C91.7 19.0001 91.686 18.9721 91.686 18.9161C91.686 18.8601 91.7 18.8321 91.728 18.8321C91.98 18.8321 92.1666 18.8064 92.288 18.7551C92.4093 18.7038 92.491 18.6128 92.533 18.4821C92.575 18.3514 92.596 18.1461 92.596 17.8661V15.5981C92.596 15.0474 92.491 14.6414 92.281 14.3801C92.071 14.1188 91.7466 13.9881 91.308 13.9881C91.0186 13.9881 90.727 14.0651 90.433 14.2191C90.139 14.3731 89.8706 14.5854 89.628 14.8561V17.8661C89.628 18.1461 89.649 18.3514 89.691 18.4821C89.733 18.6128 89.8146 18.7038 89.936 18.7551C90.0573 18.8064 90.244 18.8321 90.496 18.8321C90.524 18.8321 90.538 18.8601 90.538 18.9161C90.538 18.9721 90.524 19.0001 90.496 19.0001C90.2813 19.0001 90.1133 18.9954 89.992 18.9861L89.236 18.9721L88.466 18.9861Z" fill="#001A34"/>
  <g opacity="0.822986">
    <path fill-rule="evenodd" clip-rule="evenodd" d="M102 8.72988L130.343 4.54297L122.421 28.4573L102 8.72988Z" stroke="#001A34"/>
    <path fill-rule="evenodd" clip-rule="evenodd" d="M108.2 23.1429L128.571 12.8008L111.963 1L108.2 23.1429Z" stroke="#001A34"/>
    <path fill-rule="evenodd" clip-rule="evenodd" d="M121.486 19.5999L119.195 6.31421L109.086 13.3947L121.486 19.5999Z" stroke="#001A34"/>
    <path fill-rule="evenodd" clip-rule="evenodd" d="M122.371 13.91L113.514 12.5144L115.99 20.4858L122.371 13.91Z" stroke="#001A34"/>
    <path fill-rule="evenodd" clip-rule="evenodd" d="M177.429 12.1894V10.7429H175.937V12.1894H177.429ZM141.143 21.0554C141.64 21.0554 142.066 20.8858 142.421 20.5465C142.776 20.2072 142.954 19.7965 142.954 19.3144V15.7653H139.097V17.2251H141.447V19.1135C141.447 19.3099 141.414 19.4416 141.35 19.5086C141.285 19.5755 141.147 19.609 140.935 19.609H135.004C134.802 19.609 134.666 19.5755 134.597 19.5086C134.528 19.4416 134.493 19.3099 134.493 19.1135V13.3545C134.493 13.1581 134.528 13.0264 134.597 12.9594C134.666 12.8925 134.802 12.859 135.004 12.859H140.935C141.147 12.859 141.285 12.8925 141.35 12.9594C141.414 13.0264 141.447 13.1581 141.447 13.3545V13.7296H142.954V13.1537C142.954 12.6715 142.776 12.2608 142.421 11.9215C142.066 11.5822 141.64 11.4126 141.143 11.4126H134.797C134.299 11.4126 133.876 11.5822 133.525 11.9215C133.175 12.2608 133 12.6715 133 13.1537V19.3144C133 19.7965 133.175 20.2072 133.525 20.5465C133.876 20.8858 134.299 21.0554 134.797 21.0554H141.143ZM146.931 21.0554V15.2295C146.931 15.0331 146.965 14.9014 147.034 14.8344C147.103 14.7675 147.239 14.734 147.442 14.734H151.714V13.2876H147.235C146.737 13.2876 146.313 13.4572 145.963 13.7965C145.613 14.1358 145.438 14.5465 145.438 15.0287V21.0554H146.931ZM161.858 15.0287V21.0554H155.499C155.001 21.0554 154.577 20.8858 154.227 20.5465C153.877 20.2072 153.702 19.7965 153.702 19.3144V16.4483H160.351V15.2295C160.351 15.0331 160.319 14.9014 160.255 14.8344C160.19 14.7675 160.056 14.734 159.854 14.734H153.702V13.2876H160.061C160.559 13.2876 160.983 13.4572 161.332 13.7965C161.683 14.1358 161.858 14.5465 161.858 15.0287ZM160.351 19.609H155.706C155.503 19.609 155.367 19.5755 155.299 19.5086C155.229 19.4416 155.194 19.3099 155.194 19.1135V17.801H160.351V19.609ZM173.853 13.2876L169.43 21.0554H167.936L163.512 13.2876H165.241L168.683 19.4215L172.125 13.2876H173.853ZM177.429 13.2876V21.0554H175.937V13.2876H177.429ZM184.83 21.0554V19.609H182.051C181.849 19.609 181.713 19.5755 181.644 19.5086C181.575 19.4416 181.54 19.3099 181.54 19.1135V14.734H184.83V13.2876H181.54V10.8367H180.047V19.3144C180.047 19.7965 180.222 20.2072 180.572 20.5465C180.922 20.8858 181.346 21.0554 181.844 21.0554H184.83ZM194.475 23.5197C194.124 23.859 193.701 24.0286 193.203 24.0286H188.254V22.5688H192.996C193.198 22.5688 193.334 22.5354 193.403 22.4684C193.473 22.4014 193.507 22.2697 193.507 22.0733V21.0554H188.641C188.143 21.0554 187.719 20.8858 187.369 20.5465C187.019 20.2072 186.844 19.7965 186.844 19.3144V13.3144H188.337V19.1135C188.337 19.3099 188.371 19.4416 188.44 19.5086C188.509 19.5755 188.646 19.609 188.848 19.609H192.996C193.198 19.609 193.334 19.5755 193.403 19.5086C193.473 19.4416 193.507 19.3099 193.507 19.1135V13.3144H195V22.2876C195 22.7697 194.825 23.1804 194.475 23.5197Z" fill="#001A34"/>
  </g>
  <path d="M76 12.5635C76 10.0431 73.9446 8 71.4091 8C69.7535 8 68.3077 8.87405 67.4999 10.1803C66.6923 8.87405 65.2458 8 63.5903 8C61.0548 8 59 10.0431 59 12.5635C59 13.9358 59.6117 15.1634 60.5758 15.9994L67.081 22.4664C67.1921 22.5768 67.3428 22.6389 67.4999 22.6389C67.6571 22.6389 67.8078 22.5768 67.9189 22.4664L74.4241 15.9994C75.3882 15.1634 76 13.9358 76 12.5635Z" fill="#FF0097"/>
</svg>
