<svg width="30" height="30" viewBox="0 0 30 30" fill="none" xmlns="http://www.w3.org/2000/svg">
<g clip-path="url(#clip0)">
<path d="M14.9267 30H3.67667C1.60918 30 -0.0733032 28.3175 -0.0733032 26.25V3.75003C-0.0733032 1.68254 1.60918 0 3.67667 0H14.9267C15.6167 0 16.1767 0.560024 16.1767 1.24997C16.1767 1.93992 15.6166 2.49994 14.9267 2.49994H3.67667C2.9879 2.49994 2.4267 3.0612 2.4267 3.74991V26.2499C2.4267 26.9399 2.98795 27.4998 3.67667 27.4998H14.9267C15.6167 27.4998 16.1767 28.0586 16.1767 28.7498C16.1767 29.4412 15.6166 30 14.9267 30Z" fill="white"/>
<path d="M26.1767 16.2499H11.1767C10.4867 16.2499 9.9267 15.6912 9.9267 15C9.9267 14.31 10.4867 13.75 11.1767 13.75H26.1767C26.8679 13.75 27.4266 14.31 27.4266 15C27.4266 15.6912 26.8679 16.2499 26.1767 16.2499Z" fill="white"/>
<path d="M21.1767 23.7499C20.8542 23.7499 20.5317 23.6249 20.2867 23.3774C19.8017 22.8862 19.8067 22.0949 20.2992 21.6099L26.9967 14.9999L20.2992 8.38994C19.8067 7.90493 19.803 7.11369 20.2867 6.62122C20.7705 6.12874 21.5642 6.12498 22.0542 6.60999L29.6542 14.11C29.8917 14.345 30.0267 14.665 30.0267 15C30.0267 15.335 29.8929 15.6537 29.6542 15.89L22.0542 23.3899C21.8117 23.6299 21.4941 23.7499 21.1767 23.7499Z" fill="white"/>
</g>
<defs>
<clipPath id="clip0">
<rect width="30" height="30" fill="white"/>
</clipPath>
</defs>
</svg>
