<svg width="30" height="30" viewBox="0 0 30 30" fill="none" xmlns="http://www.w3.org/2000/svg">
<path d="M26.4034 18.8075L24.9046 23.8752L21.9623 23.0705L26.4034 18.8075Z" fill="#E4761B" stroke="#E4761B" stroke-width="0.5"/>
<path d="M21.9623 23.0705L24.8002 19.1822L26.4034 18.8075L21.9623 23.0705Z" fill="#E4761B" stroke="#E4761B" stroke-width="0.5"/>
<path fill-rule="evenodd" clip-rule="evenodd" d="M25.6171 14.0039L24.1982 14.9867L24.8002 19.1821L26.4034 18.8074L25.6171 14.0039Z" fill="#F6851B"/>
<path d="M24.1982 14.9867L24.0558 14.7812L23.9288 14.8692L23.9507 15.0222L24.1982 14.9867ZM25.6171 14.0039L25.8639 13.9635L25.8 13.5732L25.4748 13.7984L25.6171 14.0039ZM24.8002 19.1821L24.5527 19.2176L24.5914 19.4877L24.8571 19.4256L24.8002 19.1821ZM26.4034 18.8074L26.4603 19.0509L26.6879 18.9977L26.6501 18.7671L26.4034 18.8074ZM24.3405 15.1922L25.7595 14.2094L25.4748 13.7984L24.0558 14.7812L24.3405 15.1922ZM25.0476 19.1466L24.4457 14.9512L23.9507 15.0222L24.5527 19.2176L25.0476 19.1466ZM26.3465 18.564L24.7433 18.9387L24.8571 19.4256L26.4603 19.0509L26.3465 18.564ZM25.3704 14.0443L26.1567 18.8478L26.6501 18.7671L25.8639 13.9635L25.3704 14.0443Z" fill="#F6851B"/>
<path fill-rule="evenodd" clip-rule="evenodd" d="M26.471 10.429L22.3923 12.0997L26.1393 12.4437L26.2683 11.3442L26.471 10.429Z" fill="#763D16"/>
<path d="M22.3923 12.0997L22.2975 11.8684L22.3694 12.3487L22.3923 12.0997ZM26.471 10.429L26.715 10.483L26.8184 10.0165L26.3762 10.1976L26.471 10.429ZM26.1393 12.4437L26.1164 12.6927L26.3592 12.715L26.3876 12.4729L26.1393 12.4437ZM26.2683 11.3442L26.0242 11.2901L26.0214 11.3025L26.02 11.3151L26.2683 11.3442ZM22.487 12.3311L26.5657 10.6603L26.3762 10.1976L22.2975 11.8684L22.487 12.3311ZM26.1621 12.1948L22.4151 11.8508L22.3694 12.3487L26.1164 12.6927L26.1621 12.1948ZM26.02 11.3151L25.891 12.4146L26.3876 12.4729L26.5165 11.3733L26.02 11.3151ZM26.2269 10.3749L26.0242 11.2901L26.5123 11.3983L26.715 10.483L26.2269 10.3749Z" fill="#763D16"/>
<path fill-rule="evenodd" clip-rule="evenodd" d="M26.9562 10.8159L26.2683 11.3442L26.471 10.429L26.9562 10.8159ZM26.1393 12.4437L26.8149 11.7988L26.2683 11.3442L26.1393 12.4437ZM26.1393 12.4437L22.3923 12.0997L25.6171 14.004L26.1393 12.4437Z" fill="#763D16"/>
<path d="M26.2683 11.3442L26.0242 11.2901L26.0214 11.3025L26.02 11.3151L26.2683 11.3442ZM26.9562 10.8159L27.1085 11.0142L27.3619 10.8197L27.1121 10.6205L26.9562 10.8159ZM26.471 10.429L26.6268 10.2335L26.3135 9.98365L26.2269 10.3749L26.471 10.429ZM26.8149 11.7988L26.9876 11.9796L27.1905 11.7859L26.9748 11.6065L26.8149 11.7988ZM22.3923 12.0997L22.4151 11.8508L22.2651 12.315L22.3923 12.0997ZM25.6171 14.004L25.49 14.2192L25.7561 14.3764L25.8542 14.0833L25.6171 14.004ZM26.4205 11.5425L27.1085 11.0142L26.804 10.6177L26.116 11.1459L26.4205 11.5425ZM26.2269 10.3749L26.0242 11.2901L26.5123 11.3983L26.715 10.483L26.2269 10.3749ZM27.1121 10.6205L26.6268 10.2335L26.3151 10.6244L26.8004 11.0114L27.1121 10.6205ZM26.6423 11.6179L25.9666 12.2629L26.3119 12.6246L26.9876 11.9796L26.6423 11.6179ZM26.1084 11.5364L26.6551 11.991L26.9748 11.6065L26.4281 11.152L26.1084 11.5364ZM26.3876 12.4729L26.5165 11.3733L26.02 11.3151L25.891 12.4146L26.3876 12.4729ZM26.1621 12.1948L22.4151 11.8508L22.3694 12.3487L26.1164 12.6927L26.1621 12.1948ZM22.2651 12.315L25.49 14.2192L25.7442 13.7887L22.5194 11.8845L22.2651 12.315ZM25.8542 14.0833L26.3763 12.5231L25.9022 12.3644L25.3801 13.9246L25.8542 14.0833Z" fill="#763D16"/>
<path d="M18.7988 21.8358L19.8185 22.1614L21.9623 23.0705L18.7988 21.8358Z" fill="#E2761B" stroke="#E2761B" stroke-width="0.5"/>
<path fill-rule="evenodd" clip-rule="evenodd" d="M21.3849 12.6096L25.6171 14.0039L26.5877 12.7877L26.1393 12.4437L25.6171 14.0039L22.3923 12.0997L21.3849 12.6096Z" fill="#763D16"/>
<path d="M25.6171 14.0039L25.5389 14.2414L25.7041 14.2958L25.8125 14.1599L25.6171 14.0039ZM21.3849 12.6096L21.272 12.3865L20.7345 12.6585L21.3066 12.847L21.3849 12.6096ZM26.5877 12.7877L26.7831 12.9436L26.942 12.7445L26.7398 12.5893L26.5877 12.7877ZM26.1393 12.4437L26.2914 12.2454L26.0134 12.0321L25.9022 12.3644L26.1393 12.4437ZM22.3923 12.0997L22.5194 11.8845L22.4015 11.8149L22.2794 11.8767L22.3923 12.0997ZM25.6954 13.7665L21.4631 12.3721L21.3066 12.847L25.5389 14.2414L25.6954 13.7665ZM26.3923 12.6318L25.4217 13.848L25.8125 14.1599L26.7831 12.9436L26.3923 12.6318ZM25.9871 12.6421L26.4355 12.9861L26.7398 12.5893L26.2914 12.2454L25.9871 12.6421ZM25.8542 14.0833L26.3763 12.5231L25.9022 12.3644L25.3801 13.9246L25.8542 14.0833ZM22.2651 12.315L25.49 14.2192L25.7443 13.7887L22.5194 11.8845L22.2651 12.315ZM21.4978 12.8326L22.5052 12.3228L22.2794 11.8767L21.272 12.3865L21.4978 12.8326Z" fill="#763D16"/>
<path d="M23.3997 7.31458L22.3923 12.0997L21.3849 12.6095L23.3997 7.31458Z" fill="#763D16" stroke="#763D16" stroke-width="0.5"/>
<path d="M26.471 10.4289L22.3923 12.0997L23.3996 7.31458L26.471 10.4289Z" fill="#763D16" stroke="#763D16" stroke-width="0.5"/>
<path d="M23.3997 7.31465L27.6565 6.82324L26.471 10.429L23.3997 7.31465Z" fill="#763D16" stroke="#763D16" stroke-width="0.5"/>
<path d="M25.6171 14.0039L24.1982 14.9867L21.3849 12.6095L25.6171 14.0039Z" fill="#F6851B" stroke="#F6851B" stroke-width="0.5"/>
<path d="M27.4722 3.3772L27.6565 6.82321L23.3997 7.31462L27.4722 3.3772Z" fill="#763D16" stroke="#763D16" stroke-width="0.5"/>
<path d="M27.4722 3.3772L18.9647 9.56282L18.8541 5.36741L27.4722 3.3772Z" fill="#E2761B" stroke="#E2761B" stroke-width="0.5"/>
<path d="M12.5272 4.86377L18.8541 5.36746L18.9647 9.56288L12.5272 4.86377Z" fill="#F6851B" stroke="#F6851B" stroke-width="0.5"/>
<path d="M21.3849 12.6095L18.9647 9.56278L23.3996 7.31458L21.3849 12.6095Z" fill="#763D16" stroke="#763D16" stroke-width="0.5"/>
<path d="M21.3849 12.6095L24.1982 14.9867L20.2485 15.4228L21.3849 12.6095Z" fill="#E4761B" stroke="#E4761B" stroke-width="0.5"/>
<path d="M20.2485 15.4229L18.9647 9.56287L21.3849 12.6096L20.2485 15.4229Z" fill="#E4761B" stroke="#E4761B" stroke-width="0.5"/>
<path d="M23.3996 7.31462L18.9647 9.56282L27.4722 3.3772L23.3996 7.31462Z" fill="#763D16" stroke="#763D16" stroke-width="0.5"/>
<path d="M12.5825 22.9721L14.5911 25.0667L11.8577 22.579L12.5825 22.9721Z" fill="#C0AD9E" stroke="#C0AD9E" stroke-width="0.5"/>
<path d="M21.9623 23.0704L22.9144 19.4524L24.8002 19.1821L21.9623 23.0704Z" fill="#CD6116" stroke="#CD6116" stroke-width="0.5"/>
<path d="M4.43737 12.8922L7.9141 9.2373L4.88579 12.456L4.43737 12.8922Z" fill="#E2761B" stroke="#E2761B" stroke-width="0.5"/>
<path fill-rule="evenodd" clip-rule="evenodd" d="M15.5801 9.45231L18.9647 9.56288L12.5272 4.86377L15.5801 9.45231ZM22.9144 19.4525L24.8002 19.1822L24.1982 14.9868L22.9144 19.4525Z" fill="#F6851B"/>
<path d="M18.9647 9.56288L18.9565 9.81274L19.7673 9.83923L19.1121 9.36095L18.9647 9.56288ZM15.5801 9.45231L15.3719 9.59079L15.4433 9.69797L15.5719 9.70218L15.5801 9.45231ZM12.5272 4.86377L12.6746 4.66184L12.3191 5.00225L12.5272 4.86377ZM24.8002 19.1822L24.8356 19.4297L25.0831 19.3942L25.0476 19.1467L24.8002 19.1822ZM22.9144 19.4525L22.6741 19.3834L22.5674 19.7548L22.9498 19.7L22.9144 19.4525ZM24.1982 14.9868L24.4457 14.9513L23.9579 14.9177L24.1982 14.9868ZM18.9728 9.31301L15.5883 9.20244L15.5719 9.70218L18.9565 9.81274L18.9728 9.31301ZM12.3798 5.06569L18.8173 9.7648L19.1121 9.36095L12.6746 4.66184L12.3798 5.06569ZM15.7882 9.31383L12.7353 4.72529L12.3191 5.00225L15.3719 9.59079L15.7882 9.31383ZM24.7647 18.9348L22.8789 19.205L22.9498 19.7L24.8356 19.4297L24.7647 18.9348ZM23.9507 15.0223L24.5527 19.2177L25.0476 19.1467L24.4457 14.9513L23.9507 15.0223ZM23.1546 19.5216L24.4385 15.0559L23.9579 14.9177L22.6741 19.3834L23.1546 19.5216Z" fill="#F6851B"/>
<path d="M24.1982 14.9867L22.9144 19.4524L22.81 17.2717L24.1982 14.9867Z" fill="#E4751F" stroke="#E4751F" stroke-width="0.5"/>
<path d="M20.2485 15.4228L24.1982 14.9867L22.81 17.2717L20.2485 15.4228Z" fill="#CD6116" stroke="#CD6116" stroke-width="0.5"/>
<path d="M15.5801 9.45227L18.9647 9.56284L20.2485 15.4229L15.5801 9.45227Z" fill="#F6851B" stroke="#F6851B" stroke-width="0.5"/>
<path fill-rule="evenodd" clip-rule="evenodd" d="M6.44601 1L15.5801 9.45225L12.5272 4.86371L6.44601 1ZM4.5848 26.713L12.5211 24.256L3 20.6625L4.5848 26.713Z" fill="#E4761B"/>
<path d="M15.5801 9.45225L15.4103 9.63574L15.7882 9.31377L15.5801 9.45225ZM6.44601 1L6.58008 0.788988L6.27622 1.18349L6.44601 1ZM12.5272 4.86371L12.7353 4.72523L12.706 4.68111L12.6613 4.6527L12.5272 4.86371ZM12.5211 24.256L12.595 24.4948L13.2909 24.2793L12.6093 24.0221L12.5211 24.256ZM4.5848 26.713L4.34295 26.7764L4.40916 27.0291L4.65873 26.9518L4.5848 26.713ZM3 20.6625L3.08828 20.4286L2.63555 20.2578L2.75816 20.7259L3 20.6625ZM15.7499 9.26876L6.61581 0.816507L6.27622 1.18349L15.4103 9.63574L15.7499 9.26876ZM12.3191 5.00219L15.372 9.59073L15.7882 9.31377L12.7353 4.72523L12.3191 5.00219ZM6.31194 1.21101L12.3931 5.07472L12.6613 4.6527L6.58008 0.788988L6.31194 1.21101ZM12.4471 24.0172L4.51086 26.4742L4.65873 26.9518L12.595 24.4948L12.4471 24.0172ZM2.91172 20.8964L12.4328 24.4899L12.6093 24.0221L3.08828 20.4286L2.91172 20.8964ZM4.82664 26.6497L3.24184 20.5992L2.75816 20.7259L4.34295 26.7764L4.82664 26.6497Z" fill="#E4761B"/>
<path d="M5.61676 14.4032L8.61436 12.0505L11.1267 12.6341L5.61676 14.4032Z" fill="#763D16" stroke="#763D16" stroke-width="0.5"/>
<path d="M11.1267 12.6342L8.61436 12.0506L9.95959 6.49768L11.1267 12.6342Z" fill="#763D16" stroke="#763D16" stroke-width="0.5"/>
<path d="M4.88578 12.456L8.61436 12.0505L5.61676 14.4032L4.88578 12.456Z" fill="#763D16" stroke="#763D16" stroke-width="0.5"/>
<path d="M22.81 17.2718L21.262 16.4917L20.2485 15.4229L22.81 17.2718Z" fill="#CD6116" stroke="#CD6116" stroke-width="0.5"/>
<path d="M4.88578 12.456L4.62165 11.0616L8.61436 12.0506L4.88578 12.456Z" fill="#763D16" stroke="#763D16" stroke-width="0.5"/>
<path d="M20.9426 18.2485L21.262 16.4917L22.81 17.2718L20.9426 18.2485Z" fill="#233447" stroke="#233447" stroke-width="0.5"/>
<path d="M22.9144 19.4525L20.9426 18.2485L22.81 17.2719L22.9144 19.4525Z" fill="#F6851B" stroke="#F6851B" stroke-width="0.5"/>
<path fill-rule="evenodd" clip-rule="evenodd" d="M9.95959 6.49768L8.61436 12.0506L4.62165 11.0616L4.29609 9.88841L9.95959 6.49768ZM9.95959 6.49768L11.1267 12.6342L15.5801 9.45228L9.95959 6.49768Z" fill="#763D16"/>
<path d="M8.61436 12.0506L8.55425 12.2933L8.79816 12.3537L8.85733 12.1095L8.61436 12.0506ZM9.95959 6.49768L10.0759 6.27639L9.95164 6.21106L9.83117 6.28318L9.95959 6.49768ZM4.62165 11.0616L4.38075 11.1285L4.4198 11.2692L4.56155 11.3043L4.62165 11.0616ZM4.29609 9.88841L4.16767 9.67391L4.00427 9.77174L4.0552 9.95525L4.29609 9.88841ZM11.1267 12.6342L10.8811 12.6809L10.9541 13.0647L11.272 12.8376L11.1267 12.6342ZM15.5801 9.45228L15.7254 9.6557L16.0556 9.4198L15.6964 9.23099L15.5801 9.45228ZM8.85733 12.1095L10.2026 6.55654L9.71662 6.43882L8.37138 11.9917L8.85733 12.1095ZM4.56155 11.3043L8.55425 12.2933L8.67446 11.8079L4.68176 10.819L4.56155 11.3043ZM4.0552 9.95525L4.38075 11.1285L4.86255 10.9948L4.53699 9.82156L4.0552 9.95525ZM9.83117 6.28318L4.16767 9.67391L4.42451 10.1029L10.088 6.71218L9.83117 6.28318ZM11.3723 12.5875L10.2052 6.45097L9.71399 6.54439L10.8811 12.6809L11.3723 12.5875ZM15.4348 9.24887L10.9814 12.4307L11.272 12.8376L15.7254 9.6557L15.4348 9.24887ZM9.84326 6.71897L15.4638 9.67357L15.6964 9.23099L10.0759 6.27639L9.84326 6.71897Z" fill="#763D16"/>
<path fill-rule="evenodd" clip-rule="evenodd" d="M15.5801 9.45227L11.1267 12.6341L11.4093 15.386L17.5642 15.515L15.5801 9.45227Z" fill="#E4761B"/>
<path d="M11.1267 12.6341L10.9814 12.4307L10.8632 12.5152L10.878 12.6597L11.1267 12.6341ZM15.5801 9.45227L15.8177 9.37451L15.7118 9.05092L15.4348 9.24886L15.5801 9.45227ZM11.4093 15.386L11.1606 15.4116L11.1831 15.6314L11.404 15.636L11.4093 15.386ZM17.5642 15.515L17.5589 15.765L17.9114 15.7724L17.8018 15.4373L17.5642 15.515ZM11.272 12.8376L15.7254 9.65568L15.4348 9.24886L10.9814 12.4307L11.272 12.8376ZM11.6579 15.3605L11.3754 12.6086L10.878 12.6597L11.1606 15.4116L11.6579 15.3605ZM17.5694 15.2651L11.4145 15.1361L11.404 15.636L17.5589 15.765L17.5694 15.2651ZM15.3425 9.53003L17.3266 15.5928L17.8018 15.4373L15.8177 9.37451L15.3425 9.53003Z" fill="#E4761B"/>
<path fill-rule="evenodd" clip-rule="evenodd" d="M17.5642 15.515L20.2485 15.4229L15.5801 9.45227L17.5642 15.515ZM11.1267 12.6341L5.61676 14.4032L11.4092 15.386L11.1267 12.6341Z" fill="#F6851B"/>
<path d="M20.2485 15.4229L20.2571 15.6728L20.748 15.6559L20.4454 15.2689L20.2485 15.4229ZM17.5642 15.515L17.3266 15.5928L17.385 15.7713L17.5727 15.7649L17.5642 15.515ZM15.5801 9.45227L15.777 9.29828L15.3425 9.53003L15.5801 9.45227ZM5.61676 14.4032L5.54033 14.1652L5.57494 14.6497L5.61676 14.4032ZM11.1267 12.6341L11.3754 12.6086L11.3439 12.3018L11.0503 12.3961L11.1267 12.6341ZM11.4092 15.386L11.3674 15.6325L11.6915 15.6875L11.6579 15.3605L11.4092 15.386ZM20.2399 15.173L17.5556 15.2652L17.5727 15.7649L20.2571 15.6728L20.2399 15.173ZM15.3831 9.60626L20.0515 15.5769L20.4454 15.2689L15.777 9.29828L15.3831 9.60626ZM17.8018 15.4373L15.8177 9.37451L15.3425 9.53003L17.3266 15.5928L17.8018 15.4373ZM5.69318 14.6413L11.2031 12.8722L11.0503 12.3961L5.54033 14.1652L5.69318 14.6413ZM11.4511 15.1396L5.65858 14.1567L5.57494 14.6497L11.3674 15.6325L11.4511 15.1396ZM10.878 12.6597L11.1606 15.4116L11.6579 15.3605L11.3754 12.6086L10.878 12.6597Z" fill="#F6851B"/>
<path d="M21.262 16.4917L20.9426 18.2485L20.2485 15.4229L21.262 16.4917Z" fill="#CD6116" stroke="#CD6116" stroke-width="0.5"/>
<path d="M6.44601 1L15.5801 9.45225L9.95959 6.49765L6.44601 1Z" fill="#763D16" stroke="#763D16" stroke-width="0.5"/>
<path d="M3 20.6626L10.7028 20.3431L12.5211 24.256L3 20.6626Z" fill="#E4761B" stroke="#E4761B" stroke-width="0.5"/>
<path d="M12.5211 24.2559L10.7029 20.3431L14.4867 20.1588L12.5211 24.2559Z" fill="#CD6116" stroke="#CD6116" stroke-width="0.5"/>
<path fill-rule="evenodd" clip-rule="evenodd" d="M3 20.6625L5.61676 14.4032L11.4093 15.386L10.7028 20.3431L3 20.6625ZM20.9426 18.2485L22.9144 19.4524L24.0016 22.0139L20.9426 18.2485ZM20.2485 15.4229L20.7522 17.2534L18.3197 17.3947L17.5642 15.515L20.2485 15.4229Z" fill="#F6851B"/>
<path d="M5.61676 14.4032L5.65858 14.1567L5.46272 14.1235L5.3861 14.3068L5.61676 14.4032ZM3 20.6625L2.76934 20.5661L2.6178 20.9286L3.01036 20.9123L3 20.6625ZM11.4093 15.386L11.6567 15.4213L11.6911 15.1803L11.4511 15.1395L11.4093 15.386ZM10.7028 20.3431L10.7132 20.5929L10.921 20.5843L10.9503 20.3784L10.7028 20.3431ZM22.9144 19.4524L23.1445 19.3548L23.1132 19.2809L23.0447 19.2391L22.9144 19.4524ZM20.9426 18.2485L21.0729 18.0351L20.7486 18.4061L20.9426 18.2485ZM24.0016 22.0139L23.8076 22.1715L24.2318 21.9162L24.0016 22.0139ZM20.7522 17.2534L20.7667 17.503L21.0752 17.485L20.9932 17.187L20.7522 17.2534ZM20.2485 15.4229L20.4895 15.3565L20.4372 15.1663L20.2399 15.173L20.2485 15.4229ZM18.3197 17.3947L18.0877 17.4879L18.1548 17.6547L18.3342 17.6442L18.3197 17.3947ZM17.5642 15.515L17.5556 15.2652L17.1992 15.2774L17.3322 15.6083L17.5642 15.515ZM5.3861 14.3068L2.76934 20.5661L3.23066 20.759L5.84741 14.4996L5.3861 14.3068ZM11.4511 15.1395L5.65858 14.1567L5.57494 14.6497L11.3674 15.6325L11.4511 15.1395ZM10.9503 20.3784L11.6567 15.4213L11.1618 15.3507L10.4553 20.3078L10.9503 20.3784ZM3.01036 20.9123L10.7132 20.5929L10.6925 20.0933L2.98964 20.4127L3.01036 20.9123ZM23.0447 19.2391L21.0729 18.0351L20.8123 18.4618L22.7841 19.6658L23.0447 19.2391ZM24.2318 21.9162L23.1445 19.3548L22.6843 19.5501L23.7715 22.1116L24.2318 21.9162ZM20.7486 18.4061L23.8076 22.1715L24.1957 21.8563L21.1366 18.0908L20.7486 18.4061ZM20.9932 17.187L20.4895 15.3565L20.0074 15.4892L20.5111 17.3197L20.9932 17.187ZM18.3342 17.6442L20.7667 17.503L20.7377 17.0038L18.3052 17.1451L18.3342 17.6442ZM18.5517 17.3014L17.7961 15.4218L17.3322 15.6083L18.0877 17.4879L18.5517 17.3014ZM17.5727 15.7649L20.2571 15.6727L20.2399 15.173L17.5556 15.2652L17.5727 15.7649Z" fill="#F6851B"/>
<path d="M14.5911 25.0668L12.5211 24.256L19.7202 25.4661L14.5911 25.0668Z" fill="#C0AD9E" stroke="#C0AD9E" stroke-width="0.5"/>
<path d="M5.61676 14.4031L4.43737 12.8921L4.88579 12.4559L5.61676 14.4031Z" fill="#763D16" stroke="#763D16" stroke-width="0.5"/>
<path d="M20.5372 24.5693L19.7202 25.4661L12.5211 24.256L20.5372 24.5693Z" fill="#D7C1B3" stroke="#D7C1B3" stroke-width="0.5"/>
<path d="M20.9242 22.3702L12.5211 24.2559L14.4867 20.1588L20.9242 22.3702Z" fill="#E4761B" stroke="#E4761B" stroke-width="0.5"/>
<path d="M12.5211 24.256L20.9242 22.3702L20.5372 24.5693L12.5211 24.256Z" fill="#D7C1B3" stroke="#D7C1B3" stroke-width="0.5"/>
<path fill-rule="evenodd" clip-rule="evenodd" d="M4.01968 5.16467L4.29609 9.88835L9.95959 6.49762L4.01968 5.16467ZM4.06882 11.6267L4.88579 12.456L4.62165 11.0616L4.06882 11.6267Z" fill="#763D16"/>
<path d="M4.29609 9.88835L4.04652 9.90295L4.07062 10.3147L4.42451 10.1028L4.29609 9.88835ZM4.01968 5.16467L4.07442 4.92074L3.75072 4.8481L3.7701 5.17928L4.01968 5.16467ZM9.95959 6.49762L10.088 6.71212L10.6249 6.3907L10.0143 6.25369L9.95959 6.49762ZM4.88579 12.456L4.7077 12.6314L5.28434 13.2167L5.13142 12.4094L4.88579 12.456ZM4.06882 11.6267L3.89011 11.4519L3.71848 11.6273L3.89073 11.8022L4.06882 11.6267ZM4.62165 11.0616L4.86729 11.0151L4.77809 10.5442L4.44294 10.8868L4.62165 11.0616ZM4.54567 9.87374L4.26925 5.15007L3.7701 5.17928L4.04652 9.90295L4.54567 9.87374ZM9.83117 6.28313L4.16768 9.67385L4.42451 10.1028L10.088 6.71212L9.83117 6.28313ZM3.96494 5.40861L9.90485 6.74156L10.0143 6.25369L4.07442 4.92074L3.96494 5.40861ZM5.06388 12.2805L4.24691 11.4513L3.89073 11.8022L4.7077 12.6314L5.06388 12.2805ZM4.37602 11.1081L4.64015 12.5025L5.13142 12.4094L4.86729 11.0151L4.37602 11.1081ZM4.24753 11.8015L4.80036 11.2364L4.44294 10.8868L3.89011 11.4519L4.24753 11.8015Z" fill="#763D16"/>
<path d="M16.1882 16.7313L17.5642 15.515L17.3676 18.488L16.1882 16.7313Z" fill="#CD6116" stroke="#CD6116" stroke-width="0.5"/>
<path d="M17.5642 15.515L16.1882 16.7313L14.1857 17.7694L17.5642 15.515Z" fill="#CD6116" stroke="#CD6116" stroke-width="0.5"/>
<path d="M24.0016 22.014L23.6269 21.7375L20.9426 18.2485L24.0016 22.014Z" fill="#F6851B" stroke="#F6851B" stroke-width="0.5"/>
<path d="M14.1857 17.7693L11.4092 15.386L17.5642 15.515L14.1857 17.7693Z" fill="#CD6116" stroke="#CD6116" stroke-width="0.5"/>
<path d="M17.3676 18.488L17.5642 15.515L18.3197 17.3947L17.3676 18.488Z" fill="#E4751F" stroke="#E4751F" stroke-width="0.5"/>
<path d="M3.79854 10.3553L4.29609 9.88843L4.62165 11.0617L3.79854 10.3553Z" fill="#763D16" stroke="#763D16" stroke-width="0.5"/>
<path d="M17.3676 18.488L14.1857 17.7693L16.1882 16.7312L17.3676 18.488Z" fill="#233447" stroke="#233447" stroke-width="0.5"/>
<path d="M9.95959 6.49765L4.01968 5.1647L6.44601 1L9.95959 6.49765Z" fill="#763D16" stroke="#763D16" stroke-width="0.5"/>
<path d="M19.7202 25.466L20.0581 26.3874L14.5911 25.0668L19.7202 25.466Z" fill="#C0AD9E" stroke="#C0AD9E" stroke-width="0.5"/>
<path d="M14.4867 20.1589L14.1857 17.7694L17.3676 18.4881L14.4867 20.1589Z" fill="#F6851B" stroke="#F6851B" stroke-width="0.5"/>
<path d="M11.4092 15.386L14.1857 17.7693L14.4867 20.1588L11.4092 15.386Z" fill="#E4751F" stroke="#E4751F" stroke-width="0.5"/>
<path fill-rule="evenodd" clip-rule="evenodd" d="M14.4867 20.1588L11.4093 15.386L10.7029 20.3431L14.4867 20.1588ZM20.7522 17.2533L18.3197 17.3946L23.6269 21.7375L20.7522 17.2533Z" fill="#F6851B"/>
<path d="M11.4093 15.386L11.6194 15.2505L11.2563 14.6874L11.1618 15.3507L11.4093 15.386ZM14.4867 20.1588L14.4989 20.4085L14.9316 20.3874L14.6968 20.0233L14.4867 20.1588ZM10.7029 20.3431L10.4554 20.3078L10.4126 20.6075L10.715 20.5928L10.7029 20.3431ZM18.3197 17.3946L18.3052 17.145L17.6654 17.1822L18.1614 17.5881L18.3197 17.3946ZM20.7522 17.2533L20.9626 17.1184L20.8837 16.9953L20.7377 17.0038L20.7522 17.2533ZM23.6269 21.7375L23.4686 21.9309L23.8374 21.6025L23.6269 21.7375ZM11.1991 15.5215L14.2766 20.2943L14.6968 20.0233L11.6194 15.2505L11.1991 15.5215ZM10.9503 20.3784L11.6568 15.4213L11.1618 15.3507L10.4554 20.3078L10.9503 20.3784ZM14.4745 19.9091L10.6907 20.0934L10.715 20.5928L14.4989 20.4085L14.4745 19.9091ZM18.3342 17.6442L20.7667 17.5029L20.7377 17.0038L18.3052 17.145L18.3342 17.6442ZM23.7852 21.544L18.478 17.2011L18.1614 17.5881L23.4686 21.9309L23.7852 21.544ZM20.5417 17.3883L23.4165 21.8724L23.8374 21.6025L20.9626 17.1184L20.5417 17.3883Z" fill="#F6851B"/>
<path d="M18.3197 17.3947L21.3419 21.9955L17.3676 18.488L18.3197 17.3947Z" fill="#E4751F" stroke="#E4751F" stroke-width="0.5"/>
<path d="M17.3676 18.488L21.3419 21.9955L20.9242 22.3702L17.3676 18.488Z" fill="#F6851B" stroke="#F6851B" stroke-width="0.5"/>
<path fill-rule="evenodd" clip-rule="evenodd" d="M21.3419 21.9955L23.6269 21.7375L18.3197 17.3947L21.3419 21.9955ZM14.4867 20.1588L20.9242 22.3702L17.3676 18.488L14.4867 20.1588Z" fill="#F6851B"/>
<path d="M23.6269 21.7375L23.655 21.9859L24.244 21.9194L23.7852 21.544L23.6269 21.7375ZM21.3419 21.9955L21.1329 22.1327L21.2173 22.2611L21.3699 22.2439L21.3419 21.9955ZM18.3197 17.3947L18.478 17.2012L18.1107 17.5319L18.3197 17.3947ZM20.9242 22.3702L20.843 22.6066L21.1085 22.2013L20.9242 22.3702ZM14.4867 20.1588L14.3613 19.9426L13.8875 20.2173L14.4055 20.3953L14.4867 20.1588ZM17.3676 18.488L17.5519 18.3192L17.4161 18.1709L17.2422 18.2718L17.3676 18.488ZM23.5989 21.4891L21.3138 21.7471L21.3699 22.2439L23.655 21.9859L23.5989 21.4891ZM18.1614 17.5881L23.4686 21.931L23.7852 21.544L18.478 17.2012L18.1614 17.5881ZM21.5508 21.8582L18.5287 17.2574L18.1107 17.5319L21.1329 22.1327L21.5508 21.8582ZM21.0054 22.1337L14.5679 19.9224L14.4055 20.3953L20.843 22.6066L21.0054 22.1337ZM17.1833 18.6569L20.7398 22.5391L21.1085 22.2013L17.5519 18.3192L17.1833 18.6569ZM14.6121 20.3751L17.493 18.7043L17.2422 18.2718L14.3613 19.9426L14.6121 20.3751Z" fill="#F6851B"/>
<path fill-rule="evenodd" clip-rule="evenodd" d="M23.2461 25.8714L24.2289 23.8997L20.0581 26.3874L20.5372 24.5692L19.7202 25.466L20.0581 26.3874L23.2461 25.8714Z" fill="#C0AD9E"/>
<path d="M24.2289 23.8997L24.4526 24.0112L24.8329 23.2483L24.1008 23.685L24.2289 23.8997ZM23.2461 25.8714L23.286 26.1182L23.4126 26.0977L23.4698 25.983L23.2461 25.8714ZM20.0581 26.3874L19.8233 26.4735L19.8944 26.6672L20.098 26.6342L20.0581 26.3874ZM20.5372 24.5692L20.7789 24.6329L20.3524 24.4008L20.5372 24.5692ZM19.7202 25.466L19.5354 25.2977L19.4333 25.4097L19.4855 25.5521L19.7202 25.466ZM24.0052 23.7881L23.0223 25.7599L23.4698 25.983L24.4526 24.0112L24.0052 23.7881ZM20.1861 26.6021L24.357 24.1144L24.1008 23.685L19.93 26.1727L20.1861 26.6021ZM20.2954 24.5055L19.8163 26.3237L20.2998 26.4511L20.7789 24.6329L20.2954 24.5055ZM19.905 25.6344L20.722 24.7376L20.3524 24.4008L19.5354 25.2977L19.905 25.6344ZM20.2928 26.3014L19.9549 25.38L19.4855 25.5521L19.8233 26.4735L20.2928 26.3014ZM23.2061 25.6247L20.0181 26.1406L20.098 26.6342L23.286 26.1182L23.2061 25.6247Z" fill="#C0AD9E"/>
<path fill-rule="evenodd" clip-rule="evenodd" d="M20.0581 26.3874L20.5372 24.5692L21.1392 24.3296L24.2289 23.8997L20.0581 26.3874Z" fill="#C0AD9E"/>
<path d="M20.0581 26.3874L19.8163 26.3237L19.6603 26.9158L20.1861 26.6021L20.0581 26.3874ZM20.5372 24.5692L20.4447 24.3369L20.3276 24.3836L20.2954 24.5055L20.5372 24.5692ZM21.1392 24.3296L21.1047 24.082L21.0748 24.0862L21.0467 24.0974L21.1392 24.3296ZM24.2289 23.8997L24.357 24.1144L24.1944 23.652L24.2289 23.8997ZM20.2998 26.4511L20.7789 24.6329L20.2954 24.5055L19.8163 26.3237L20.2998 26.4511ZM20.6296 24.8015L21.2316 24.5619L21.0467 24.0974L20.4447 24.3369L20.6296 24.8015ZM21.1736 24.5773L24.2634 24.1473L24.1944 23.652L21.1047 24.082L21.1736 24.5773ZM24.1008 23.685L19.93 26.1727L20.1861 26.6021L24.357 24.1144L24.1008 23.685Z" fill="#C0AD9E"/>
<path d="M23.6269 21.7375L24.3825 22.1982L22.0851 22.4747L23.6269 21.7375Z" fill="#161616" stroke="#161616" stroke-width="0.5"/>
<path fill-rule="evenodd" clip-rule="evenodd" d="M21.3419 21.9955L22.0851 22.4747L23.6269 21.7375L21.3419 21.9955ZM24.6159 22.4992L21.821 22.8371L24.2289 23.8998L24.6159 22.4992Z" fill="#161616"/>
<path d="M22.0851 22.4747L21.9497 22.6848L22.067 22.7604L22.193 22.7002L22.0851 22.4747ZM21.3419 21.9955L21.3138 21.7471L20.6171 21.8258L21.2064 22.2057L21.3419 21.9955ZM23.6269 21.7375L23.7348 21.9631L23.5989 21.4891L23.6269 21.7375ZM21.821 22.8371L21.791 22.5889L20.887 22.6982L21.7201 23.0658L21.821 22.8371ZM24.6159 22.4992L24.8569 22.5658L24.9562 22.2063L24.5859 22.251L24.6159 22.4992ZM24.2289 23.8998L24.128 24.1285L24.3928 24.2453L24.4699 23.9663L24.2289 23.8998ZM22.2206 22.2645L21.4773 21.7854L21.2064 22.2057L21.9497 22.6848L22.2206 22.2645ZM23.5191 21.512L21.9773 22.2491L22.193 22.7002L23.7348 21.9631L23.5191 21.512ZM21.3699 22.244L23.655 21.986L23.5989 21.4891L21.3138 21.7471L21.3699 22.244ZM21.851 23.0853L24.6459 22.7474L24.5859 22.251L21.791 22.5889L21.851 23.0853ZM24.3298 23.671L21.9219 22.6084L21.7201 23.0658L24.128 24.1285L24.3298 23.671ZM24.3749 22.4327L23.9879 23.8332L24.4699 23.9663L24.8569 22.5658L24.3749 22.4327Z" fill="#161616"/>
<path fill-rule="evenodd" clip-rule="evenodd" d="M20.9242 22.3702L21.3419 21.9955L22.0851 22.4746L20.9242 22.3702ZM21.1392 24.3297L20.5372 24.5692L20.9242 22.3702L21.1392 24.3297ZM21.1392 24.3297L21.821 22.837L24.2289 23.8997L21.1392 24.3297ZM24.6159 22.4992L24.3825 22.1982L21.821 22.837L24.6159 22.4992Z" fill="#161616"/>
<path d="M21.3419 21.9955L21.4773 21.7854L21.317 21.682L21.1749 21.8094L21.3419 21.9955ZM20.9242 22.3702L20.7572 22.1841L20.6929 22.2418L20.678 22.3269L20.9242 22.3702ZM22.0851 22.4746L22.0627 22.7236L22.2206 22.2645L22.0851 22.4746ZM20.5372 24.5692L20.291 24.5259L20.2133 24.9672L20.6296 24.8015L20.5372 24.5692ZM21.821 22.837L21.9219 22.6083L21.6961 22.5087L21.5936 22.7331L21.821 22.837ZM24.2289 23.8997L24.2634 24.1473L25.1345 24.0261L24.3298 23.671L24.2289 23.8997ZM24.3825 22.1982L24.58 22.045L24.4801 21.9162L24.322 21.9556L24.3825 22.1982ZM24.6159 22.4992L24.6459 22.7474L25.0837 22.6945L24.8134 22.346L24.6159 22.4992ZM21.821 22.837L21.7605 22.5945L21.851 23.0852L21.821 22.837ZM21.1749 21.8094L20.7572 22.1841L21.0911 22.5563L21.5088 22.1816L21.1749 21.8094ZM22.2206 22.2645L21.4773 21.7854L21.2064 22.2056L21.9497 22.6847L22.2206 22.2645ZM20.9018 22.6192L22.0627 22.7236L22.1075 22.2256L20.9466 22.1212L20.9018 22.6192ZM20.6296 24.8015L21.2316 24.562L21.0467 24.0974L20.4447 24.337L20.6296 24.8015ZM20.678 22.3269L20.291 24.5259L20.7834 24.6126L21.1704 22.4135L20.678 22.3269ZM21.3877 24.3024L21.1727 22.3429L20.6757 22.3974L20.8907 24.3569L21.3877 24.3024ZM21.5936 22.7331L20.9118 24.2258L21.3666 24.4336L22.0484 22.9409L21.5936 22.7331ZM24.3298 23.671L21.9219 22.6083L21.7201 23.0657L24.128 24.1284L24.3298 23.671ZM21.1736 24.5773L24.2634 24.1473L24.1944 23.6521L21.1047 24.0821L21.1736 24.5773ZM24.1849 22.3514L24.4183 22.6524L24.8134 22.346L24.58 22.045L24.1849 22.3514ZM21.8815 23.0796L24.443 22.4408L24.322 21.9556L21.7605 22.5945L21.8815 23.0796ZM24.5859 22.251L21.791 22.5888L21.851 23.0852L24.6459 22.7474L24.5859 22.251Z" fill="#161616"/>
<path fill-rule="evenodd" clip-rule="evenodd" d="M22.0851 22.4747L21.821 22.8371L20.9242 22.3702L21.1392 24.3297L21.821 22.8371L24.3825 22.1982L22.0851 22.4747Z" fill="#161616"/>
<path d="M22.0851 22.4747L22.0553 22.2265L21.9472 22.2395L21.8831 22.3274L22.0851 22.4747ZM20.9242 22.3702L21.0396 22.1485L20.6246 21.9325L20.6757 22.3975L20.9242 22.3702ZM21.1392 24.3297L20.8907 24.357L20.9896 25.2588L21.3666 24.4336L21.1392 24.3297ZM24.3825 22.1982L24.443 22.4408L24.3526 21.95L24.3825 22.1982ZM22.023 22.9843L22.2872 22.6219L21.8831 22.3274L21.619 22.6898L22.023 22.9843ZM20.8087 22.592L21.7056 23.0588L21.9364 22.6153L21.0396 22.1485L20.8087 22.592ZM21.3877 24.3025L21.1727 22.343L20.6757 22.3975L20.8907 24.357L21.3877 24.3025ZM21.5936 22.7332L20.9118 24.2259L21.3666 24.4336L22.0484 22.9409L21.5936 22.7332ZM24.322 21.9557L21.7605 22.5945L21.8815 23.0796L24.443 22.4408L24.322 21.9557ZM22.115 22.7229L24.4123 22.4465L24.3526 21.95L22.0553 22.2265L22.115 22.7229Z" fill="#161616"/>
<path d="M22.0851 22.4747L21.821 22.8371L20.9242 22.3702L22.0851 22.4747Z" fill="#161616" stroke="#161616" stroke-width="0.5"/>
</svg>
