<svg width="30" height="30" viewBox="0 0 30 30" fill="none" xmlns="http://www.w3.org/2000/svg">
<path fill-rule="evenodd" clip-rule="evenodd" d="M22.8516 11.4258C22.8516 5.12561 17.726 0 11.4258 0C5.12561 0 0 5.12561 0 11.4258C0 17.726 5.12561 22.8516 11.4258 22.8516C13.943 22.8516 16.2722 22.0327 18.1624 20.6483L27.5141 30L30 27.514L20.6483 18.1624C22.0327 16.2722 22.8516 13.943 22.8516 11.4258ZM21.0954 11.4484C21.0954 16.7676 16.7679 21.095 11.4487 21.095C6.12958 21.095 1.80209 16.7676 1.80209 11.4484C1.80209 6.12924 6.12958 1.80176 11.4487 1.80176C16.7679 1.80176 21.0954 6.12924 21.0954 11.4484Z" fill="#FF0097"/>
</svg>
