<svg width="30" height="30" viewBox="0 0 30 30" fill="none" xmlns="http://www.w3.org/2000/svg">
<path d="M14.0649 0.18308C13.7816 -0.0671714 13.3301 -0.0599567 13.0564 0.199099C12.7895 0.451857 12.7895 0.852517 13.0564 1.10521L28.2414 14.9926L13.055 28.8787C12.7717 29.129 12.7638 29.5418 13.0375 29.8009C13.3111 30.06 13.7626 30.0671 14.0459 29.8169C14.0519 29.8117 14.0577 29.8064 14.0635 29.8009L29.7534 15.4531C30.0318 15.1984 30.0318 14.7856 29.7534 14.5309L14.0649 0.18308Z" fill="#009688"/>
<path d="M16.9175 14.5309L1.22756 0.18308C0.944271 -0.0671714 0.492762 -0.0599567 0.219102 0.199099C-0.0478059 0.451857 -0.0478059 0.852517 0.219102 1.10527L15.4041 14.9927L0.217697 28.8787C-0.0655908 29.129 -0.0734135 29.5418 0.20018 29.8009C0.47384 30.06 0.925283 30.0671 1.20864 29.8169C1.21459 29.8117 1.22041 29.8064 1.22616 29.8009L16.9161 15.4531C17.1949 15.1988 17.1955 14.786 16.9175 14.5309Z" fill="#009688"/>
</svg>
