<svg width="30" height="30" viewBox="0 0 30 30" fill="none" xmlns="http://www.w3.org/2000/svg">
<g clip-path="url(#clip0)">
<path d="M20.0624 30.0003H4.43758C2.54129 30.0003 1 28.459 1 26.5627V9.68771C1 7.79143 2.54129 6.25037 4.43758 6.25037H5.06242C5.57993 6.25037 5.99992 6.67036 5.99992 7.18787C5.99992 7.70537 5.57993 8.12537 5.06242 8.12537H4.43758C3.57629 8.12537 2.875 8.82643 2.875 9.68771V26.5627C2.875 27.424 3.57629 28.1253 4.43758 28.1253H20.0624C20.9237 28.1253 21.625 27.424 21.625 26.5627V25.9379C21.625 25.4204 22.045 25.0004 22.5625 25.0004C23.08 25.0004 23.5 25.4204 23.5 25.9379V26.5627C23.5 28.459 21.9587 30.0003 20.0624 30.0003Z" fill="currentColor"/>
<path fill-rule="evenodd" clip-rule="evenodd" d="M11.9375 22.5H25.0625C26.9588 22.5 28.4999 20.9587 28.4999 19.0624V3.43758C28.4999 1.54129 26.9588 0 25.0625 0H11.9375C10.0413 0 8.49997 1.54129 8.49997 3.43758V19.0624C8.49997 20.9587 10.0413 22.5 11.9375 22.5ZM10.375 3.43722C10.375 2.57594 11.0763 1.87464 11.9375 1.87464H25.0625C25.9238 1.87464 26.6249 2.57594 26.6249 3.43722V19.0621C26.6249 19.9233 25.9238 20.6246 25.0625 20.6246H11.9375C11.0763 20.6246 10.375 19.9233 10.375 19.0621V3.43722Z" fill="currentColor"/>
</g>
<defs>
<clipPath id="clip0">
<rect width="30" height="30" fill="white"/>
</clipPath>
</defs>
</svg>
