<svg width="1202" height="276" viewBox="0 0 1202 276" fill="none" xmlns="http://www.w3.org/2000/svg">
  <g opacity="0.516323">
  <path fill-rule="evenodd" clip-rule="evenodd" d="M172.103 85.189C152.028 72.7062 127.737 72.1444 107.116 83.6781C87.0584 94.8968 75.0824 115.202 75.0824 138.001C75.0824 160.796 87.0584 181.106 107.116 192.324C127.737 203.862 152.032 203.292 172.103 190.814C202.25 172.062 228.647 146.62 248.43 117.241C274 79.2647 308.089 46.3916 347.018 22.1794C347.026 22.1751 347.03 22.1709 347.039 22.1666C368.821 8.61987 393.633 1.39324 418.797 1.27407C442.453 1.12512 465.956 7.25797 486.797 18.9151C530.586 43.4081 556.729 87.9256 556.729 138.001C556.729 188.077 530.586 232.594 486.801 257.087C466.151 268.638 442.877 274.733 419.459 274.733C419.238 274.733 419.018 274.733 418.797 274.728C393.638 274.605 368.821 267.383 347.039 253.836L346.996 253.806C322.006 238.259 299.029 219.133 279.001 197.389C290.163 185.272 300.423 172.351 309.572 158.762C314.404 151.591 319.629 144.662 325.201 138.001C342.466 158.634 363.109 176.637 385.899 190.814C405.97 203.296 430.265 203.858 450.886 192.324C470.944 181.106 482.92 160.796 482.92 138.001C482.92 115.202 470.944 94.8968 450.886 83.6739C430.265 72.1402 405.97 72.7062 385.899 85.189C355.747 103.941 329.354 129.383 309.572 158.762C284.014 196.721 249.934 229.581 211.022 253.793C211.001 253.806 210.984 253.823 210.963 253.836C189.177 267.383 164.364 274.609 139.204 274.728C138.984 274.733 138.764 274.733 138.543 274.733C115.125 274.733 91.8513 268.634 71.2006 257.087C27.4156 232.594 1.27271 188.077 1.27271 138.001C1.27271 87.9256 27.4156 43.4081 71.2006 18.9151C92.0463 7.25797 115.511 1.16768 139.204 1.26982C164.364 1.39324 189.181 8.61987 210.963 22.1666C235.966 37.7222 258.96 56.857 279.001 78.6135C267.839 90.7302 257.579 103.651 248.43 117.241C243.603 124.412 238.373 131.345 232.801 138.006C215.536 117.368 194.893 99.3656 172.103 85.189Z" stroke="url(#paint0_linear)"/>
  <path fill-rule="evenodd" clip-rule="evenodd" d="M1029.9 190.812C1049.97 203.295 1074.26 203.857 1094.89 192.323C1114.94 181.105 1126.92 160.799 1126.92 138C1126.92 115.205 1114.94 94.8958 1094.89 83.677C1074.26 72.1391 1049.97 72.7094 1029.9 85.1879C999.752 103.94 973.354 129.382 953.572 158.761C928.002 196.737 893.913 229.61 854.984 253.822C854.976 253.826 854.972 253.831 854.963 253.835C833.181 267.382 808.369 274.608 783.205 274.727C759.549 274.876 736.046 268.743 715.205 257.086C671.416 232.593 645.273 188.076 645.273 138C645.273 87.9245 671.416 43.4071 715.201 18.914C735.851 7.36329 759.125 1.26874 782.543 1.26874C782.764 1.26874 782.984 1.26875 783.205 1.27301C808.364 1.39643 833.181 8.6188 854.963 22.1655L855.006 22.1953C879.996 37.7424 902.973 56.8687 923.001 78.6124C911.839 90.7292 901.579 103.65 892.43 117.24C887.598 124.411 882.373 131.34 876.801 138C859.536 117.367 838.893 99.3645 816.103 85.1879C796.032 72.7051 771.737 72.1434 751.116 83.677C731.058 94.8958 719.082 115.205 719.082 138C719.082 160.799 731.058 181.105 751.116 192.328C771.737 203.861 796.032 203.295 816.103 190.812C846.254 172.061 872.647 146.619 892.43 117.24C917.988 79.2806 952.068 46.4203 990.979 22.2081C991.001 22.1953 991.018 22.1783 991.039 22.1655C1012.83 8.6188 1037.64 1.39218 1062.8 1.27301C1063.02 1.26875 1063.24 1.26874 1063.46 1.26874C1086.88 1.26874 1110.15 7.36755 1130.8 18.914C1174.59 43.4071 1200.73 87.9245 1200.73 138C1200.73 188.076 1174.59 232.593 1130.8 257.086C1109.96 268.743 1086.49 274.834 1062.8 274.732C1037.64 274.608 1012.82 267.382 991.039 253.835C966.036 238.279 943.042 219.144 923.001 197.388C934.163 185.271 944.423 172.35 953.572 158.761C958.399 151.589 963.629 144.657 969.201 137.996C986.466 158.633 1007.11 176.636 1029.9 190.812Z" stroke="url(#paint1_linear)"/>
  </g>
  <defs>
    <linearGradient id="paint0_linear" x1="716.372" y1="-149.519" x2="714.614" y2="275.272" gradientUnits="userSpaceOnUse">
      <stop stop-color="#6000FF" stop-opacity="0.15"/>
      <stop offset="0.343724" stop-color="#4200C0"/>
      <stop offset="1" stop-color="#FF5E00"/>
    </linearGradient>
    <linearGradient id="paint1_linear" x1="483.085" y1="422.983" x2="484.843" y2="-1.80765" gradientUnits="userSpaceOnUse">
      <stop stop-color="#6000FF" stop-opacity="0.15"/>
      <stop offset="0.343724" stop-color="#4200C0"/>
      <stop offset="1" stop-color="#FF5E00"/>
    </linearGradient>
  </defs>
</svg>
