<svg width="82" height="85" viewBox="0 0 82 85" fill="none" xmlns="http://www.w3.org/2000/svg">
<path fill-rule="evenodd" clip-rule="evenodd" d="M61.5062 36.0726C54.6103 35.7732 49.1523 33.4056 45.1324 28.9697C39.1024 22.3158 38.4541 17.3663 38.4541 16.7806C38.4541 15.5658 44.2349 20.6545 47.6066 22.2319C50.9783 23.8093 64.4822 27.45 74.4359 30.3701C81.3197 32.3895 81.8127 36.9228 81.8127 39.1866C81.8127 42.2264 79.1147 44.3035 76.5921 44.7058C74.0695 45.1082 69.3075 47.8049 70.9706 51.8577C72.6338 55.9106 84.1556 59.0756 79.9192 64.812C76.8641 68.9487 66.586 59.1666 62.9832 59.1666C59.3804 59.1666 53.4309 60.1807 46.8859 58.4399C40.3408 56.6991 36.3543 51.1438 34.217 51.1438C32.0797 51.1438 30.7696 53.381 25.3114 54.2851C19.8531 55.1892 13.6846 51.1438 12.0795 51.1438C10.4744 51.1438 11.6447 52.0354 10.4707 56.6883C9.29667 61.3411 3.35094 64.1743 0.554703 60.2226C-2.24152 56.271 6.40925 44.5324 7.09761 43.8498C7.78597 43.1672 9.85345 41.2838 11.4816 42.4352C13.1097 43.5866 14.3289 44.2756 16.1412 43.4341C17.9536 42.5927 17.9536 32.2377 27.8538 32.6972C37.754 33.1566 43.473 38.1654 50.9783 38.818C55.9819 39.253 59.4912 38.3379 61.5062 36.0726Z" fill="url(#paint0_linear)"/>
<path fill-rule="evenodd" clip-rule="evenodd" d="M79.9192 64.812C76.8641 68.9488 66.586 59.1666 62.9832 59.1666C59.3804 59.1666 53.4309 60.1807 46.8859 58.4399C40.3408 56.6992 36.3543 51.1438 34.217 51.1438C32.0797 51.1438 30.7696 53.381 25.3113 54.2851C19.8531 55.1892 14.3289 44.2756 16.1412 43.4341C17.9536 42.5927 17.9536 32.2377 27.8538 32.6972C37.754 33.1566 43.4729 38.1654 50.9783 38.818C58.4837 39.4706 84.1556 59.0757 79.9192 64.812Z" fill="url(#paint1_linear)"/>
<path fill-rule="evenodd" clip-rule="evenodd" d="M76.9717 37.3508C76.6 37.2284 76.1896 36.9997 75.7406 36.6646C75.0671 36.1621 74.9556 35.1272 73.9933 34.9803C73.031 34.8333 71.5729 35.1191 71.2108 35.1191C70.8487 35.1191 72.635 35.6741 72.8248 36.1926C73.0146 36.7112 73.3072 37.4749 74.6489 37.7537C75.5433 37.9395 76.3176 37.8052 76.9717 37.3508Z" fill="white"/>
<path fill-rule="evenodd" clip-rule="evenodd" d="M14.1348 1.76466C16.7543 0.650699 29.1089 18.0353 41.73 40.5949C54.351 63.1546 62.4591 82.3464 59.8403 83.4617C57.2208 84.5757 44.8661 67.1911 32.2451 44.6314C19.624 22.0718 11.5159 2.87999 14.1348 1.76466ZM16.5247 6.44207C14.8879 7.13902 23.081 24.7207 34.2574 44.6981C45.4338 64.6754 56.281 81.1276 57.9181 80.4313C59.555 79.7343 51.3618 62.1526 40.1855 42.1753C29.0091 22.1979 18.1619 5.74571 16.5247 6.44207Z" fill="#72ACAC"/>
<path fill-rule="evenodd" clip-rule="evenodd" d="M13.6198 2.56247C13.9908 2.40585 15.1935 3.86135 16.9796 6.48247C16.7994 6.38893 16.6552 6.36304 16.5492 6.40774C14.8977 7.10527 23.1613 24.6934 34.4345 44.6779C44.8364 63.1177 54.956 78.555 57.7558 80.2837C58.466 82.0584 58.7343 83.1065 58.4489 83.227C55.806 84.3422 45.1346 67.1791 32.4042 44.6115C19.6739 22.0438 10.977 3.67799 13.6198 2.56247Z" fill="#BFD7D7"/>
<path fill-rule="evenodd" clip-rule="evenodd" d="M33.1977 51.4467C31.0622 51.4068 29.7168 53.6208 24.2485 54.4235C18.7802 55.2263 13.438 44.2038 15.2625 43.3957C17.087 42.5876 16.9001 32.6823 26.8106 32.6823C28.1844 32.6823 29.2344 32.7336 30.1019 32.8363C30.6204 32.8977 32.7584 33.2156 33.8044 34.7457C36.6985 38.9793 40.8898 50.9088 41.4392 54.4235C41.9887 57.9383 36.4924 52.2336 36.2592 52.1351C34.8897 51.5567 33.5964 51.4541 33.1977 51.4467Z" fill="url(#paint2_linear)"/>
<path fill-rule="evenodd" clip-rule="evenodd" d="M5.91118 77.8661C5.39235 78.041 4.78899 78.1284 4.1011 78.1284C3.54146 78.1284 3.04304 78.0672 2.60582 77.9448C2.1686 77.8224 1.78239 77.6446 1.44719 77.4114C1.11199 77.1782 0.824884 76.894 0.585872 76.5588C0.346859 76.2236 0.151569 75.8403 0 75.4089L1.04058 74.9805C1.163 75.3594 1.32768 75.6975 1.53463 75.9948C1.74158 76.2921 1.98205 76.5442 2.25604 76.7512C2.53003 76.9581 2.83463 77.117 3.16983 77.2278C3.50503 77.3385 3.86209 77.3939 4.24101 77.3939C4.52666 77.3939 4.80939 77.3545 5.08921 77.2758C5.36903 77.1971 5.6197 77.0806 5.84123 76.9261C6.06275 76.7716 6.24055 76.5821 6.37463 76.3577C6.50871 76.1332 6.57575 75.8724 6.57575 75.5751C6.57575 75.2195 6.48394 74.9032 6.30031 74.6263C6.11668 74.3494 5.87621 74.0958 5.5789 73.8655C5.28159 73.6353 4.94202 73.4181 4.56018 73.2141C4.17834 73.0101 3.78922 72.806 3.39281 72.602C2.9964 72.398 2.60728 72.1837 2.22544 71.9593C1.8436 71.7348 1.50403 71.4842 1.20672 71.2073C0.909413 70.9304 0.668943 70.6214 0.485312 70.2804C0.30168 69.9393 0.209864 69.5473 0.209864 69.1042C0.209864 68.6612 0.292936 68.2502 0.459079 67.8713C0.625221 67.4924 0.868606 67.1645 1.18923 66.8876C1.50986 66.6106 1.90481 66.3935 2.37409 66.2361C2.84337 66.0787 3.38115 66 3.98743 66C4.53541 66 5.02509 66.0583 5.45648 66.1749C5.88787 66.2915 6.26679 66.4635 6.59324 66.6908C6.9197 66.9182 7.1966 67.198 7.42396 67.5303C7.65131 67.8625 7.83494 68.2473 7.97485 68.6845L6.97799 69.1392C6.8614 68.7836 6.71275 68.4586 6.53203 68.1642C6.35132 67.8698 6.13562 67.6177 5.88495 67.4078C5.63428 67.198 5.34426 67.0362 5.01489 66.9225C4.68552 66.8089 4.31388 66.752 3.89998 66.752C3.53272 66.752 3.21209 66.803 2.9381 66.905C2.66411 67.0071 2.4353 67.1411 2.25167 67.3073C2.06804 67.4734 1.93104 67.66 1.84069 67.8669C1.75033 68.0739 1.70515 68.2852 1.70515 68.5009C1.70515 68.804 1.79842 69.0824 1.98497 69.336C2.17151 69.5896 2.41927 69.8286 2.72824 70.053C3.03721 70.2774 3.38844 70.4946 3.78193 70.7045C4.17543 70.9143 4.57621 71.1271 4.98428 71.3428C5.39235 71.5585 5.79313 71.7829 6.18663 72.0161C6.58013 72.2493 6.93136 72.5043 7.24032 72.7812C7.54929 73.0582 7.79705 73.3613 7.9836 73.6907C8.17014 74.02 8.26341 74.3888 8.26341 74.7968C8.26341 75.2574 8.17597 75.6902 8.00108 76.0954C7.8262 76.5005 7.56387 76.8532 7.21409 77.1534C6.86432 77.4536 6.43002 77.6912 5.91118 77.8661ZM14.638 77.9011C14.3466 78.0002 14.0697 78.0497 13.8073 78.0497C13.4168 78.0497 13.0495 77.9768 12.7055 77.8311C12.3616 77.6854 12.0614 77.4872 11.8049 77.2365C11.5484 76.9858 11.3458 76.6914 11.1971 76.3533C11.0485 76.0152 10.9742 75.6567 10.9742 75.2778V68.9031H12.758V75.2778C12.758 75.4993 12.809 75.7091 12.911 75.9074C13.0131 76.1056 13.1544 76.2775 13.3351 76.4233C13.5159 76.569 13.7243 76.6841 13.9604 76.7687C14.1965 76.8532 14.4515 76.8955 14.7255 76.8955C14.9004 76.8955 15.0884 76.8576 15.2895 76.7818C15.4906 76.706 15.6874 76.6025 15.8797 76.4714C16.0721 76.3402 16.2514 76.1857 16.4175 76.0079C16.5837 75.8301 16.725 75.6421 16.8416 75.4439V68.9031H18.608V77.8573H16.8416V76.1784C16.6842 76.4349 16.4875 76.6769 16.2514 76.9042C16.0153 77.1316 15.7602 77.3298 15.4863 77.4988C15.2123 77.6679 14.9295 77.802 14.638 77.9011ZM25.4111 78.1284C26.099 78.1284 26.7023 78.041 27.2212 77.8661C27.74 77.6912 28.1743 77.4536 28.5241 77.1534C28.8739 76.8532 29.1362 76.5005 29.3111 76.0954C29.486 75.6902 29.5734 75.2574 29.5734 74.7968C29.5734 74.3888 29.4801 74.02 29.2936 73.6907C29.107 73.3613 28.8593 73.0582 28.5503 72.7812C28.2414 72.5043 27.8901 72.2493 27.4966 72.0161C27.1031 71.7829 26.7023 71.5585 26.2943 71.3428C25.8862 71.1271 25.4854 70.9143 25.0919 70.7045C24.6984 70.4946 24.3472 70.2774 24.0382 70.053C23.7293 69.8286 23.4815 69.5896 23.295 69.336C23.1084 69.0824 23.0151 68.804 23.0151 68.5009C23.0151 68.2852 23.0603 68.0739 23.1507 67.8669C23.241 67.66 23.378 67.4734 23.5617 67.3073C23.7453 67.1411 23.9741 67.0071 24.2481 66.905C24.5221 66.803 24.8427 66.752 25.21 66.752C25.6239 66.752 25.9955 66.8089 26.3249 66.9225C26.6542 67.0362 26.9443 67.198 27.1949 67.4078C27.4456 67.6177 27.6613 67.8698 27.842 68.1642C28.0227 68.4586 28.1714 68.7836 28.288 69.1392L29.2848 68.6845C29.1449 68.2473 28.9613 67.8625 28.7339 67.5303C28.5066 67.198 28.2297 66.9182 27.9032 66.6908C27.5768 66.4635 27.1979 66.2915 26.7665 66.1749C26.3351 66.0583 25.8454 66 25.2974 66C24.6911 66 24.1534 66.0787 23.6841 66.2361C23.2148 66.3935 22.8199 66.6106 22.4992 66.8876C22.1786 67.1645 21.9352 67.4924 21.7691 67.8713C21.6029 68.2502 21.5199 68.6612 21.5199 69.1042C21.5199 69.5473 21.6117 69.9393 21.7953 70.2804C21.9789 70.6214 22.2194 70.9304 22.5167 71.2073C22.814 71.4842 23.1536 71.7348 23.5354 71.9593C23.9173 72.1837 24.3064 72.398 24.7028 72.602C25.0992 72.806 25.4883 73.0101 25.8702 73.2141C26.252 73.4181 26.5916 73.6353 26.8889 73.8655C27.1862 74.0958 27.4267 74.3494 27.6103 74.6263C27.7939 74.9032 27.8857 75.2195 27.8857 75.5751C27.8857 75.8724 27.8187 76.1332 27.6846 76.3577C27.5505 76.5821 27.3727 76.7716 27.1512 76.9261C26.9297 77.0806 26.679 77.1971 26.3992 77.2758C26.1194 77.3545 25.8367 77.3939 25.551 77.3939C25.1721 77.3939 24.815 77.3385 24.4798 77.2278C24.1446 77.117 23.84 76.9581 23.566 76.7512C23.292 76.5442 23.0516 76.2921 22.8446 75.9948C22.6377 75.6975 22.473 75.3594 22.3506 74.9805L21.31 75.4089C21.4616 75.8403 21.6569 76.2236 21.8959 76.5588C22.1349 76.894 22.422 77.1782 22.7572 77.4114C23.0924 77.6446 23.4786 77.8224 23.9158 77.9448C24.353 78.0672 24.8515 78.1284 25.4111 78.1284ZM33.2023 81.8317C32.905 81.9337 32.6164 81.9847 32.3366 81.9847C32.1268 81.9847 31.9227 81.9526 31.7245 81.8885C31.5263 81.8244 31.3602 81.7398 31.2261 81.6349L31.9694 79.9735C32.0393 80.0026 32.1166 80.0405 32.2011 80.0872C32.2856 80.1338 32.3789 80.179 32.4809 80.2227C32.5829 80.2664 32.6951 80.3028 32.8176 80.332C32.94 80.3611 33.077 80.3757 33.2285 80.3757C33.4151 80.3757 33.59 80.3233 33.7532 80.2183C33.9164 80.1134 34.0651 79.9822 34.1992 79.8248C34.3332 79.6674 34.4528 79.4955 34.5577 79.3089C34.6626 79.1224 34.7501 78.9475 34.82 78.7842L35.4234 77.4376L30.8501 68.9031H32.87L36.3153 75.3739L39.1397 68.9031H40.0929L35.5196 79.4313C35.3272 79.8685 35.1071 80.2475 34.8594 80.5681C34.6116 80.8887 34.3478 81.154 34.068 81.3638C33.7882 81.5737 33.4996 81.7296 33.2023 81.8317Z" fill="#FF0097"/>
<defs>
<linearGradient id="paint0_linear" x1="81.8127" y1="16.5951" x2="81.8127" y2="65.832" gradientUnits="userSpaceOnUse">
<stop stop-color="#FFA9DC"/>
<stop offset="1" stop-color="#FF0097"/>
</linearGradient>
<linearGradient id="paint1_linear" x1="80.3879" y1="32.6823" x2="80.3879" y2="65.832" gradientUnits="userSpaceOnUse">
<stop stop-color="#FFA9DC"/>
<stop offset="1" stop-color="#FF0097"/>
</linearGradient>
<linearGradient id="paint2_linear" x1="41.8608" y1="32.9374" x2="41.4657" y2="55.5751" gradientUnits="userSpaceOnUse">
<stop stop-color="#FFA9DC"/>
<stop offset="1" stop-color="#FF0097"/>
</linearGradient>
</defs>
</svg>
