<?xml version="1.0" encoding="UTF-8"?>
<svg width="158px" height="46px" viewBox="0 0 158 46" version="1.1" xmlns="http://www.w3.org/2000/svg" xmlns:xlink="http://www.w3.org/1999/xlink">
    <title>Group 5</title>
    <g id="Page-1" stroke="none" stroke-width="1" fill="none" fill-rule="evenodd">
        <g id="SuSy_Gravity_Faucet" transform="translate(-48.000000, -36.000000)">
            <g id="Group-5" transform="translate(50.000000, 37.000000)">
                <g id="Logo_Gravity_-Copy-3" opacity="0.822986421">
                    <polygon id="Path" stroke="#FFFFFF" points="0 12.6530362 45 6 32.4220421 44"></polygon>
                    <polygon id="Path" stroke="#FFFFFF" points="11 35 43 18.6529257 16.9104188 0"></polygon>
                    <polygon id="Path" stroke="#FFFFFF" points="31 31 27.4907161 9 12 20.724713"></polygon>
                    <polygon id="Path" stroke="#FFFFFF" points="32 21.1009356 18 19 21.9131916 31"></polygon>
                    <path d="M61.7391363,32.3004278 C62.5177856,32.3004278 63.1846699,32.0322636 63.7397893,31.4960204 C64.2949087,30.9596919 64.5724683,30.3104835 64.5724683,29.5483954 L64.5724683,23.9385322 L58.5381089,23.9385322 L58.5381089,26.2459564 L62.2149776,26.2459564 L62.2149776,29.2309155 C62.2149776,29.541399 62.1644808,29.7494972 62.0635735,29.8553807 C61.9626662,29.9611789 61.7463748,30.0141633 61.4146991,30.0141633 L52.1360539,30.0141633 C51.8188551,30.0141633 51.6061829,29.9611789 51.4980371,29.8553807 C51.3898914,29.7494972 51.3358616,29.541399 51.3358616,29.2309155 L51.3358616,20.128006 C51.3358616,19.8175225 51.3898914,19.6094243 51.4980371,19.5035408 C51.6061829,19.3977426 51.8188551,19.3447582 52.1360539,19.3447582 L61.4146991,19.3447582 C61.7463748,19.3447582 61.9626662,19.3977426 62.0635735,19.5035408 C62.1644808,19.6094243 62.2149776,19.8175225 62.2149776,20.128006 L62.2149776,20.7208171 L64.5724683,20.7208171 L64.5724683,19.8105262 C64.5724683,19.048438 64.2949087,18.3992297 63.7397893,17.8629012 C63.1846699,17.326658 62.5177856,17.0584937 61.7391363,17.0584937 L51.8117029,17.0584937 C51.0330536,17.0584937 50.3697885,17.326658 49.8218214,17.8629012 C49.2739405,18.3992297 49,19.048438 49,19.8105262 L49,29.5483954 C49,30.3104835 49.2739405,30.9596919 49.8218214,31.4960204 C50.3697885,32.0322636 51.0330536,32.3004278 51.8117029,32.3004278 L61.7391363,32.3004278 Z M70.7945964,32.3004278 L70.7945964,23.0917202 C70.7945964,22.7812367 70.8487124,22.5731385 70.9568581,22.467255 C71.0650038,22.3614568 71.2776761,22.3084724 71.5948748,22.3084724 L78.2781087,22.3084724 L78.2781087,20.0222079 L71.2704376,20.0222079 C70.4917884,20.0222079 69.8285233,20.2903721 69.2806423,20.8266153 C68.7326752,21.3629438 68.4587348,22.0121522 68.4587348,22.7742403 L68.4587348,32.3004278 L70.7945964,32.3004278 Z M94.1486456,32.3004278 L94.1486456,22.7742403 C94.1486456,22.0121522 93.874619,21.3629438 93.3265657,20.8266153 C92.7793742,20.2903721 92.1158506,20.0222079 91.3368566,20.0222079 L81.388311,20.0222079 L81.388311,22.3084724 L91.0128503,22.3084724 C91.3299629,22.3084724 91.5393606,22.3614568 91.6401817,22.467255 C91.7410028,22.5731385 91.7909825,22.7812367 91.7909825,23.0917202 L91.7909825,25.0181856 L81.388311,25.0181856 L81.388311,29.5483954 C81.388311,30.3104835 81.6623376,30.9596919 82.2103909,31.4960204 C82.7575825,32.0322636 83.4211061,32.3004278 84.2001,32.3004278 L94.1486456,32.3004278 Z M91.7909825,30.0141633 L84.5241064,30.0141633 C84.2069938,30.0141633 83.9941492,29.9611789 83.8864343,29.8553807 C83.7778577,29.7494972 83.7235694,29.541399 83.7235694,29.2309155 L83.7235694,27.1562473 L91.7909825,27.1562473 L91.7909825,30.0141633 Z M105.994696,32.3004278 L112.915162,20.0222079 L110.211949,20.0222079 L104.826205,29.7177578 L99.4413236,20.0222079 L96.7372494,20.0222079 L103.658576,32.3004278 L105.994696,32.3004278 Z M118.510303,18.2863498 L118.510303,16 L116.175044,16 L116.175044,18.2863498 L118.510303,18.2863498 Z M118.510303,32.3004278 L118.510303,20.0222079 L116.175044,20.0222079 L116.175044,32.3004278 L118.510303,32.3004278 Z M130.089221,32.3004278 L130.089221,30.0141633 L125.741849,30.0141633 C125.424736,30.0141633 125.211891,29.9611789 125.104176,29.8553807 C124.9956,29.7494972 124.941312,29.541399 124.941312,29.2309155 L124.941312,22.3084724 L130.089221,22.3084724 L130.089221,20.0222079 L124.941312,20.0222079 L124.941312,16.1482028 L122.606053,16.1482028 L122.606053,29.5483954 C122.606053,30.3104835 122.88008,30.9596919 123.427271,31.4960204 C123.975325,32.0322636 124.638848,32.3004278 125.417842,32.3004278 L130.089221,32.3004278 Z M143.188211,37 C143.967205,37 144.629867,36.7319211 145.17792,36.1955926 C145.725973,35.659264 146,35.010141 146,34.2480529 L146,20.0645271 L143.66388,20.0645271 L143.66388,29.2309155 C143.66388,29.541399 143.610453,29.7494972 143.501877,29.8553807 C143.394162,29.9611789 143.181317,30.0141633 142.864205,30.0141633 L136.375461,30.0141633 C136.058348,30.0141633 135.845504,29.9611789 135.736927,29.8553807 C135.629212,29.7494972 135.574924,29.541399 135.574924,29.2309155 L135.574924,20.0645271 L133.239665,20.0645271 L133.239665,29.5483954 C133.239665,30.3104835 133.51283,30.9596919 134.060884,31.4960204 C134.608937,32.0322636 135.27246,32.3004278 136.050593,32.3004278 L143.66388,32.3004278 L143.66388,33.909328 C143.66388,34.2198116 143.610453,34.4279951 143.501877,34.5337933 C143.394162,34.6396768 143.181317,34.6925758 142.864205,34.6925758 L135.445666,34.6925758 L135.445666,37 L143.188211,37 Z" id="Shape" fill="#FFFFFF" fill-rule="nonzero"></path>
                </g>
                <path d="M100.05,11 C100.43,11 100.755,10.865 101.025,10.595 C101.295,10.325 101.43,10 101.43,9.62 L101.43,9.62 L101.43,6.58 C101.43,6.2 101.295,5.875 101.025,5.605 C100.755,5.335 100.43,5.2 100.05,5.2 L100.05,5.2 L96.85,5.2 L96.85,3.3 L95.54,3.3 L95.54,11 L100.05,11 Z M99.77,9.69 L97.2,9.69 C97.0133333,9.69 96.9083333,9.67833333 96.885,9.655 C96.8616667,9.63166667 96.85,9.52666667 96.85,9.34 L96.85,9.34 L96.85,6.86 C96.85,6.67333333 96.8616667,6.56833333 96.885,6.545 C96.9083333,6.52166667 97.0133333,6.51 97.2,6.51 L97.2,6.51 L99.77,6.51 C99.9566667,6.51 100.061667,6.52166667 100.085,6.545 C100.108333,6.56833333 100.12,6.67333333 100.12,6.86 L100.12,6.86 L100.12,9.34 C100.12,9.52666667 100.108333,9.63166667 100.085,9.655 C100.061667,9.67833333 99.9566667,9.69 99.77,9.69 L99.77,9.69 Z M116.87,11 L116.87,9.69 L112.64,9.69 C112.453333,9.69 112.348333,9.67833333 112.325,9.655 C112.301667,9.63166667 112.29,9.52666667 112.29,9.34 L112.29,9.34 L112.29,8.76 L116.87,8.76 L116.87,6.58 C116.87,6.2 116.735,5.875 116.465,5.605 C116.195,5.335 115.87,5.2 115.49,5.2 L115.49,5.2 L112.36,5.2 C111.98,5.2 111.655,5.335 111.385,5.605 C111.115,5.875 110.98,6.2 110.98,6.58 L110.98,6.58 L110.98,9.62 C110.98,10 111.115,10.325 111.385,10.595 C111.655,10.865 111.98,11 112.36,11 L112.36,11 L116.87,11 Z M115.56,7.58 L112.29,7.58 L112.29,6.86 C112.29,6.67333333 112.301667,6.56833333 112.325,6.545 C112.348333,6.52166667 112.453333,6.51 112.64,6.51 L112.64,6.51 L115.21,6.51 C115.396667,6.51 115.501667,6.52166667 115.525,6.545 C115.548333,6.56833333 115.56,6.67333333 115.56,6.86 L115.56,6.86 L115.56,7.58 Z M130.29,11 L130.29,9.69 L128.38,9.69 C128.193333,9.69 128.088333,9.67833333 128.065,9.655 C128.041667,9.63166667 128.03,9.52666667 128.03,9.34 L128.03,9.34 L128.03,6.51 L130.29,6.51 L130.29,5.2 L128.03,5.2 L128.03,3.42 L126.72,3.42 L126.72,9.62 C126.72,10 126.855,10.325 127.125,10.595 C127.395,10.865 127.72,11 128.1,11 L128.1,11 L130.29,11 Z M145.992576,11 L145.992576,6.58 C145.992576,6.2 145.857576,5.875 145.587576,5.605 C145.317576,5.335 144.992576,5.2 144.612576,5.2 L144.612576,5.2 L140.102576,5.2 L140.102576,6.51 L144.332576,6.51 C144.519242,6.51 144.624242,6.52166667 144.647576,6.545 C144.670909,6.56833333 144.682576,6.67333333 144.682576,6.86 L144.682576,6.86 L144.682576,7.44 L140.102576,7.44 L140.102576,9.62 C140.102576,10 140.237576,10.325 140.507576,10.595 C140.777576,10.865 141.102576,11 141.482576,11 L141.482576,11 L145.992576,11 Z M144.682576,9.69 L141.762576,9.69 C141.575909,9.69 141.470909,9.67833333 141.447576,9.655 C141.424242,9.63166667 141.412576,9.52666667 141.412576,9.34 L141.412576,9.34 L141.412576,8.62 L144.682576,8.62 L144.682576,9.69 Z" id="beta" fill="#FF8E1E" fill-rule="nonzero"></path>
            </g>
        </g>
    </g>
</svg>