<svg width="183" height="85" viewBox="0 0 183 85" fill="none" xmlns="http://www.w3.org/2000/svg">
<path fill-rule="evenodd" clip-rule="evenodd" d="M65.3331 31.67C58.5438 32.9145 52.6956 31.8223 47.7883 28.3935C40.4275 23.2502 38.6929 18.5695 38.5624 17.9986C38.2918 16.8142 45.0609 20.4872 48.6993 21.2738C52.3378 22.0604 66.3133 22.6012 76.6674 23.2304C83.8281 23.6655 85.3187 27.9749 85.823 30.1818C86.5003 33.1452 84.3327 35.7712 81.9632 36.7255C79.5937 37.6797 75.5521 41.3695 78.0763 44.95C80.6006 48.5304 92.538 49.0491 89.686 55.5851C87.6293 60.2985 75.4302 53.052 71.9179 53.8546C68.4057 54.6573 62.8316 56.9713 56.0633 56.7324C49.2949 56.4935 44.1709 51.9659 42.0873 52.4421C40.0038 52.9182 39.225 55.391 34.1053 57.4884C28.9857 59.5858 22.071 57.0163 20.5062 57.3739C18.9415 57.7315 20.281 58.34 20.173 63.1375C20.0651 67.9349 14.9 72.0215 11.2937 68.7921C7.68734 65.5628 13.5056 52.1919 14.0245 51.3731C14.5435 50.5543 16.1395 48.2577 17.9832 49.0174C19.8269 49.7772 21.1689 50.1772 22.7483 48.9532C24.3276 47.7291 22.0207 37.6343 31.7745 35.8766C41.5282 34.119 48.2193 37.7278 55.6814 36.6919C60.6562 36.0013 63.8734 34.3273 65.3331 31.67Z" fill="url(#paint0_linear)"/>
<path fill-rule="evenodd" clip-rule="evenodd" d="M89.6861 55.5851C87.6293 60.2985 75.4303 53.052 71.918 53.8546C68.4058 54.6573 62.8317 56.9713 56.0634 56.7324C49.295 56.4935 44.171 51.9659 42.0874 52.4421C40.0038 52.9182 39.225 55.3911 34.1054 57.4884C28.9858 59.5858 21.169 50.1772 22.7484 48.9532C24.3277 47.7291 22.0208 37.6343 31.7745 35.8766C41.5283 34.119 48.2194 37.7278 55.6815 36.6919C63.1437 35.656 92.538 49.0491 89.6861 55.5851Z" fill="url(#paint1_linear)"/>
<path fill-rule="evenodd" clip-rule="evenodd" d="M80.6947 29.4707C80.3051 29.4342 79.8541 29.3026 79.3417 29.076C78.5732 28.7361 78.234 27.7521 77.2631 27.8233C76.2922 27.8944 74.9344 28.4978 74.5814 28.5785C74.2284 28.6592 76.0934 28.8022 76.394 29.2655C76.6946 29.7287 77.15 30.4081 78.52 30.3809C79.4334 30.3628 80.1583 30.0593 80.6947 29.4707Z" fill="white"/>
<path fill-rule="evenodd" clip-rule="evenodd" d="M20.3187 19.9164C21.9506 18.7346 33.2173 28.7826 45.484 42.3595C57.7506 55.9365 66.372 67.9011 64.7408 69.0837C63.1089 70.2655 51.8421 60.2176 39.5755 46.6406C27.3089 33.0637 18.6874 21.099 20.3187 19.9164ZM22.7055 22.7672C21.6859 23.5062 30.1121 34.3464 40.9746 46.3693C51.8371 58.3921 61.9166 68.0344 62.9365 67.2957C63.9561 66.5567 55.5299 55.7165 44.6674 43.6936C33.8049 31.6707 23.7254 22.0285 22.7055 22.7672Z" fill="#72ACAC"/>
<path fill-rule="evenodd" clip-rule="evenodd" d="M20.0893 20.5482C20.3206 20.3816 21.38 21.1963 23.0259 22.7233C22.8867 22.6872 22.7832 22.6921 22.7171 22.7396C21.6874 23.4814 30.1633 34.3149 41.0938 46.3274C51.1794 57.4114 60.5968 66.4681 62.8014 67.2195C63.5713 68.3321 63.9217 69.0131 63.7438 69.1412C62.0959 70.3275 52.0257 60.167 39.6823 46.6018C27.339 33.0365 18.4416 21.7347 20.0893 20.5482Z" fill="#BFD7D7"/>
<path fill-rule="evenodd" clip-rule="evenodd" d="M41.1613 52.9644C39.0706 53.4013 38.2522 55.8593 33.1002 57.8602C27.9482 59.861 20.2845 50.3056 21.8832 49.1114C23.4818 47.9172 21.0929 38.3024 30.7543 36.0945C32.0936 35.7885 33.1287 35.6046 33.9972 35.5114C34.5164 35.4557 36.6714 35.2894 38.032 36.548C41.7966 40.0304 48.5402 50.7264 49.8589 54.0304C51.1776 57.3343 44.5485 52.9976 44.2992 52.9535C42.8352 52.6947 41.5516 52.8828 41.1613 52.9644Z" fill="url(#paint2_linear)"/>
<path fill-rule="evenodd" clip-rule="evenodd" d="M106.269 53.6369C105.105 54.0294 103.75 54.2257 102.206 54.2257C100.95 54.2257 99.831 54.0883 98.8495 53.8135C97.868 53.5387 97.0011 53.1396 96.2486 52.6161C95.4962 52.0927 94.8517 51.4547 94.3152 50.7023C93.7786 49.9498 93.3402 49.0894 93 48.121L95.3359 47.1592C95.6107 48.0098 95.9804 48.7688 96.4449 49.4362C96.9095 50.1036 97.4493 50.6696 98.0643 51.1341C98.6794 51.5987 99.3631 51.9553 100.116 52.2039C100.868 52.4526 101.67 52.5769 102.52 52.5769C103.161 52.5769 103.796 52.4885 104.424 52.3119C105.052 52.1352 105.615 51.8735 106.112 51.5267C106.61 51.1799 107.009 50.7546 107.31 50.2508C107.611 49.747 107.761 49.1614 107.761 48.494C107.761 47.6957 107.555 46.9858 107.143 46.3642C106.731 45.7426 106.191 45.1734 105.523 44.6565C104.856 44.1396 104.094 43.6521 103.237 43.1941C102.379 42.7361 101.506 42.2781 100.616 41.8201C99.7263 41.362 98.8528 40.8811 97.9956 40.3773C97.1385 39.8735 96.3762 39.3108 95.7088 38.6892C95.0414 38.0676 94.5016 37.374 94.0894 36.6085C93.6772 35.843 93.4711 34.9629 93.4711 33.9684C93.4711 32.9738 93.6576 32.0513 94.0305 31.2007C94.4035 30.3501 94.9498 29.614 95.6696 28.9924C96.3893 28.3708 97.2759 27.8833 98.3293 27.53C99.3828 27.1767 100.59 27 101.951 27C103.181 27 104.28 27.1309 105.249 27.3926C106.217 27.6543 107.068 28.0403 107.8 28.5507C108.533 29.0611 109.155 29.6892 109.665 30.4351C110.176 31.181 110.588 32.0447 110.902 33.0262L108.664 34.0469C108.402 33.2486 108.069 32.5191 107.663 31.8582C107.257 31.1974 106.773 30.6314 106.21 30.1603C105.648 29.6892 104.997 29.3261 104.257 29.0709C103.518 28.8157 102.684 28.6881 101.755 28.6881C100.93 28.6881 100.21 28.8026 99.5954 29.0316C98.9804 29.2606 98.4667 29.5616 98.0545 29.9346C97.6423 30.3075 97.3348 30.7263 97.132 31.1908C96.9291 31.6554 96.8277 32.1298 96.8277 32.614C96.8277 33.2944 97.0371 33.9193 97.4558 34.4885C97.8746 35.0578 98.4308 35.5943 99.1243 36.0981C99.8179 36.602 100.606 37.0894 101.49 37.5605C102.373 38.0316 103.273 38.5093 104.189 38.9935C105.105 39.4776 106.004 39.9815 106.888 40.5049C107.771 41.0284 108.559 41.6009 109.253 42.2225C109.947 42.8441 110.503 43.5245 110.921 44.2639C111.34 45.0033 111.55 45.831 111.55 46.747C111.55 47.7808 111.353 48.7525 110.961 49.6619C110.568 50.5714 109.979 51.3631 109.194 52.0371C108.409 52.711 107.434 53.2443 106.269 53.6369ZM125.859 53.7154C125.205 53.9379 124.583 54.0491 123.994 54.0491C123.118 54.0491 122.293 53.8855 121.521 53.5584C120.749 53.2312 120.075 52.7863 119.499 52.2236C118.924 51.6609 118.469 51 118.135 50.241C117.801 49.482 117.635 48.6772 117.635 47.8266V33.5169H121.639V47.8266C121.639 48.3239 121.753 48.795 121.982 49.2399C122.211 49.6849 122.529 50.0709 122.934 50.3981C123.34 50.7252 123.808 50.9837 124.338 51.1734C124.868 51.3632 125.44 51.458 126.056 51.458C126.448 51.458 126.87 51.373 127.322 51.2029C127.773 51.0327 128.215 50.8005 128.647 50.506C129.078 50.2116 129.481 49.8648 129.854 49.4657C130.227 49.0665 130.544 48.6445 130.806 48.1996V33.5169H134.771V53.6173H130.806V49.8484C130.452 50.4242 130.011 50.9673 129.481 51.4777C128.951 51.988 128.378 52.433 127.763 52.8125C127.148 53.192 126.514 53.4929 125.859 53.7154ZM150.043 54.2257C151.587 54.2257 152.941 54.0294 154.106 53.6369C155.271 53.2443 156.246 52.711 157.031 52.0371C157.816 51.3631 158.405 50.5714 158.797 49.6619C159.19 48.7525 159.386 47.7808 159.386 46.747C159.386 45.831 159.177 45.0033 158.758 44.2639C158.339 43.5245 157.783 42.8441 157.09 42.2225C156.396 41.6009 155.608 41.0284 154.724 40.5049C153.841 39.9815 152.941 39.4776 152.025 38.9935C151.109 38.5093 150.21 38.0316 149.326 37.5605C148.443 37.0894 147.654 36.602 146.961 36.0981C146.267 35.5943 145.711 35.0578 145.292 34.4885C144.874 33.9193 144.664 33.2944 144.664 32.614C144.664 32.1298 144.766 31.6554 144.969 31.1908C145.171 30.7263 145.479 30.3075 145.891 29.9346C146.303 29.5616 146.817 29.2606 147.432 29.0316C148.047 28.8026 148.767 28.6881 149.591 28.6881C150.52 28.6881 151.355 28.8157 152.094 29.0709C152.833 29.3261 153.484 29.6892 154.047 30.1603C154.61 30.6314 155.094 31.1974 155.5 31.8582C155.905 32.5191 156.239 33.2486 156.501 34.0469L158.738 33.0262C158.424 32.0447 158.012 31.181 157.502 30.4351C156.991 29.6892 156.37 29.0611 155.637 28.5507C154.904 28.0403 154.054 27.6543 153.085 27.3926C152.117 27.1309 151.018 27 149.788 27C148.427 27 147.219 27.1767 146.166 27.53C145.112 27.8833 144.226 28.3708 143.506 28.9924C142.786 29.614 142.24 30.3501 141.867 31.2007C141.494 32.0513 141.308 32.9738 141.308 33.9684C141.308 34.9629 141.514 35.843 141.926 36.6085C142.338 37.374 142.878 38.0676 143.545 38.6892C144.213 39.3108 144.975 39.8735 145.832 40.3773C146.689 40.8811 147.563 41.362 148.453 41.8201C149.343 42.2781 150.216 42.7361 151.073 43.1941C151.93 43.6521 152.693 44.1396 153.36 44.6565C154.027 45.1734 154.567 45.7426 154.979 46.3642C155.392 46.9858 155.598 47.6957 155.598 48.494C155.598 49.1614 155.447 49.747 155.146 50.2508C154.845 50.7546 154.446 51.1799 153.949 51.5267C153.452 51.8735 152.889 52.1352 152.261 52.3119C151.633 52.4885 150.998 52.5769 150.357 52.5769C149.506 52.5769 148.705 52.4526 147.952 52.2039C147.2 51.9553 146.516 51.5987 145.901 51.1341C145.286 50.6696 144.746 50.1036 144.282 49.4362C143.817 48.7688 143.447 48.0098 143.172 47.1592L140.837 48.121C141.177 49.0894 141.615 49.9498 142.152 50.7023C142.688 51.4547 143.333 52.0927 144.085 52.6161C144.838 53.1396 145.705 53.5387 146.686 53.8135C147.668 54.0883 148.786 54.2257 150.043 54.2257ZM167.532 62.5387C166.865 62.7677 166.217 62.8822 165.589 62.8822C165.118 62.8822 164.66 62.8103 164.215 62.6663C163.77 62.5224 163.397 62.3326 163.096 62.0971L164.764 58.3675C164.922 58.433 165.095 58.518 165.285 58.6227C165.474 58.7274 165.684 58.8288 165.913 58.927C166.142 59.0251 166.394 59.1069 166.669 59.1723C166.943 59.2378 167.251 59.2705 167.591 59.2705C168.01 59.2705 168.402 59.1527 168.769 58.9171C169.135 58.6816 169.469 58.3872 169.77 58.0338C170.071 57.6805 170.339 57.2945 170.575 56.8757C170.81 56.457 171.007 56.0644 171.164 55.698L172.518 52.6751L162.252 33.5169H166.786L174.52 48.0426L180.86 33.5169H183L172.734 57.1505C172.302 58.132 171.808 58.9826 171.252 59.7023C170.696 60.4221 170.104 61.0175 169.476 61.4886C168.847 61.9597 168.2 62.3097 167.532 62.5387Z" fill="#FF0097"/>
<defs>
<linearGradient id="paint0_linear" x1="80.79" y1="8.15811" x2="91.7592" y2="56.1576" gradientUnits="userSpaceOnUse">
<stop stop-color="#FFA9DC"/>
<stop offset="1" stop-color="#FF0097"/>
</linearGradient>
<linearGradient id="paint1_linear" x1="82.9851" y1="24.1584" x2="90.3703" y2="56.475" gradientUnits="userSpaceOnUse">
<stop stop-color="#FFA9DC"/>
<stop offset="1" stop-color="#FF0097"/>
</linearGradient>
<linearGradient id="paint2_linear" x1="45.4832" y1="32.9903" x2="50.1413" y2="55.1471" gradientUnits="userSpaceOnUse">
<stop stop-color="#FFA9DC"/>
<stop offset="1" stop-color="#FF0097"/>
</linearGradient>
</defs>
</svg>
